  0
SECTION
  2
HEADER
  9
$ACADVER
  1
AC1014
  9
$ACADMAINTVER
 70
     8
  9
$DWGCODEPAGE
  3
ANSI_1252
  9
$INSBASE
 10
0.0
 20
0.0
 30
0.0
  9
$EXTMIN
 10
1.000000E+20
 20
1.000000E+20
 30
1.000000E+20
  9
$EXTMAX
 10
-1.000000E+20
 20
-1.000000E+20
 30
-1.000000E+20
  9
$LIMMIN
 10
0.0
 20
0.0
  9
$LIMMAX
 10
12.0
 20
9.0
  9
$ORTHOMODE
 70
     0
  9
$REGENMODE
 70
     1
  9
$FILLMODE
 70
     1
  9
$QTEXTMODE
 70
     0
  9
$MIRRTEXT
 70
     1
  9
$DRAGMODE
 70
     2
  9
$LTSCALE
 40
1.0
  9
$OSMODE
 70
     0
  9
$ATTMODE
 70
     1
  9
$TEXTSIZE
 40
0.2
  9
$TRACEWID
 40
0.05
  9
$TEXTSTYLE
  7
STANDARD
  9
$CLAYER
  8
0
  9
$CELTYPE
  6
BYLAYER
  9
$CECOLOR
 62
   256
  9
$CELTSCALE
 40
1.0
  9
$DELOBJ
 70
     1
  9
$DISPSILH
 70
     0
  9
$DIMSCALE
 40
1.0
  9
$DIMASZ
 40
0.18
  9
$DIMEXO
 40
0.0625
  9
$DIMDLI
 40
0.38
  9
$DIMRND
 40
0.0
  9
$DIMDLE
 40
0.0
  9
$DIMEXE
 40
0.18
  9
$DIMTP
 40
0.0
  9
$DIMTM
 40
0.0
  9
$DIMTXT
 40
0.18
  9
$DIMCEN
 40
0.09
  9
$DIMTSZ
 40
0.0
  9
$DIMTOL
 70
     0
  9
$DIMLIM
 70
     0
  9
$DIMTIH
 70
     1
  9
$DIMTOH
 70
     1
  9
$DIMSE1
 70
     0
  9
$DIMSE2
 70
     0
  9
$DIMTAD
 70
     0
  9
$DIMZIN
 70
     0
  9
$DIMBLK
  1

  9
$DIMASO
 70
     1
  9
$DIMSHO
 70
     1
  9
$DIMPOST
  1

  9
$DIMAPOST
  1

  9
$DIMALT
 70
     0
  9
$DIMALTD
 70
     2
  9
$DIMALTF
 40
25.4
  9
$DIMLFAC
 40
1.0
  9
$DIMTOFL
 70
     0
  9
$DIMTVP
 40
0.0
  9
$DIMTIX
 70
     0
  9
$DIMSOXD
 70
     0
  9
$DIMSAH
 70
     0
  9
$DIMBLK1
  1

  9
$DIMBLK2
  1

  9
$DIMSTYLE
  2
STANDARD
  9
$DIMCLRD
 70
     0
  9
$DIMCLRE
 70
     0
  9
$DIMCLRT
 70
     0
  9
$DIMTFAC
 40
1.0
  9
$DIMGAP
 40
0.09
  9
$DIMJUST
 70
     0
  9
$DIMSD1
 70
     0
  9
$DIMSD2
 70
     0
  9
$DIMTOLJ
 70
     1
  9
$DIMTZIN
 70
     0
  9
$DIMALTZ
 70
     0
  9
$DIMALTTZ
 70
     0
  9
$DIMFIT
 70
     3
  9
$DIMUPT
 70
     0
  9
$DIMUNIT
 70
     2
  9
$DIMDEC
 70
     4
  9
$DIMTDEC
 70
     4
  9
$DIMALTU
 70
     2
  9
$DIMALTTD
 70
     2
  9
$DIMTXSTY
  7
STANDARD
  9
$DIMAUNIT
 70
     0
  9
$LUNITS
 70
     2
  9
$LUPREC
 70
     4
  9
$SKETCHINC
 40
0.1
  9
$FILLETRAD
 40
0.5
  9
$AUNITS
 70
     0
  9
$AUPREC
 70
     0
  9
$MENU
  1
.
  9
$ELEVATION
 40
0.0
  9
$PELEVATION
 40
0.0
  9
$THICKNESS
 40
0.0
  9
$LIMCHECK
 70
     0
  9
$BLIPMODE
 70
     0
  9
$CHAMFERA
 40
0.5
  9
$CHAMFERB
 40
0.5
  9
$CHAMFERC
 40
1.0
  9
$CHAMFERD
 40
0.0
  9
$SKPOLY
 70
     1
  9
$TDCREATE
 40
2451008.519973958
  9
$TDUPDATE
 40
2451008.523538426
  9
$TDINDWG
 40
0.0024055556
  9
$TDUSRTIMER
 40
0.0024055556
  9
$USRTIMER
 70
     1
  9
$ANGBASE
 50
0.0
  9
$ANGDIR
 70
     0
  9
$PDMODE
 70
    33
  9
$PDSIZE
 40
0.0
  9
$PLINEWID
 40
0.0
  9
$COORDS
 70
     1
  9
$SPLFRAME
 70
     0
  9
$SPLINETYPE
 70
     6
  9
$SPLINESEGS
 70
     8
  9
$ATTDIA
 70
     0
  9
$ATTREQ
 70
     1
  9
$HANDLING
 70
     1
  9
$HANDSEED
  5
52F
  9
$SURFTAB1
 70
     6
  9
$SURFTAB2
 70
     6
  9
$SURFTYPE
 70
     6
  9
$SURFU
 70
     6
  9
$SURFV
 70
     6
  9
$UCSNAME
  2

  9
$UCSORG
 10
0.0
 20
0.0
 30
0.0
  9
$UCSXDIR
 10
1.0
 20
0.0
 30
0.0
  9
$UCSYDIR
 10
0.0
 20
1.0
 30
0.0
  9
$PUCSNAME
  2

  9
$PUCSORG
 10
0.0
 20
0.0
 30
0.0
  9
$PUCSXDIR
 10
1.0
 20
0.0
 30
0.0
  9
$PUCSYDIR
 10
0.0
 20
1.0
 30
0.0
  9
$USERI1
 70
     0
  9
$USERI2
 70
     0
  9
$USERI3
 70
     0
  9
$USERI4
 70
     0
  9
$USERI5
 70
     0
  9
$USERR1
 40
0.0
  9
$USERR2
 40
0.0
  9
$USERR3
 40
0.0
  9
$USERR4
 40
0.0
  9
$USERR5
 40
0.0
  9
$WORLDVIEW
 70
     1
  9
$SHADEDGE
 70
     3
  9
$SHADEDIF
 70
    70
  9
$TILEMODE
 70
     1
  9
$MAXACTVP
 70
    48
  9
$PINSBASE
 10
0.0
 20
0.0
 30
0.0
  9
$PLIMCHECK
 70
     0
  9
$PEXTMIN
 10
1.000000E+20
 20
1.000000E+20
 30
1.000000E+20
  9
$PEXTMAX
 10
-1.000000E+20
 20
-1.000000E+20
 30
-1.000000E+20
  9
$PLIMMIN
 10
0.0
 20
0.0
  9
$PLIMMAX
 10
12.0
 20
9.0
  9
$UNITMODE
 70
     0
  9
$VISRETAIN
 70
     1
  9
$PLINEGEN
 70
     0
  9
$PSLTSCALE
 70
     1
  9
$TREEDEPTH
 70
  3020
  9
$PICKSTYLE
 70
     1
  9
$CMLSTYLE
  2
STANDARD
  9
$CMLJUST
 70
     0
  9
$CMLSCALE
 40
1.0
  9
$PROXYGRAPHICS
 70
     1
  9
$MEASUREMENT
 70
     0
  0
ENDSEC
  0
SECTION
  2
CLASSES
  0
ENDSEC
  0
SECTION
  2
TABLES
  0
TABLE
  2
VPORT
  5
8
100
AcDbSymbolTable
 70
     3
  0
VPORT
  5
5A
100
AcDbSymbolTableRecord
100
AcDbViewportTableRecord
  2
*ACTIVE
 70
     0
 10
0.0
 20
0.0
 11
1.0
 21
1.0
 12
7.623626
 22
4.5
 13
0.0
 23
0.0
 14
0.5
 24
0.5
 15
0.5
 25
0.5
 16
0.0
 26
0.0
 36
1.0
 17
0.0
 27
0.0
 37
0.0
 40
9.0
 41
1.694139
 42
50.0
 43
0.0
 44
0.0
 50
0.0
 51
0.0
 71
     0
 72
   100
 73
     1
 74
     1
 75
     0
 76
     0
 77
     0
 78
     0
  0
ENDTAB
  0
TABLE
  2
LTYPE
  5
5
100
AcDbSymbolTable
 70
     1
  0
LTYPE
  5
13
100
AcDbSymbolTableRecord
100
AcDbLinetypeTableRecord
  2
BYBLOCK
 70
     0
  3

 72
    65
 73
     0
 40
0.0
  0
LTYPE
  5
14
100
AcDbSymbolTableRecord
100
AcDbLinetypeTableRecord
  2
BYLAYER
 70
     0
  3

 72
    65
 73
     0
 40
0.0
  0
LTYPE
  5
15
100
AcDbSymbolTableRecord
100
AcDbLinetypeTableRecord
  2
CONTINUOUS
 70
     0
  3
Solid line
 72
    65
 73
     0
 40
0.0
0
LTYPE
5
4C
100
AcDbSymbolTableRecord
100
AcDbLinetypeTableRecord
2
Center
70
0
3
Center ____ _ ____ _ ____ _ ____ _ ____ _ ____
72
65
73
4
40
2.0
49
1.25
74
0
49
-0.25
74
0
49
0.25
74
0
49
-0.25
74
0
0
LTYPE
5
4D
100
AcDbSymbolTableRecord
100
AcDbLinetypeTableRecord
2
Dashed
70
0
3
Dashed __ __ __ __ __ __ __ __ __ __ __ __ __ _
72
65
73
2
40
0.75
49
0.5
74
0
49
-0.25
74
0
0
LTYPE
5
4E
100
AcDbSymbolTableRecord
100
AcDbLinetypeTableRecord
2
Hidden
70
0
3
Hidden __ __ __ __ __ __ __ __ __ __ __ __ __ _
72
65
73
2
40
0.375
49
0.25
74
0
49
-0.125
74
0
  0
ENDTAB
  0
TABLE
  2
LAYER
  5
2
100
AcDbSymbolTable
 70
    10
  0
LAYER
  5
F
100
AcDbSymbolTableRecord
100
AcDbLayerTableRecord
  2
0
 70
     0
 62
     7
  6
CONTINUOUS
  0
LAYER
  5
4F
100
AcDbSymbolTableRecord
100
AcDbLayerTableRecord
  2
0
 70
     0
 62
 7 
  6
CONTINUOUS
  0
LAYER
  5
50
100
AcDbSymbolTableRecord
100
AcDbLayerTableRecord
  2
GRID
 70
     0
 62
 1 
  6
CONTINUOUS
  0
LAYER
  5
51
100
AcDbSymbolTableRecord
100
AcDbLayerTableRecord
  2
COLS
 70
     0
 62
 5 
  6
CONTINUOUS
  0
LAYER
  5
52
100
AcDbSymbolTableRecord
100
AcDbLayerTableRecord
  2
BEAM
 70
     0
 62
 5 
  6
CONTINUOUS
  0
LAYER
  5
53
100
AcDbSymbolTableRecord
100
AcDbLayerTableRecord
  2
BRAC
 70
     0
 62
 5 
  6
CONTINUOUS
  0
LAYER
  5
54
100
AcDbSymbolTableRecord
100
AcDbLayerTableRecord
  2
WALL
 70
     0
 62
 6 
  6
CONTINUOUS
  0
LAYER
  5
55
100
AcDbSymbolTableRecord
100
AcDbLayerTableRecord
  2
SLAB
 70
     0
 62
 6 
  6
CONTINUOUS
  0
LAYER
  5
56
100
AcDbSymbolTableRecord
100
AcDbLayerTableRecord
  2
TEXT
 70
     0
 62
 5 
  6
CONTINUOUS
  0
LAYER
  5
57
100
AcDbSymbolTableRecord
100
AcDbLayerTableRecord
  2
DIMENSIONS
 70
     0
 62
 4 
  6
CONTINUOUS
  0
LAYER
  5
58
100
AcDbSymbolTableRecord
100
AcDbLayerTableRecord
  2
CENTERLINES
 70
     0
 62
 7 
  6
CONTINUOUS
  0
LAYER
  5
59
100
AcDbSymbolTableRecord
100
AcDbLayerTableRecord
  2
SECTIONS
 70
     0
 62
 7 
  6
CONTINUOUS
  0
ENDTAB
  0
TABLE
  2
STYLE
  5
3
100
AcDbSymbolTable
 70
     1
  0
STYLE
  5
10
100
AcDbSymbolTableRecord
100
AcDbTextStyleTableRecord
  2
STANDARD
 70
     0
 40
0.0
 41
1.0
 50
0.0
 71
     0
 42
0.2
  3
txt
  4

  0
ENDTAB
  0
TABLE
  2
VIEW
  5
6
100
AcDbSymbolTable
 70
     0
  0
ENDTAB
  0
TABLE
  2
UCS
  5
7
100
AcDbSymbolTable
 70
     0
  0
ENDTAB
  0
TABLE
  2
APPID
  5
9
100
AcDbSymbolTable
 70
     1
  0
APPID
  5
11
100
AcDbSymbolTableRecord
100
AcDbRegAppTableRecord
  2
ACAD
 70
     0
  0
ENDTAB
  0
TABLE
  2
DIMSTYLE
  5
A
100
AcDbSymbolTable
 70
     1
  0
DIMSTYLE
105
1D
100
AcDbSymbolTableRecord
100
AcDbDimStyleTableRecord
  2
STANDARD
 70
     0
  3

  4

  5

  6

  7

 40
1.0
 41
0.18
 42
0.0625
 43
0.38
 44
0.18
 45
0.0
 46
0.0
 47
0.0
 48
0.0
140
0.18
141
0.09
142
0.0
143
25.4
144
1.0
145
0.0
146
1.0
147
0.09
 71
     0
 72
     0
 73
     1
 74
     1
 75
     0
 76
     0
 77
     0
 78
     0
170
     0
171
     2
172
     0
173
     0
174
     0
175
     0
176
     0
177
     0
178
     0
270
     2
271
     4
272
     4
273
     2
274
     2
340
10
275
     0
280
     0
281
     0
282
     0
283
     1
284
     0
285
     0
286
     0
287
     3
288
     0
  0
ENDTAB
  0
TABLE
  2
BLOCK_RECORD
  5
1
100
AcDbSymbolTable
 70
    11
  0
BLOCK_RECORD
  5
19
100
AcDbSymbolTableRecord
100
AcDbBlockTableRecord
  2
*MODEL_SPACE
  0
BLOCK_RECORD
  5
16
100
AcDbSymbolTableRecord
100
AcDbBlockTableRecord
  2
*PAPER_SPACE
  0
BLOCK_RECORD
  5
61
100
AcDbSymbolTableRecord
100
AcDbBlockTableRecord
  2
BOX
  0
BLOCK_RECORD
  5
66
100
AcDbSymbolTableRecord
100
AcDbBlockTableRecord
  2
SPHERE
  0
BLOCK_RECORD
  5
A2
100
AcDbSymbolTableRecord
100
AcDbBlockTableRecord
  2
UX
  0
BLOCK_RECORD
  5
B7
100
AcDbSymbolTableRecord
100
AcDbBlockTableRecord
  2
UY
  0
BLOCK_RECORD
  5
CC
100
AcDbSymbolTableRecord
100
AcDbBlockTableRecord
  2
UZ
  0
BLOCK_RECORD
  5
1B8
100
AcDbSymbolTableRecord
100
AcDbBlockTableRecord
  2
RX
  0
BLOCK_RECORD
  5
1FF
100
AcDbSymbolTableRecord
100
AcDbBlockTableRecord
  2
RY
  0
BLOCK_RECORD
  5
246
100
AcDbSymbolTableRecord
100
AcDbBlockTableRecord
  2
RZ
  0
BLOCK_RECORD
  5
2F9
100
AcDbSymbolTableRecord
100
AcDbBlockTableRecord
  2
XAXIS
  0
BLOCK_RECORD
  5
31F
100
AcDbSymbolTableRecord
100
AcDbBlockTableRecord
  2
YAXIS
  0
BLOCK_RECORD
  5
345
100
AcDbSymbolTableRecord
100
AcDbBlockTableRecord
  2
ZAXIS
  0
ENDTAB
  0
ENDSEC
  0
SECTION
  2
BLOCKS
  0
BLOCK
  5
1A
100
AcDbEntity
  8
0
100
AcDbBlockBegin
  2
*MODEL_SPACE
 70
     0
 10
0.0
 20
0.0
 30
0.0
  3
*MODEL_SPACE
  1

  0
ENDBLK
  5
1B
100
AcDbEntity
  8
0
100
AcDbBlockEnd
  0
BLOCK
  5
17
100
AcDbEntity
 67
     1
  8
0
100
AcDbBlockBegin
  2
*PAPER_SPACE
 70
     0
 10
0.0
 20
0.0
 30
0.0
  3
*PAPER_SPACE
  1

  0
ENDBLK
  5
18
100
AcDbEntity
 67
     1
  8
0
100
AcDbBlockEnd
  0
BLOCK
  5
62
100
AcDbEntity
  8
0
100
AcDbBlockBegin
  2
BOX
 70
     0
 10
0.0
 20
0.0
 30
0.0
  3
BOX
  1

  0
3DSOLID
  5
63
100
AcDbEntity
  8
0
100
AcDbModelerGeometry
 70
     1
  1
noi gj n o          
  1
=0;& {rn {n {rn {rn |
  1
3*2/ {rn {rn {m {o |
  1
,7:33 {rn {rn {rn {l {n |
  1
9><: {rn {k {j {m {rn {i 90-(>-; ,6183: |
  1
9><: {rn {h {g {m {rn {f -:):-,:; ,6183: |
  1
300/ {rn {rn {no {l |
  1
/3>1:r,*-9><: {rn o o oqj o o n n o o o V V V V |
  1
9><: {rn {nn {nm {m {rn {nl -:):-,:; ,6183: |
  1
300/ {rn {rn {nk {k |
  1
/3>1:r,*-9><: {rn o o roqj o o n n o o o V V V V |
  1
<0:;8: {rn {nj {ni {nh {ng o {j {rn |
  1
9><: {rn {nf {mo {m {rn {mn -:):-,:; ,6183: |
  1
300/ {rn {rn {mm {h |
  1
/3>1:r,*-9><: {rn o roqj o o n o o o n o V V V V |
  1
<0:;8: {rn {ml {mk {mj {mi o {g {rn |
  1
<0:;8: {rn {mh {no {mg {mf o {j {rn |
  1
<0:;8: {rn {no {mh {lo {ln o {j {rn |
  1
<0:;8: {rn {lm {ll {no {ng n {lk {rn |
  1
:;8: {rn {lj {li {nh {lh o |
  1
9><: {rn {lg {lf {m {rn {ko -:):-,:; ,6183: |
  1
300/ {rn {rn {kn {nn |
  1
/3>1:r,*-9><: {rn roqj o o n o o o o rn o V V V V |
  1
<0:;8: {rn {km {lo {kl {kk o {nm {rn |
  1
<0:;8: {rn {kj {nk {km {ki o {g {rn |
  1
<0:;8: {rn {nk {kj {kh {kg o {g {rn |
  1
<0:;8: {rn {ll {lm {nk {mi n {lk {rn |
  1
:;8: {rn {kf {jo {mj {jn o |
  1
<0:;8: {rn {ni {nj {jm {jl o {j {rn |
  1
<0:;8: {rn {jk {jj {nj {mf n {lf {rn |
  1
:;8: {rn {li {ji {mg {jh o |
  1
<0:;8: {rn {mm {jg {ni {ln n {nm {rn |
  1
:;8: {rn {jf {lj {lo {io o |
  1
<0:;8: {rn {mj {nh {jg {in o {lk {rn |
  1
<0:;8: {rn {nh {mj {jk {im n {lk {rn |
  1
300/ {rn {rn {lm {lg |
  1
):-+:' {rn {ng {il |
  1
):-+:' {rn {ng {ik |
  1
,+->687+r<*-): {rn oqj o oqj o n o V V |
  1
9><: {rn {rn {lk {m {rn {ij -:):-,:; ,6183: |
  1
300/ {rn {rn {jk {nf |
  1
/3>1:r,*-9><: {rn o oqj o o rn o o o rn o V V V V |
  1
<0:;8: {rn {ii {jm {jj {ih o {mo {rn |
  1
<0:;8: {rn {jg {mm {ml {ki n {nm {rn |
  1
<0:;8: {rn {jm {ii {mm {kk n {mo {rn |
  1
:;8: {rn {jf {ig {kl {if o |
  1
<0:;8: {rn {mk {ml {ii {ho o {g {rn |
  1
:;8: {rn {jo {ig {km {hn o |
  1
<0:;8: {rn {jj {jk {mk {kg n {lf {rn |
  1
:;8: {rn {hm {kf {kh {hl o |
  1
):-+:' {rn {mi {hk |
  1
):-+:' {rn {in {hj |
  1
,+->687+r<*-): {rn oqj o roqj o rn o V V |
  1
<0:;8: {rn {kn {kl {mh {jl n {mo {rn |
  1
:;8: {rn {ji {jf {jm {hi o |
  1
<0:;8: {rn {kh {mg {ll {im o {lf {rn |
  1
<0:;8: {rn {mg {kh {kn {ih n {lf {rn |
  1
):-+:' {rn {mf {hh |
  1
,+->687+r<*-): {rn o oqj oqj rn o o V V |
  1
<0:;8: {rn {lo {km {lm {in n {nm {rn |
  1
):-+:' {rn {jl {hg |
  1
,+->687+r<*-): {rn o roqj oqj n o o V V |
  1
:;8: {rn {lj {jo {lm {hf o |
  1
:;8: {rn {li {kf {ll {go o |
  1
/061+ {rn oqj roqj oqj |
  1
/061+ {rn oqj oqj oqj |
  1
/3>1:r,*-9><: {rn oqj o o rn o o o o n o V V V V |
  1
<0:;8: {rn {kl {kn {kj {ho n {mo {rn |
  1
:;8: {rn {ji {hm {jj {gn o |
  1
):-+:' {rn {ho {gm |
  1
,+->687+r<*-): {rn roqj roqj o o o rn V V |
  1
:;8: {rn {ig {hm {ii {gl o |
  1
,+->687+r<*-): {rn o roqj roqj rn o o V V |
  1
):-+:' {rn {kg {gk |
  1
,+->687+r<*-): {rn o oqj roqj n o o V V |
  1
/061+ {rn oqj oqj roqj |
  1
/061+ {rn oqj roqj roqj |
  1
,+->687+r<*-): {rn roqj o oqj o rn o V V |
  1
/061+ {rn roqj oqj oqj |
  1
/061+ {rn roqj roqj oqj |
  1
,+->687+r<*-): {rn oqj roqj o o o rn V V |
  1
,+->687+r<*-): {rn oqj oqj o o o rn V V |
  1
,+->687+r<*-): {rn roqj oqj o o o rn V V |
  1
/061+ {rn roqj roqj roqj |
  1
,+->687+r<*-): {rn roqj o roqj o n o V V |
  1
/061+ {rn roqj oqj roqj |
  0
ENDBLK
  5
64
100
AcDbEntity
  8
0
100
AcDbBlockEnd
  0
BLOCK
  5
67
100
AcDbEntity
  8
0
100
AcDbBlockBegin
  2
SPHERE
 70
     0
 10
0.0
 20
0.0
 30
0.0
  3
SPHERE
  1

  0
3DSOLID
  5
68
100
AcDbEntity
  8
0
100
AcDbModelerGeometry
 70
     1
  1
noi j n o           
  1
=0;& {rn {n {rn {rn |
  1
3*2/ {rn {rn {m {o |
  1
,7:33 {rn {rn {rn {l {n |
  1
9><: {rn {rn {rn {m {rn {k 90-(>-; ,6183: |
  1
,/7:-:r,*-9><: {rn o o o oqj n o o o o n o V V V V |
  0
ENDBLK
  5
69
100
AcDbEntity
  8
0
100
AcDbBlockEnd
  0
BLOCK
  5
A3
100
AcDbEntity
  8
0
100
AcDbBlockBegin
  2
UX
 70
     0
 10
0.0
 20
0.0
 30
0.0
  3
UX
  1

  0
POLYLINE
  5
A4
100
AcDbEntity
  8
0
100
AcDbPolygonMesh
 66
     1
 10
0.0
 20
0.0
 30
0.0
 70
    16
 71
     4
 72
     4
  0
VERTEX
  5
A5
100
AcDbEntity
  8
0
100
AcDbVertex
100
AcDbPolygonMeshVertex
 10
0.0
 20
0.0
 30
0.0
 70
    64
  0
VERTEX
  5
A6
100
AcDbEntity
  8
0
100
AcDbVertex
100
AcDbPolygonMeshVertex
 10
0.0
 20
0.0
 30
0.0
 70
    64
  0
VERTEX
  5
A7
100
AcDbEntity
  8
0
100
AcDbVertex
100
AcDbPolygonMeshVertex
 10
0.0
 20
0.0
 30
0.0
 70
    64
  0
VERTEX
  5
A8
100
AcDbEntity
  8
0
100
AcDbVertex
100
AcDbPolygonMeshVertex
 10
0.0
 20
0.0
 30
0.0
 70
    64
  0
VERTEX
  5
A9
100
AcDbEntity
  8
0
100
AcDbVertex
100
AcDbPolygonMeshVertex
 10
0.0
 20
0.0
 30
0.0
 70
    64
  0
VERTEX
  5
AA
100
AcDbEntity
  8
0
100
AcDbVertex
100
AcDbPolygonMeshVertex
 10
-1.0
 20
0.5
 30
0.5
 70
    64
  0
VERTEX
  5
AB
100
AcDbEntity
  8
0
100
AcDbVertex
100
AcDbPolygonMeshVertex
 10
-1.0
 20
0.5
 30
-0.5
 70
    64
  0
VERTEX
  5
AC
100
AcDbEntity
  8
0
100
AcDbVertex
100
AcDbPolygonMeshVertex
 10
0.0
 20
0.0
 30
0.0
 70
    64
  0
VERTEX
  5
AD
100
AcDbEntity
  8
0
100
AcDbVertex
100
AcDbPolygonMeshVertex
 10
0.0
 20
0.0
 30
0.0
 70
    64
  0
VERTEX
  5
AE
100
AcDbEntity
  8
0
100
AcDbVertex
100
AcDbPolygonMeshVertex
 10
-1.0
 20
-0.5
 30
0.5
 70
    64
  0
VERTEX
  5
AF
100
AcDbEntity
  8
0
100
AcDbVertex
100
AcDbPolygonMeshVertex
 10
-1.0
 20
-0.5
 30
-0.5
 70
    64
  0
VERTEX
  5
B0
100
AcDbEntity
  8
0
100
AcDbVertex
100
AcDbPolygonMeshVertex
 10
0.0
 20
0.0
 30
0.0
 70
    64
  0
VERTEX
  5
B1
100
AcDbEntity
  8
0
100
AcDbVertex
100
AcDbPolygonMeshVertex
 10
0.0
 20
0.0
 30
0.0
 70
    64
  0
VERTEX
  5
B2
100
AcDbEntity
  8
0
100
AcDbVertex
100
AcDbPolygonMeshVertex
 10
0.0
 20
0.0
 30
0.0
 70
    64
  0
VERTEX
  5
B3
100
AcDbEntity
  8
0
100
AcDbVertex
100
AcDbPolygonMeshVertex
 10
0.0
 20
0.0
 30
0.0
 70
    64
  0
VERTEX
  5
B4
100
AcDbEntity
  8
0
100
AcDbVertex
100
AcDbPolygonMeshVertex
 10
0.0
 20
0.0
 30
0.0
 70
    64
  0
SEQEND
  5
B5
100
AcDbEntity
  8
0
  0
ENDBLK
  5
B6
100
AcDbEntity
  8
0
100
AcDbBlockEnd
  0
BLOCK
  5
B8
100
AcDbEntity
  8
0
100
AcDbBlockBegin
  2
UY
 70
     0
 10
0.0
 20
0.0
 30
0.0
  3
UY
  1

  0
POLYLINE
  5
B9
100
AcDbEntity
  8
0
100
AcDbPolygonMesh
 66
     1
 10
0.0
 20
0.0
 30
0.0
 70
    16
 71
     4
 72
     4
  0
VERTEX
  5
BA
100
AcDbEntity
  8
0
100
AcDbVertex
100
AcDbPolygonMeshVertex
 10
0.0
 20
0.0
 30
0.0
 70
    64
  0
VERTEX
  5
BB
100
AcDbEntity
  8
0
100
AcDbVertex
100
AcDbPolygonMeshVertex
 10
0.0
 20
0.0
 30
0.0
 70
    64
  0
VERTEX
  5
BC
100
AcDbEntity
  8
0
100
AcDbVertex
100
AcDbPolygonMeshVertex
 10
0.0
 20
0.0
 30
0.0
 70
    64
  0
VERTEX
  5
BD
100
AcDbEntity
  8
0
100
AcDbVertex
100
AcDbPolygonMeshVertex
 10
0.0
 20
0.0
 30
0.0
 70
    64
  0
VERTEX
  5
BE
100
AcDbEntity
  8
0
100
AcDbVertex
100
AcDbPolygonMeshVertex
 10
0.0
 20
0.0
 30
0.0
 70
    64
  0
VERTEX
  5
BF
100
AcDbEntity
  8
0
100
AcDbVertex
100
AcDbPolygonMeshVertex
 10
-0.5
 20
-1.0
 30
0.5
 70
    64
  0
VERTEX
  5
C0
100
AcDbEntity
  8
0
100
AcDbVertex
100
AcDbPolygonMeshVertex
 10
-0.5
 20
-1.0
 30
-0.5
 70
    64
  0
VERTEX
  5
C1
100
AcDbEntity
  8
0
100
AcDbVertex
100
AcDbPolygonMeshVertex
 10
0.0
 20
0.0
 30
0.0
 70
    64
  0
VERTEX
  5
C2
100
AcDbEntity
  8
0
100
AcDbVertex
100
AcDbPolygonMeshVertex
 10
0.0
 20
0.0
 30
0.0
 70
    64
  0
VERTEX
  5
C3
100
AcDbEntity
  8
0
100
AcDbVertex
100
AcDbPolygonMeshVertex
 10
0.5
 20
-1.0
 30
0.5
 70
    64
  0
VERTEX
  5
C4
100
AcDbEntity
  8
0
100
AcDbVertex
100
AcDbPolygonMeshVertex
 10
0.5
 20
-1.0
 30
-0.5
 70
    64
  0
VERTEX
  5
C5
100
AcDbEntity
  8
0
100
AcDbVertex
100
AcDbPolygonMeshVertex
 10
0.0
 20
0.0
 30
0.0
 70
    64
  0
VERTEX
  5
C6
100
AcDbEntity
  8
0
100
AcDbVertex
100
AcDbPolygonMeshVertex
 10
0.0
 20
0.0
 30
0.0
 70
    64
  0
VERTEX
  5
C7
100
AcDbEntity
  8
0
100
AcDbVertex
100
AcDbPolygonMeshVertex
 10
0.0
 20
0.0
 30
0.0
 70
    64
  0
VERTEX
  5
C8
100
AcDbEntity
  8
0
100
AcDbVertex
100
AcDbPolygonMeshVertex
 10
0.0
 20
0.0
 30
0.0
 70
    64
  0
VERTEX
  5
C9
100
AcDbEntity
  8
0
100
AcDbVertex
100
AcDbPolygonMeshVertex
 10
0.0
 20
0.0
 30
0.0
 70
    64
  0
SEQEND
  5
CA
100
AcDbEntity
  8
0
  0
ENDBLK
  5
CB
100
AcDbEntity
  8
0
100
AcDbBlockEnd
  0
BLOCK
  5
CD
100
AcDbEntity
  8
0
100
AcDbBlockBegin
  2
UZ
 70
     0
 10
0.0
 20
0.0
 30
0.0
  3
UZ
  1

  0
POLYLINE
  5
CE
100
AcDbEntity
  8
0
100
AcDbPolygonMesh
 66
     1
 10
0.0
 20
0.0
 30
0.0
 70
    16
 71
     4
 72
     4
  0
VERTEX
  5
CF
100
AcDbEntity
  8
0
100
AcDbVertex
100
AcDbPolygonMeshVertex
 10
0.0
 20
0.0
 30
0.0
 70
    64
  0
VERTEX
  5
D0
100
AcDbEntity
  8
0
100
AcDbVertex
100
AcDbPolygonMeshVertex
 10
0.0
 20
0.0
 30
0.0
 70
    64
  0
VERTEX
  5
D1
100
AcDbEntity
  8
0
100
AcDbVertex
100
AcDbPolygonMeshVertex
 10
0.0
 20
0.0
 30
0.0
 70
    64
  0
VERTEX
  5
D2
100
AcDbEntity
  8
0
100
AcDbVertex
100
AcDbPolygonMeshVertex
 10
0.0
 20
0.0
 30
0.0
 70
    64
  0
VERTEX
  5
D3
100
AcDbEntity
  8
0
100
AcDbVertex
100
AcDbPolygonMeshVertex
 10
0.0
 20
0.0
 30
0.0
 70
    64
  0
VERTEX
  5
D4
100
AcDbEntity
  8
0
100
AcDbVertex
100
AcDbPolygonMeshVertex
 10
-0.5
 20
0.5
 30
-1.0
 70
    64
  0
VERTEX
  5
D5
100
AcDbEntity
  8
0
100
AcDbVertex
100
AcDbPolygonMeshVertex
 10
0.5
 20
0.5
 30
-1.0
 70
    64
  0
VERTEX
  5
D6
100
AcDbEntity
  8
0
100
AcDbVertex
100
AcDbPolygonMeshVertex
 10
0.0
 20
0.0
 30
0.0
 70
    64
  0
VERTEX
  5
D7
100
AcDbEntity
  8
0
100
AcDbVertex
100
AcDbPolygonMeshVertex
 10
0.0
 20
0.0
 30
0.0
 70
    64
  0
VERTEX
  5
D8
100
AcDbEntity
  8
0
100
AcDbVertex
100
AcDbPolygonMeshVertex
 10
-0.5
 20
-0.5
 30
-1.0
 70
    64
  0
VERTEX
  5
D9
100
AcDbEntity
  8
0
100
AcDbVertex
100
AcDbPolygonMeshVertex
 10
0.5
 20
-0.5
 30
-1.0
 70
    64
  0
VERTEX
  5
DA
100
AcDbEntity
  8
0
100
AcDbVertex
100
AcDbPolygonMeshVertex
 10
0.0
 20
0.0
 30
0.0
 70
    64
  0
VERTEX
  5
DB
100
AcDbEntity
  8
0
100
AcDbVertex
100
AcDbPolygonMeshVertex
 10
0.0
 20
0.0
 30
0.0
 70
    64
  0
VERTEX
  5
DC
100
AcDbEntity
  8
0
100
AcDbVertex
100
AcDbPolygonMeshVertex
 10
0.0
 20
0.0
 30
0.0
 70
    64
  0
VERTEX
  5
DD
100
AcDbEntity
  8
0
100
AcDbVertex
100
AcDbPolygonMeshVertex
 10
0.0
 20
0.0
 30
0.0
 70
    64
  0
VERTEX
  5
DE
100
AcDbEntity
  8
0
100
AcDbVertex
100
AcDbPolygonMeshVertex
 10
0.0
 20
0.0
 30
0.0
 70
    64
  0
SEQEND
  5
DF
100
AcDbEntity
  8
0
  0
ENDBLK
  5
E0
100
AcDbEntity
  8
0
100
AcDbBlockEnd
  0
BLOCK
  5
1B9
100
AcDbEntity
  8
0
100
AcDbBlockBegin
  2
RX
 70
     0
 10
0.0
 20
0.0
 30
0.0
  3
RX
  1

  0
POLYLINE
  5
1BA
100
AcDbEntity
  8
0
100
AcDbPolygonMesh
 66
     1
 10
0.0
 20
0.0
 30
0.0
 70
    48
 71
     2
 72
    16
  0
VERTEX
  5
1BB
100
AcDbEntity
  8
0
100
AcDbVertex
100
AcDbPolygonMeshVertex
 10
-1.0
 20
0.0
 30
-0.5
 70
    64
  0
VERTEX
  5
1BC
100
AcDbEntity
  8
0
100
AcDbVertex
100
AcDbPolygonMeshVertex
 10
-1.0
 20
0.191342
 30
-0.46194
 70
    64
  0
VERTEX
  5
1BD
100
AcDbEntity
  8
0
100
AcDbVertex
100
AcDbPolygonMeshVertex
 10
-1.0
 20
0.353553
 30
-0.353553
 70
    64
  0
VERTEX
  5
1BE
100
AcDbEntity
  8
0
100
AcDbVertex
100
AcDbPolygonMeshVertex
 10
-1.0
 20
0.46194
 30
-0.191342
 70
    64
  0
VERTEX
  5
1BF
100
AcDbEntity
  8
0
100
AcDbVertex
100
AcDbPolygonMeshVertex
 10
-1.0
 20
0.5
 30
0.0
 70
    64
  0
VERTEX
  5
1C0
100
AcDbEntity
  8
0
100
AcDbVertex
100
AcDbPolygonMeshVertex
 10
-1.0
 20
0.46194
 30
0.191342
 70
    64
  0
VERTEX
  5
1C1
100
AcDbEntity
  8
0
100
AcDbVertex
100
AcDbPolygonMeshVertex
 10
-1.0
 20
0.353553
 30
0.353553
 70
    64
  0
VERTEX
  5
1C2
100
AcDbEntity
  8
0
100
AcDbVertex
100
AcDbPolygonMeshVertex
 10
-1.0
 20
0.191342
 30
0.46194
 70
    64
  0
VERTEX
  5
1C3
100
AcDbEntity
  8
0
100
AcDbVertex
100
AcDbPolygonMeshVertex
 10
-1.0
 20
0.0
 30
0.5
 70
    64
  0
VERTEX
  5
1C4
100
AcDbEntity
  8
0
100
AcDbVertex
100
AcDbPolygonMeshVertex
 10
-1.0
 20
-0.191342
 30
0.46194
 70
    64
  0
VERTEX
  5
1C5
100
AcDbEntity
  8
0
100
AcDbVertex
100
AcDbPolygonMeshVertex
 10
-1.0
 20
-0.353553
 30
0.353553
 70
    64
  0
VERTEX
  5
1C6
100
AcDbEntity
  8
0
100
AcDbVertex
100
AcDbPolygonMeshVertex
 10
-1.0
 20
-0.46194
 30
0.191342
 70
    64
  0
VERTEX
  5
1C7
100
AcDbEntity
  8
0
100
AcDbVertex
100
AcDbPolygonMeshVertex
 10
-1.0
 20
-0.5
 30
0.0
 70
    64
  0
VERTEX
  5
1C8
100
AcDbEntity
  8
0
100
AcDbVertex
100
AcDbPolygonMeshVertex
 10
-1.0
 20
-0.46194
 30
-0.191342
 70
    64
  0
VERTEX
  5
1C9
100
AcDbEntity
  8
0
100
AcDbVertex
100
AcDbPolygonMeshVertex
 10
-1.0
 20
-0.353553
 30
-0.353553
 70
    64
  0
VERTEX
  5
1CA
100
AcDbEntity
  8
0
100
AcDbVertex
100
AcDbPolygonMeshVertex
 10
-1.0
 20
-0.191342
 30
-0.46194
 70
    64
  0
VERTEX
  5
1CB
100
AcDbEntity
  8
0
100
AcDbVertex
100
AcDbPolygonMeshVertex
 10
0.0
 20
0.0
 30
0.0
 70
    64
  0
VERTEX
  5
1CC
100
AcDbEntity
  8
0
100
AcDbVertex
100
AcDbPolygonMeshVertex
 10
0.0
 20
0.0
 30
0.0
 70
    64
  0
VERTEX
  5
1CD
100
AcDbEntity
  8
0
100
AcDbVertex
100
AcDbPolygonMeshVertex
 10
0.0
 20
0.0
 30
0.0
 70
    64
  0
VERTEX
  5
1CE
100
AcDbEntity
  8
0
100
AcDbVertex
100
AcDbPolygonMeshVertex
 10
0.0
 20
0.0
 30
0.0
 70
    64
  0
VERTEX
  5
1CF
100
AcDbEntity
  8
0
100
AcDbVertex
100
AcDbPolygonMeshVertex
 10
0.0
 20
0.0
 30
0.0
 70
    64
  0
VERTEX
  5
1D0
100
AcDbEntity
  8
0
100
AcDbVertex
100
AcDbPolygonMeshVertex
 10
0.0
 20
0.0
 30
0.0
 70
    64
  0
VERTEX
  5
1D1
100
AcDbEntity
  8
0
100
AcDbVertex
100
AcDbPolygonMeshVertex
 10
0.0
 20
0.0
 30
0.0
 70
    64
  0
VERTEX
  5
1D2
100
AcDbEntity
  8
0
100
AcDbVertex
100
AcDbPolygonMeshVertex
 10
0.0
 20
0.0
 30
0.0
 70
    64
  0
VERTEX
  5
1D3
100
AcDbEntity
  8
0
100
AcDbVertex
100
AcDbPolygonMeshVertex
 10
0.0
 20
0.0
 30
0.0
 70
    64
  0
VERTEX
  5
1D4
100
AcDbEntity
  8
0
100
AcDbVertex
100
AcDbPolygonMeshVertex
 10
0.0
 20
0.0
 30
0.0
 70
    64
  0
VERTEX
  5
1D5
100
AcDbEntity
  8
0
100
AcDbVertex
100
AcDbPolygonMeshVertex
 10
0.0
 20
0.0
 30
0.0
 70
    64
  0
VERTEX
  5
1D6
100
AcDbEntity
  8
0
100
AcDbVertex
100
AcDbPolygonMeshVertex
 10
0.0
 20
0.0
 30
0.0
 70
    64
  0
VERTEX
  5
1D7
100
AcDbEntity
  8
0
100
AcDbVertex
100
AcDbPolygonMeshVertex
 10
0.0
 20
0.0
 30
0.0
 70
    64
  0
VERTEX
  5
1D8
100
AcDbEntity
  8
0
100
AcDbVertex
100
AcDbPolygonMeshVertex
 10
0.0
 20
0.0
 30
0.0
 70
    64
  0
VERTEX
  5
1D9
100
AcDbEntity
  8
0
100
AcDbVertex
100
AcDbPolygonMeshVertex
 10
0.0
 20
0.0
 30
0.0
 70
    64
  0
VERTEX
  5
1DA
100
AcDbEntity
  8
0
100
AcDbVertex
100
AcDbPolygonMeshVertex
 10
0.0
 20
0.0
 30
0.0
 70
    64
  0
SEQEND
  5
1DB
100
AcDbEntity
  8
0
  0
POLYLINE
  5
1DC
100
AcDbEntity
  8
0
100
AcDbPolygonMesh
 66
     1
 10
0.0
 20
0.0
 30
0.0
 70
    48
 71
     2
 72
    16
  0
VERTEX
  5
1DD
100
AcDbEntity
  8
0
100
AcDbVertex
100
AcDbPolygonMeshVertex
 10
-2.0
 20
0.0
 30
-0.5
 70
    64
  0
VERTEX
  5
1DE
100
AcDbEntity
  8
0
100
AcDbVertex
100
AcDbPolygonMeshVertex
 10
-2.0
 20
0.191342
 30
-0.46194
 70
    64
  0
VERTEX
  5
1DF
100
AcDbEntity
  8
0
100
AcDbVertex
100
AcDbPolygonMeshVertex
 10
-2.0
 20
0.353553
 30
-0.353553
 70
    64
  0
VERTEX
  5
1E0
100
AcDbEntity
  8
0
100
AcDbVertex
100
AcDbPolygonMeshVertex
 10
-2.0
 20
0.46194
 30
-0.191342
 70
    64
  0
VERTEX
  5
1E1
100
AcDbEntity
  8
0
100
AcDbVertex
100
AcDbPolygonMeshVertex
 10
-2.0
 20
0.5
 30
0.0
 70
    64
  0
VERTEX
  5
1E2
100
AcDbEntity
  8
0
100
AcDbVertex
100
AcDbPolygonMeshVertex
 10
-2.0
 20
0.46194
 30
0.191342
 70
    64
  0
VERTEX
  5
1E3
100
AcDbEntity
  8
0
100
AcDbVertex
100
AcDbPolygonMeshVertex
 10
-2.0
 20
0.353553
 30
0.353553
 70
    64
  0
VERTEX
  5
1E4
100
AcDbEntity
  8
0
100
AcDbVertex
100
AcDbPolygonMeshVertex
 10
-2.0
 20
0.191342
 30
0.46194
 70
    64
  0
VERTEX
  5
1E5
100
AcDbEntity
  8
0
100
AcDbVertex
100
AcDbPolygonMeshVertex
 10
-2.0
 20
0.0
 30
0.5
 70
    64
  0
VERTEX
  5
1E6
100
AcDbEntity
  8
0
100
AcDbVertex
100
AcDbPolygonMeshVertex
 10
-2.0
 20
-0.191342
 30
0.46194
 70
    64
  0
VERTEX
  5
1E7
100
AcDbEntity
  8
0
100
AcDbVertex
100
AcDbPolygonMeshVertex
 10
-2.0
 20
-0.353553
 30
0.353553
 70
    64
  0
VERTEX
  5
1E8
100
AcDbEntity
  8
0
100
AcDbVertex
100
AcDbPolygonMeshVertex
 10
-2.0
 20
-0.46194
 30
0.191342
 70
    64
  0
VERTEX
  5
1E9
100
AcDbEntity
  8
0
100
AcDbVertex
100
AcDbPolygonMeshVertex
 10
-2.0
 20
-0.5
 30
0.0
 70
    64
  0
VERTEX
  5
1EA
100
AcDbEntity
  8
0
100
AcDbVertex
100
AcDbPolygonMeshVertex
 10
-2.0
 20
-0.46194
 30
-0.191342
 70
    64
  0
VERTEX
  5
1EB
100
AcDbEntity
  8
0
100
AcDbVertex
100
AcDbPolygonMeshVertex
 10
-2.0
 20
-0.353553
 30
-0.353553
 70
    64
  0
VERTEX
  5
1EC
100
AcDbEntity
  8
0
100
AcDbVertex
100
AcDbPolygonMeshVertex
 10
-2.0
 20
-0.191342
 30
-0.46194
 70
    64
  0
VERTEX
  5
1ED
100
AcDbEntity
  8
0
100
AcDbVertex
100
AcDbPolygonMeshVertex
 10
-1.0
 20
0.0
 30
0.0
 70
    64
  0
VERTEX
  5
1EE
100
AcDbEntity
  8
0
100
AcDbVertex
100
AcDbPolygonMeshVertex
 10
-1.0
 20
0.0
 30
0.0
 70
    64
  0
VERTEX
  5
1EF
100
AcDbEntity
  8
0
100
AcDbVertex
100
AcDbPolygonMeshVertex
 10
-1.0
 20
0.0
 30
0.0
 70
    64
  0
VERTEX
  5
1F0
100
AcDbEntity
  8
0
100
AcDbVertex
100
AcDbPolygonMeshVertex
 10
-1.0
 20
0.0
 30
0.0
 70
    64
  0
VERTEX
  5
1F1
100
AcDbEntity
  8
0
100
AcDbVertex
100
AcDbPolygonMeshVertex
 10
-1.0
 20
0.0
 30
0.0
 70
    64
  0
VERTEX
  5
1F2
100
AcDbEntity
  8
0
100
AcDbVertex
100
AcDbPolygonMeshVertex
 10
-1.0
 20
0.0
 30
0.0
 70
    64
  0
VERTEX
  5
1F3
100
AcDbEntity
  8
0
100
AcDbVertex
100
AcDbPolygonMeshVertex
 10
-1.0
 20
0.0
 30
0.0
 70
    64
  0
VERTEX
  5
1F4
100
AcDbEntity
  8
0
100
AcDbVertex
100
AcDbPolygonMeshVertex
 10
-1.0
 20
0.0
 30
0.0
 70
    64
  0
VERTEX
  5
1F5
100
AcDbEntity
  8
0
100
AcDbVertex
100
AcDbPolygonMeshVertex
 10
-1.0
 20
0.0
 30
0.0
 70
    64
  0
VERTEX
  5
1F6
100
AcDbEntity
  8
0
100
AcDbVertex
100
AcDbPolygonMeshVertex
 10
-1.0
 20
0.0
 30
0.0
 70
    64
  0
VERTEX
  5
1F7
100
AcDbEntity
  8
0
100
AcDbVertex
100
AcDbPolygonMeshVertex
 10
-1.0
 20
0.0
 30
0.0
 70
    64
  0
VERTEX
  5
1F8
100
AcDbEntity
  8
0
100
AcDbVertex
100
AcDbPolygonMeshVertex
 10
-1.0
 20
0.0
 30
0.0
 70
    64
  0
VERTEX
  5
1F9
100
AcDbEntity
  8
0
100
AcDbVertex
100
AcDbPolygonMeshVertex
 10
-1.0
 20
0.0
 30
0.0
 70
    64
  0
VERTEX
  5
1FA
100
AcDbEntity
  8
0
100
AcDbVertex
100
AcDbPolygonMeshVertex
 10
-1.0
 20
0.0
 30
0.0
 70
    64
  0
VERTEX
  5
1FB
100
AcDbEntity
  8
0
100
AcDbVertex
100
AcDbPolygonMeshVertex
 10
-1.0
 20
0.0
 30
0.0
 70
    64
  0
VERTEX
  5
1FC
100
AcDbEntity
  8
0
100
AcDbVertex
100
AcDbPolygonMeshVertex
 10
-1.0
 20
0.0
 30
0.0
 70
    64
  0
SEQEND
  5
1FD
100
AcDbEntity
  8
0
  0
ENDBLK
  5
1FE
100
AcDbEntity
  8
0
100
AcDbBlockEnd
  0
BLOCK
  5
200
100
AcDbEntity
  8
0
100
AcDbBlockBegin
  2
RY
 70
     0
 10
0.0
 20
0.0
 30
0.0
  3
RY
  1

  0
POLYLINE
  5
201
100
AcDbEntity
  8
0
100
AcDbPolygonMesh
 66
     1
 10
0.0
 20
0.0
 30
0.0
 70
    48
 71
     2
 72
    16
  0
VERTEX
  5
202
100
AcDbEntity
  8
0
100
AcDbVertex
100
AcDbPolygonMeshVertex
 10
0.0
 20
-1.0
 30
-0.5
 70
    64
  0
VERTEX
  5
203
100
AcDbEntity
  8
0
100
AcDbVertex
100
AcDbPolygonMeshVertex
 10
-0.191342
 20
-1.0
 30
-0.46194
 70
    64
  0
VERTEX
  5
204
100
AcDbEntity
  8
0
100
AcDbVertex
100
AcDbPolygonMeshVertex
 10
-0.353553
 20
-1.0
 30
-0.353553
 70
    64
  0
VERTEX
  5
205
100
AcDbEntity
  8
0
100
AcDbVertex
100
AcDbPolygonMeshVertex
 10
-0.46194
 20
-1.0
 30
-0.191342
 70
    64
  0
VERTEX
  5
206
100
AcDbEntity
  8
0
100
AcDbVertex
100
AcDbPolygonMeshVertex
 10
-0.5
 20
-1.0
 30
0.0
 70
    64
  0
VERTEX
  5
207
100
AcDbEntity
  8
0
100
AcDbVertex
100
AcDbPolygonMeshVertex
 10
-0.46194
 20
-1.0
 30
0.191342
 70
    64
  0
VERTEX
  5
208
100
AcDbEntity
  8
0
100
AcDbVertex
100
AcDbPolygonMeshVertex
 10
-0.353553
 20
-1.0
 30
0.353553
 70
    64
  0
VERTEX
  5
209
100
AcDbEntity
  8
0
100
AcDbVertex
100
AcDbPolygonMeshVertex
 10
-0.191342
 20
-1.0
 30
0.46194
 70
    64
  0
VERTEX
  5
20A
100
AcDbEntity
  8
0
100
AcDbVertex
100
AcDbPolygonMeshVertex
 10
0.0
 20
-1.0
 30
0.5
 70
    64
  0
VERTEX
  5
20B
100
AcDbEntity
  8
0
100
AcDbVertex
100
AcDbPolygonMeshVertex
 10
0.191342
 20
-1.0
 30
0.46194
 70
    64
  0
VERTEX
  5
20C
100
AcDbEntity
  8
0
100
AcDbVertex
100
AcDbPolygonMeshVertex
 10
0.353553
 20
-1.0
 30
0.353553
 70
    64
  0
VERTEX
  5
20D
100
AcDbEntity
  8
0
100
AcDbVertex
100
AcDbPolygonMeshVertex
 10
0.46194
 20
-1.0
 30
0.191342
 70
    64
  0
VERTEX
  5
20E
100
AcDbEntity
  8
0
100
AcDbVertex
100
AcDbPolygonMeshVertex
 10
0.5
 20
-1.0
 30
0.0
 70
    64
  0
VERTEX
  5
20F
100
AcDbEntity
  8
0
100
AcDbVertex
100
AcDbPolygonMeshVertex
 10
0.46194
 20
-1.0
 30
-0.191342
 70
    64
  0
VERTEX
  5
210
100
AcDbEntity
  8
0
100
AcDbVertex
100
AcDbPolygonMeshVertex
 10
0.353553
 20
-1.0
 30
-0.353553
 70
    64
  0
VERTEX
  5
211
100
AcDbEntity
  8
0
100
AcDbVertex
100
AcDbPolygonMeshVertex
 10
0.191342
 20
-1.0
 30
-0.46194
 70
    64
  0
VERTEX
  5
212
100
AcDbEntity
  8
0
100
AcDbVertex
100
AcDbPolygonMeshVertex
 10
0.0
 20
0.0
 30
0.0
 70
    64
  0
VERTEX
  5
213
100
AcDbEntity
  8
0
100
AcDbVertex
100
AcDbPolygonMeshVertex
 10
0.0
 20
0.0
 30
0.0
 70
    64
  0
VERTEX
  5
214
100
AcDbEntity
  8
0
100
AcDbVertex
100
AcDbPolygonMeshVertex
 10
0.0
 20
0.0
 30
0.0
 70
    64
  0
VERTEX
  5
215
100
AcDbEntity
  8
0
100
AcDbVertex
100
AcDbPolygonMeshVertex
 10
0.0
 20
0.0
 30
0.0
 70
    64
  0
VERTEX
  5
216
100
AcDbEntity
  8
0
100
AcDbVertex
100
AcDbPolygonMeshVertex
 10
0.0
 20
0.0
 30
0.0
 70
    64
  0
VERTEX
  5
217
100
AcDbEntity
  8
0
100
AcDbVertex
100
AcDbPolygonMeshVertex
 10
0.0
 20
0.0
 30
0.0
 70
    64
  0
VERTEX
  5
218
100
AcDbEntity
  8
0
100
AcDbVertex
100
AcDbPolygonMeshVertex
 10
0.0
 20
0.0
 30
0.0
 70
    64
  0
VERTEX
  5
219
100
AcDbEntity
  8
0
100
AcDbVertex
100
AcDbPolygonMeshVertex
 10
0.0
 20
0.0
 30
0.0
 70
    64
  0
VERTEX
  5
21A
100
AcDbEntity
  8
0
100
AcDbVertex
100
AcDbPolygonMeshVertex
 10
0.0
 20
0.0
 30
0.0
 70
    64
  0
VERTEX
  5
21B
100
AcDbEntity
  8
0
100
AcDbVertex
100
AcDbPolygonMeshVertex
 10
0.0
 20
0.0
 30
0.0
 70
    64
  0
VERTEX
  5
21C
100
AcDbEntity
  8
0
100
AcDbVertex
100
AcDbPolygonMeshVertex
 10
0.0
 20
0.0
 30
0.0
 70
    64
  0
VERTEX
  5
21D
100
AcDbEntity
  8
0
100
AcDbVertex
100
AcDbPolygonMeshVertex
 10
0.0
 20
0.0
 30
0.0
 70
    64
  0
VERTEX
  5
21E
100
AcDbEntity
  8
0
100
AcDbVertex
100
AcDbPolygonMeshVertex
 10
0.0
 20
0.0
 30
0.0
 70
    64
  0
VERTEX
  5
21F
100
AcDbEntity
  8
0
100
AcDbVertex
100
AcDbPolygonMeshVertex
 10
0.0
 20
0.0
 30
0.0
 70
    64
  0
VERTEX
  5
220
100
AcDbEntity
  8
0
100
AcDbVertex
100
AcDbPolygonMeshVertex
 10
0.0
 20
0.0
 30
0.0
 70
    64
  0
VERTEX
  5
221
100
AcDbEntity
  8
0
100
AcDbVertex
100
AcDbPolygonMeshVertex
 10
0.0
 20
0.0
 30
0.0
 70
    64
  0
SEQEND
  5
222
100
AcDbEntity
  8
0
  0
POLYLINE
  5
223
100
AcDbEntity
  8
0
100
AcDbPolygonMesh
 66
     1
 10
0.0
 20
0.0
 30
0.0
 70
    48
 71
     2
 72
    16
  0
VERTEX
  5
224
100
AcDbEntity
  8
0
100
AcDbVertex
100
AcDbPolygonMeshVertex
 10
0.0
 20
-2.0
 30
-0.5
 70
    64
  0
VERTEX
  5
225
100
AcDbEntity
  8
0
100
AcDbVertex
100
AcDbPolygonMeshVertex
 10
-0.191342
 20
-2.0
 30
-0.46194
 70
    64
  0
VERTEX
  5
226
100
AcDbEntity
  8
0
100
AcDbVertex
100
AcDbPolygonMeshVertex
 10
-0.353553
 20
-2.0
 30
-0.353553
 70
    64
  0
VERTEX
  5
227
100
AcDbEntity
  8
0
100
AcDbVertex
100
AcDbPolygonMeshVertex
 10
-0.46194
 20
-2.0
 30
-0.191342
 70
    64
  0
VERTEX
  5
228
100
AcDbEntity
  8
0
100
AcDbVertex
100
AcDbPolygonMeshVertex
 10
-0.5
 20
-2.0
 30
0.0
 70
    64
  0
VERTEX
  5
229
100
AcDbEntity
  8
0
100
AcDbVertex
100
AcDbPolygonMeshVertex
 10
-0.46194
 20
-2.0
 30
0.191342
 70
    64
  0
VERTEX
  5
22A
100
AcDbEntity
  8
0
100
AcDbVertex
100
AcDbPolygonMeshVertex
 10
-0.353553
 20
-2.0
 30
0.353553
 70
    64
  0
VERTEX
  5
22B
100
AcDbEntity
  8
0
100
AcDbVertex
100
AcDbPolygonMeshVertex
 10
-0.191342
 20
-2.0
 30
0.46194
 70
    64
  0
VERTEX
  5
22C
100
AcDbEntity
  8
0
100
AcDbVertex
100
AcDbPolygonMeshVertex
 10
0.0
 20
-2.0
 30
0.5
 70
    64
  0
VERTEX
  5
22D
100
AcDbEntity
  8
0
100
AcDbVertex
100
AcDbPolygonMeshVertex
 10
0.191342
 20
-2.0
 30
0.46194
 70
    64
  0
VERTEX
  5
22E
100
AcDbEntity
  8
0
100
AcDbVertex
100
AcDbPolygonMeshVertex
 10
0.353553
 20
-2.0
 30
0.353553
 70
    64
  0
VERTEX
  5
22F
100
AcDbEntity
  8
0
100
AcDbVertex
100
AcDbPolygonMeshVertex
 10
0.46194
 20
-2.0
 30
0.191342
 70
    64
  0
VERTEX
  5
230
100
AcDbEntity
  8
0
100
AcDbVertex
100
AcDbPolygonMeshVertex
 10
0.5
 20
-2.0
 30
0.0
 70
    64
  0
VERTEX
  5
231
100
AcDbEntity
  8
0
100
AcDbVertex
100
AcDbPolygonMeshVertex
 10
0.46194
 20
-2.0
 30
-0.191342
 70
    64
  0
VERTEX
  5
232
100
AcDbEntity
  8
0
100
AcDbVertex
100
AcDbPolygonMeshVertex
 10
0.353553
 20
-2.0
 30
-0.353553
 70
    64
  0
VERTEX
  5
233
100
AcDbEntity
  8
0
100
AcDbVertex
100
AcDbPolygonMeshVertex
 10
0.191342
 20
-2.0
 30
-0.46194
 70
    64
  0
VERTEX
  5
234
100
AcDbEntity
  8
0
100
AcDbVertex
100
AcDbPolygonMeshVertex
 10
0.0
 20
-1.0
 30
0.0
 70
    64
  0
VERTEX
  5
235
100
AcDbEntity
  8
0
100
AcDbVertex
100
AcDbPolygonMeshVertex
 10
0.0
 20
-1.0
 30
0.0
 70
    64
  0
VERTEX
  5
236
100
AcDbEntity
  8
0
100
AcDbVertex
100
AcDbPolygonMeshVertex
 10
0.0
 20
-1.0
 30
0.0
 70
    64
  0
VERTEX
  5
237
100
AcDbEntity
  8
0
100
AcDbVertex
100
AcDbPolygonMeshVertex
 10
0.0
 20
-1.0
 30
0.0
 70
    64
  0
VERTEX
  5
238
100
AcDbEntity
  8
0
100
AcDbVertex
100
AcDbPolygonMeshVertex
 10
0.0
 20
-1.0
 30
0.0
 70
    64
  0
VERTEX
  5
239
100
AcDbEntity
  8
0
100
AcDbVertex
100
AcDbPolygonMeshVertex
 10
0.0
 20
-1.0
 30
0.0
 70
    64
  0
VERTEX
  5
23A
100
AcDbEntity
  8
0
100
AcDbVertex
100
AcDbPolygonMeshVertex
 10
0.0
 20
-1.0
 30
0.0
 70
    64
  0
VERTEX
  5
23B
100
AcDbEntity
  8
0
100
AcDbVertex
100
AcDbPolygonMeshVertex
 10
0.0
 20
-1.0
 30
0.0
 70
    64
  0
VERTEX
  5
23C
100
AcDbEntity
  8
0
100
AcDbVertex
100
AcDbPolygonMeshVertex
 10
0.0
 20
-1.0
 30
0.0
 70
    64
  0
VERTEX
  5
23D
100
AcDbEntity
  8
0
100
AcDbVertex
100
AcDbPolygonMeshVertex
 10
0.0
 20
-1.0
 30
0.0
 70
    64
  0
VERTEX
  5
23E
100
AcDbEntity
  8
0
100
AcDbVertex
100
AcDbPolygonMeshVertex
 10
0.0
 20
-1.0
 30
0.0
 70
    64
  0
VERTEX
  5
23F
100
AcDbEntity
  8
0
100
AcDbVertex
100
AcDbPolygonMeshVertex
 10
0.0
 20
-1.0
 30
0.0
 70
    64
  0
VERTEX
  5
240
100
AcDbEntity
  8
0
100
AcDbVertex
100
AcDbPolygonMeshVertex
 10
0.0
 20
-1.0
 30
0.0
 70
    64
  0
VERTEX
  5
241
100
AcDbEntity
  8
0
100
AcDbVertex
100
AcDbPolygonMeshVertex
 10
0.0
 20
-1.0
 30
0.0
 70
    64
  0
VERTEX
  5
242
100
AcDbEntity
  8
0
100
AcDbVertex
100
AcDbPolygonMeshVertex
 10
0.0
 20
-1.0
 30
0.0
 70
    64
  0
VERTEX
  5
243
100
AcDbEntity
  8
0
100
AcDbVertex
100
AcDbPolygonMeshVertex
 10
0.0
 20
-1.0
 30
0.0
 70
    64
  0
SEQEND
  5
244
100
AcDbEntity
  8
0
  0
ENDBLK
  5
245
100
AcDbEntity
  8
0
100
AcDbBlockEnd
  0
BLOCK
  5
247
100
AcDbEntity
  8
0
100
AcDbBlockBegin
  2
RZ
 70
     0
 10
0.0
 20
0.0
 30
0.0
  3
RZ
  1

  0
POLYLINE
  5
248
100
AcDbEntity
  8
0
100
AcDbPolygonMesh
 66
     1
 10
0.0
 20
0.0
 30
0.0
 70
    48
 71
     2
 72
    16
  0
VERTEX
  5
249
100
AcDbEntity
  8
0
100
AcDbVertex
100
AcDbPolygonMeshVertex
 10
0.5
 20
0.0
 30
-1.0
 70
    64
  0
VERTEX
  5
24A
100
AcDbEntity
  8
0
100
AcDbVertex
100
AcDbPolygonMeshVertex
 10
0.46194
 20
0.191342
 30
-1.0
 70
    64
  0
VERTEX
  5
24B
100
AcDbEntity
  8
0
100
AcDbVertex
100
AcDbPolygonMeshVertex
 10
0.353553
 20
0.353553
 30
-1.0
 70
    64
  0
VERTEX
  5
24C
100
AcDbEntity
  8
0
100
AcDbVertex
100
AcDbPolygonMeshVertex
 10
0.191342
 20
0.46194
 30
-1.0
 70
    64
  0
VERTEX
  5
24D
100
AcDbEntity
  8
0
100
AcDbVertex
100
AcDbPolygonMeshVertex
 10
0.0
 20
0.5
 30
-1.0
 70
    64
  0
VERTEX
  5
24E
100
AcDbEntity
  8
0
100
AcDbVertex
100
AcDbPolygonMeshVertex
 10
-0.191342
 20
0.46194
 30
-1.0
 70
    64
  0
VERTEX
  5
24F
100
AcDbEntity
  8
0
100
AcDbVertex
100
AcDbPolygonMeshVertex
 10
-0.353553
 20
0.353553
 30
-1.0
 70
    64
  0
VERTEX
  5
250
100
AcDbEntity
  8
0
100
AcDbVertex
100
AcDbPolygonMeshVertex
 10
-0.46194
 20
0.191342
 30
-1.0
 70
    64
  0
VERTEX
  5
251
100
AcDbEntity
  8
0
100
AcDbVertex
100
AcDbPolygonMeshVertex
 10
-0.5
 20
0.0
 30
-1.0
 70
    64
  0
VERTEX
  5
252
100
AcDbEntity
  8
0
100
AcDbVertex
100
AcDbPolygonMeshVertex
 10
-0.46194
 20
-0.191342
 30
-1.0
 70
    64
  0
VERTEX
  5
253
100
AcDbEntity
  8
0
100
AcDbVertex
100
AcDbPolygonMeshVertex
 10
-0.353553
 20
-0.353553
 30
-1.0
 70
    64
  0
VERTEX
  5
254
100
AcDbEntity
  8
0
100
AcDbVertex
100
AcDbPolygonMeshVertex
 10
-0.191342
 20
-0.46194
 30
-1.0
 70
    64
  0
VERTEX
  5
255
100
AcDbEntity
  8
0
100
AcDbVertex
100
AcDbPolygonMeshVertex
 10
0.0
 20
-0.5
 30
-1.0
 70
    64
  0
VERTEX
  5
256
100
AcDbEntity
  8
0
100
AcDbVertex
100
AcDbPolygonMeshVertex
 10
0.191342
 20
-0.46194
 30
-1.0
 70
    64
  0
VERTEX
  5
257
100
AcDbEntity
  8
0
100
AcDbVertex
100
AcDbPolygonMeshVertex
 10
0.353553
 20
-0.353553
 30
-1.0
 70
    64
  0
VERTEX
  5
258
100
AcDbEntity
  8
0
100
AcDbVertex
100
AcDbPolygonMeshVertex
 10
0.46194
 20
-0.191342
 30
-1.0
 70
    64
  0
VERTEX
  5
259
100
AcDbEntity
  8
0
100
AcDbVertex
100
AcDbPolygonMeshVertex
 10
0.0
 20
0.0
 30
0.0
 70
    64
  0
VERTEX
  5
25A
100
AcDbEntity
  8
0
100
AcDbVertex
100
AcDbPolygonMeshVertex
 10
0.0
 20
0.0
 30
0.0
 70
    64
  0
VERTEX
  5
25B
100
AcDbEntity
  8
0
100
AcDbVertex
100
AcDbPolygonMeshVertex
 10
0.0
 20
0.0
 30
0.0
 70
    64
  0
VERTEX
  5
25C
100
AcDbEntity
  8
0
100
AcDbVertex
100
AcDbPolygonMeshVertex
 10
0.0
 20
0.0
 30
0.0
 70
    64
  0
VERTEX
  5
25D
100
AcDbEntity
  8
0
100
AcDbVertex
100
AcDbPolygonMeshVertex
 10
0.0
 20
0.0
 30
0.0
 70
    64
  0
VERTEX
  5
25E
100
AcDbEntity
  8
0
100
AcDbVertex
100
AcDbPolygonMeshVertex
 10
0.0
 20
0.0
 30
0.0
 70
    64
  0
VERTEX
  5
25F
100
AcDbEntity
  8
0
100
AcDbVertex
100
AcDbPolygonMeshVertex
 10
0.0
 20
0.0
 30
0.0
 70
    64
  0
VERTEX
  5
260
100
AcDbEntity
  8
0
100
AcDbVertex
100
AcDbPolygonMeshVertex
 10
0.0
 20
0.0
 30
0.0
 70
    64
  0
VERTEX
  5
261
100
AcDbEntity
  8
0
100
AcDbVertex
100
AcDbPolygonMeshVertex
 10
0.0
 20
0.0
 30
0.0
 70
    64
  0
VERTEX
  5
262
100
AcDbEntity
  8
0
100
AcDbVertex
100
AcDbPolygonMeshVertex
 10
0.0
 20
0.0
 30
0.0
 70
    64
  0
VERTEX
  5
263
100
AcDbEntity
  8
0
100
AcDbVertex
100
AcDbPolygonMeshVertex
 10
0.0
 20
0.0
 30
0.0
 70
    64
  0
VERTEX
  5
264
100
AcDbEntity
  8
0
100
AcDbVertex
100
AcDbPolygonMeshVertex
 10
0.0
 20
0.0
 30
0.0
 70
    64
  0
VERTEX
  5
265
100
AcDbEntity
  8
0
100
AcDbVertex
100
AcDbPolygonMeshVertex
 10
0.0
 20
0.0
 30
0.0
 70
    64
  0
VERTEX
  5
266
100
AcDbEntity
  8
0
100
AcDbVertex
100
AcDbPolygonMeshVertex
 10
0.0
 20
0.0
 30
0.0
 70
    64
  0
VERTEX
  5
267
100
AcDbEntity
  8
0
100
AcDbVertex
100
AcDbPolygonMeshVertex
 10
0.0
 20
0.0
 30
0.0
 70
    64
  0
VERTEX
  5
268
100
AcDbEntity
  8
0
100
AcDbVertex
100
AcDbPolygonMeshVertex
 10
0.0
 20
0.0
 30
0.0
 70
    64
  0
SEQEND
  5
269
100
AcDbEntity
  8
0
  0
POLYLINE
  5
26A
100
AcDbEntity
  8
0
100
AcDbPolygonMesh
 66
     1
 10
0.0
 20
0.0
 30
0.0
 70
    48
 71
     2
 72
    16
  0
VERTEX
  5
26B
100
AcDbEntity
  8
0
100
AcDbVertex
100
AcDbPolygonMeshVertex
 10
0.5
 20
0.0
 30
-2.0
 70
    64
  0
VERTEX
  5
26C
100
AcDbEntity
  8
0
100
AcDbVertex
100
AcDbPolygonMeshVertex
 10
0.46194
 20
0.191342
 30
-2.0
 70
    64
  0
VERTEX
  5
26D
100
AcDbEntity
  8
0
100
AcDbVertex
100
AcDbPolygonMeshVertex
 10
0.353553
 20
0.353553
 30
-2.0
 70
    64
  0
VERTEX
  5
26E
100
AcDbEntity
  8
0
100
AcDbVertex
100
AcDbPolygonMeshVertex
 10
0.191342
 20
0.46194
 30
-2.0
 70
    64
  0
VERTEX
  5
26F
100
AcDbEntity
  8
0
100
AcDbVertex
100
AcDbPolygonMeshVertex
 10
0.0
 20
0.5
 30
-2.0
 70
    64
  0
VERTEX
  5
270
100
AcDbEntity
  8
0
100
AcDbVertex
100
AcDbPolygonMeshVertex
 10
-0.191342
 20
0.46194
 30
-2.0
 70
    64
  0
VERTEX
  5
271
100
AcDbEntity
  8
0
100
AcDbVertex
100
AcDbPolygonMeshVertex
 10
-0.353553
 20
0.353553
 30
-2.0
 70
    64
  0
VERTEX
  5
272
100
AcDbEntity
  8
0
100
AcDbVertex
100
AcDbPolygonMeshVertex
 10
-0.46194
 20
0.191342
 30
-2.0
 70
    64
  0
VERTEX
  5
273
100
AcDbEntity
  8
0
100
AcDbVertex
100
AcDbPolygonMeshVertex
 10
-0.5
 20
0.0
 30
-2.0
 70
    64
  0
VERTEX
  5
274
100
AcDbEntity
  8
0
100
AcDbVertex
100
AcDbPolygonMeshVertex
 10
-0.46194
 20
-0.191342
 30
-2.0
 70
    64
  0
VERTEX
  5
275
100
AcDbEntity
  8
0
100
AcDbVertex
100
AcDbPolygonMeshVertex
 10
-0.353553
 20
-0.353553
 30
-2.0
 70
    64
  0
VERTEX
  5
276
100
AcDbEntity
  8
0
100
AcDbVertex
100
AcDbPolygonMeshVertex
 10
-0.191342
 20
-0.46194
 30
-2.0
 70
    64
  0
VERTEX
  5
277
100
AcDbEntity
  8
0
100
AcDbVertex
100
AcDbPolygonMeshVertex
 10
0.0
 20
-0.5
 30
-2.0
 70
    64
  0
VERTEX
  5
278
100
AcDbEntity
  8
0
100
AcDbVertex
100
AcDbPolygonMeshVertex
 10
0.191342
 20
-0.46194
 30
-2.0
 70
    64
  0
VERTEX
  5
279
100
AcDbEntity
  8
0
100
AcDbVertex
100
AcDbPolygonMeshVertex
 10
0.353553
 20
-0.353553
 30
-2.0
 70
    64
  0
VERTEX
  5
27A
100
AcDbEntity
  8
0
100
AcDbVertex
100
AcDbPolygonMeshVertex
 10
0.46194
 20
-0.191342
 30
-2.0
 70
    64
  0
VERTEX
  5
27B
100
AcDbEntity
  8
0
100
AcDbVertex
100
AcDbPolygonMeshVertex
 10
0.0
 20
0.0
 30
-1.0
 70
    64
  0
VERTEX
  5
27C
100
AcDbEntity
  8
0
100
AcDbVertex
100
AcDbPolygonMeshVertex
 10
0.0
 20
0.0
 30
-1.0
 70
    64
  0
VERTEX
  5
27D
100
AcDbEntity
  8
0
100
AcDbVertex
100
AcDbPolygonMeshVertex
 10
0.0
 20
0.0
 30
-1.0
 70
    64
  0
VERTEX
  5
27E
100
AcDbEntity
  8
0
100
AcDbVertex
100
AcDbPolygonMeshVertex
 10
0.0
 20
0.0
 30
-1.0
 70
    64
  0
VERTEX
  5
27F
100
AcDbEntity
  8
0
100
AcDbVertex
100
AcDbPolygonMeshVertex
 10
0.0
 20
0.0
 30
-1.0
 70
    64
  0
VERTEX
  5
280
100
AcDbEntity
  8
0
100
AcDbVertex
100
AcDbPolygonMeshVertex
 10
0.0
 20
0.0
 30
-1.0
 70
    64
  0
VERTEX
  5
281
100
AcDbEntity
  8
0
100
AcDbVertex
100
AcDbPolygonMeshVertex
 10
0.0
 20
0.0
 30
-1.0
 70
    64
  0
VERTEX
  5
282
100
AcDbEntity
  8
0
100
AcDbVertex
100
AcDbPolygonMeshVertex
 10
0.0
 20
0.0
 30
-1.0
 70
    64
  0
VERTEX
  5
283
100
AcDbEntity
  8
0
100
AcDbVertex
100
AcDbPolygonMeshVertex
 10
0.0
 20
0.0
 30
-1.0
 70
    64
  0
VERTEX
  5
284
100
AcDbEntity
  8
0
100
AcDbVertex
100
AcDbPolygonMeshVertex
 10
0.0
 20
0.0
 30
-1.0
 70
    64
  0
VERTEX
  5
285
100
AcDbEntity
  8
0
100
AcDbVertex
100
AcDbPolygonMeshVertex
 10
0.0
 20
0.0
 30
-1.0
 70
    64
  0
VERTEX
  5
286
100
AcDbEntity
  8
0
100
AcDbVertex
100
AcDbPolygonMeshVertex
 10
0.0
 20
0.0
 30
-1.0
 70
    64
  0
VERTEX
  5
287
100
AcDbEntity
  8
0
100
AcDbVertex
100
AcDbPolygonMeshVertex
 10
0.0
 20
0.0
 30
-1.0
 70
    64
  0
VERTEX
  5
288
100
AcDbEntity
  8
0
100
AcDbVertex
100
AcDbPolygonMeshVertex
 10
0.0
 20
0.0
 30
-1.0
 70
    64
  0
VERTEX
  5
289
100
AcDbEntity
  8
0
100
AcDbVertex
100
AcDbPolygonMeshVertex
 10
0.0
 20
0.0
 30
-1.0
 70
    64
  0
VERTEX
  5
28A
100
AcDbEntity
  8
0
100
AcDbVertex
100
AcDbPolygonMeshVertex
 10
0.0
 20
0.0
 30
-1.0
 70
    64
  0
SEQEND
  5
28B
100
AcDbEntity
  8
0
  0
ENDBLK
  5
28C
100
AcDbEntity
  8
0
100
AcDbBlockEnd
  0
BLOCK
  5
2FA
100
AcDbEntity
  8
0
100
AcDbBlockBegin
  2
XAXIS
 70
     0
 10
0.0
 20
0.0
 30
0.0
  3
XAXIS
  1

  0
3DSOLID
  5
2FB
100
AcDbEntity
  8
0
100
AcDbModelerGeometry
 70
     1
  1
noi mj n o          
  1
=0;& {rn {n {rn {rn |
  1
3*2/ {rn {rn {m {o |
  1
,7:33 {rn {rn {rn {l {n |
  1
9><: {rn {k {j {m {rn {i 90-(>-; ,6183: |
  1
9><: {rn {h {g {m {rn {f 90-(>-; ,6183: |
  1
300/ {rn {no {nn {l |
  1
<01:r,*-9><: {rn n o nqnnommlomkimjnjij:roni n o iqnmlolnhifnnnggil:ronh lqoinjnjggkjjjfklm:rong o roqojoooooooooooooool n V V o n o V V V V |
  1
9><: {rn {rn {nm {m {rn {nl 90-(>-; ,6183: |
  1
300/ {rn {rn {nk {k |
  1
/3>1:r,*-9><: {rn o o o rn o riqnmlolnhifnnnggil:ronh riqnmlolnhifnnnggil:ronh o n o V V V V |
  1
300/ {rn {rn {nj {l |
  1
<0:;8: {rn {nn {nn {nk {ni n {j {rn |
  1
300/ {rn {rn {nh {h |
  1
/3>1:r,*-9><: {rn m o nqnnommlomkimjnjij:roni n o iqnmlolnhifnnnggil:ronh iqnmlolnhifnnnggil:ronh o rn o V V V V |
  1
<0:;8: {rn {nk {nk {nn {ni o {g {rn |
  1
<0:;8: {rn {nj {nj {nh {ng n {no {rn |
  1
:;8: {rn {nf {nf {nk {mo o |
  1
<0:;8: {rn {nh {nh {nj {ng o {nm {rn |
  1
:;8: {rn {mn {mn {nh {mm o |
  1
):-+:' {rn {ni {ml |
  1
:336/,:r<*-): {rn o o o rn o riqnmlolnhifnnnggil:ronh lqoinjnjggkjjjfklm:rong o roqojoooooooooooooool n V V |
  1
):-+:' {rn {ng {mk |
  1
:336/,:r<*-): {rn m o nqnnommlomkimjnjij:roni n o iqnmlolnhifnnnggil:ronh lqoinjnjggkjjjfklm:rong o roqojoooooooooooooool n V V |
  1
/061+ {rn lqoinjnjggkjjjfkkk:rong o roqojooooooooooooookk |
  1
/061+ {rn m o roqokffffffffffffffll |
  0
POLYLINE
  5
2FC
100
AcDbEntity
  8
0
100
AcDbPolygonMesh
 66
     1
 10
0.0
 20
0.0
 30
0.0
 70
    48
 71
     2
 72
    16
  0
VERTEX
  5
2FD
100
AcDbEntity
  8
0
100
AcDbVertex
100
AcDbPolygonMeshVertex
 10
2.0
 20
0.0
 30
-0.2
 70
    64
  0
VERTEX
  5
2FE
100
AcDbEntity
  8
0
100
AcDbVertex
100
AcDbPolygonMeshVertex
 10
2.0
 20
0.076537
 30
-0.184776
 70
    64
  0
VERTEX
  5
2FF
100
AcDbEntity
  8
0
100
AcDbVertex
100
AcDbPolygonMeshVertex
 10
2.0
 20
0.141421
 30
-0.141421
 70
    64
  0
VERTEX
  5
300
100
AcDbEntity
  8
0
100
AcDbVertex
100
AcDbPolygonMeshVertex
 10
2.0
 20
0.184776
 30
-0.076537
 70
    64
  0
VERTEX
  5
301
100
AcDbEntity
  8
0
100
AcDbVertex
100
AcDbPolygonMeshVertex
 10
2.0
 20
0.2
 30
0.0
 70
    64
  0
VERTEX
  5
302
100
AcDbEntity
  8
0
100
AcDbVertex
100
AcDbPolygonMeshVertex
 10
2.0
 20
0.184776
 30
0.076537
 70
    64
  0
VERTEX
  5
303
100
AcDbEntity
  8
0
100
AcDbVertex
100
AcDbPolygonMeshVertex
 10
2.0
 20
0.141421
 30
0.141421
 70
    64
  0
VERTEX
  5
304
100
AcDbEntity
  8
0
100
AcDbVertex
100
AcDbPolygonMeshVertex
 10
2.0
 20
0.076537
 30
0.184776
 70
    64
  0
VERTEX
  5
305
100
AcDbEntity
  8
0
100
AcDbVertex
100
AcDbPolygonMeshVertex
 10
2.0
 20
0.0
 30
0.2
 70
    64
  0
VERTEX
  5
306
100
AcDbEntity
  8
0
100
AcDbVertex
100
AcDbPolygonMeshVertex
 10
2.0
 20
-0.076537
 30
0.184776
 70
    64
  0
VERTEX
  5
307
100
AcDbEntity
  8
0
100
AcDbVertex
100
AcDbPolygonMeshVertex
 10
2.0
 20
-0.141421
 30
0.141421
 70
    64
  0
VERTEX
  5
308
100
AcDbEntity
  8
0
100
AcDbVertex
100
AcDbPolygonMeshVertex
 10
2.0
 20
-0.184776
 30
0.076537
 70
    64
  0
VERTEX
  5
309
100
AcDbEntity
  8
0
100
AcDbVertex
100
AcDbPolygonMeshVertex
 10
2.0
 20
-0.2
 30
0.0
 70
    64
  0
VERTEX
  5
30A
100
AcDbEntity
  8
0
100
AcDbVertex
100
AcDbPolygonMeshVertex
 10
2.0
 20
-0.184776
 30
-0.076537
 70
    64
  0
VERTEX
  5
30B
100
AcDbEntity
  8
0
100
AcDbVertex
100
AcDbPolygonMeshVertex
 10
2.0
 20
-0.141421
 30
-0.141421
 70
    64
  0
VERTEX
  5
30C
100
AcDbEntity
  8
0
100
AcDbVertex
100
AcDbPolygonMeshVertex
 10
2.0
 20
-0.076537
 30
-0.184776
 70
    64
  0
VERTEX
  5
30D
100
AcDbEntity
  8
0
100
AcDbVertex
100
AcDbPolygonMeshVertex
 10
3.0
 20
0.0
 30
0.0
 70
    64
  0
VERTEX
  5
30E
100
AcDbEntity
  8
0
100
AcDbVertex
100
AcDbPolygonMeshVertex
 10
3.0
 20
0.0
 30
0.0
 70
    64
  0
VERTEX
  5
30F
100
AcDbEntity
  8
0
100
AcDbVertex
100
AcDbPolygonMeshVertex
 10
3.0
 20
0.0
 30
0.0
 70
    64
  0
VERTEX
  5
310
100
AcDbEntity
  8
0
100
AcDbVertex
100
AcDbPolygonMeshVertex
 10
3.0
 20
0.0
 30
0.0
 70
    64
  0
VERTEX
  5
311
100
AcDbEntity
  8
0
100
AcDbVertex
100
AcDbPolygonMeshVertex
 10
3.0
 20
0.0
 30
0.0
 70
    64
  0
VERTEX
  5
312
100
AcDbEntity
  8
0
100
AcDbVertex
100
AcDbPolygonMeshVertex
 10
3.0
 20
0.0
 30
0.0
 70
    64
  0
VERTEX
  5
313
100
AcDbEntity
  8
0
100
AcDbVertex
100
AcDbPolygonMeshVertex
 10
3.0
 20
0.0
 30
0.0
 70
    64
  0
VERTEX
  5
314
100
AcDbEntity
  8
0
100
AcDbVertex
100
AcDbPolygonMeshVertex
 10
3.0
 20
0.0
 30
0.0
 70
    64
  0
VERTEX
  5
315
100
AcDbEntity
  8
0
100
AcDbVertex
100
AcDbPolygonMeshVertex
 10
3.0
 20
0.0
 30
0.0
 70
    64
  0
VERTEX
  5
316
100
AcDbEntity
  8
0
100
AcDbVertex
100
AcDbPolygonMeshVertex
 10
3.0
 20
0.0
 30
0.0
 70
    64
  0
VERTEX
  5
317
100
AcDbEntity
  8
0
100
AcDbVertex
100
AcDbPolygonMeshVertex
 10
3.0
 20
0.0
 30
0.0
 70
    64
  0
VERTEX
  5
318
100
AcDbEntity
  8
0
100
AcDbVertex
100
AcDbPolygonMeshVertex
 10
3.0
 20
0.0
 30
0.0
 70
    64
  0
VERTEX
  5
319
100
AcDbEntity
  8
0
100
AcDbVertex
100
AcDbPolygonMeshVertex
 10
3.0
 20
0.0
 30
0.0
 70
    64
  0
VERTEX
  5
31A
100
AcDbEntity
  8
0
100
AcDbVertex
100
AcDbPolygonMeshVertex
 10
3.0
 20
0.0
 30
0.0
 70
    64
  0
VERTEX
  5
31B
100
AcDbEntity
  8
0
100
AcDbVertex
100
AcDbPolygonMeshVertex
 10
3.0
 20
0.0
 30
0.0
 70
    64
  0
VERTEX
  5
31C
100
AcDbEntity
  8
0
100
AcDbVertex
100
AcDbPolygonMeshVertex
 10
3.0
 20
0.0
 30
0.0
 70
    64
  0
SEQEND
  5
31D
100
AcDbEntity
  8
0
  0
ENDBLK
  5
31E
100
AcDbEntity
  8
0
100
AcDbBlockEnd
  0
BLOCK
  5
320
100
AcDbEntity
  8
0
100
AcDbBlockBegin
  2
YAXIS
 70
     0
 10
0.0
 20
0.0
 30
0.0
  3
YAXIS
  1

  0
3DSOLID
  5
321
100
AcDbEntity
  8
0
100
AcDbModelerGeometry
 70
     1
  1
noi mj n o          
  1
=0;& {rn {n {rn {rn |
  1
3*2/ {rn {rn {m {o |
  1
,7:33 {rn {rn {rn {l {n |
  1
9><: {rn {k {j {m {rn {i 90-(>-; ,6183: |
  1
9><: {rn {h {g {m {rn {f 90-(>-; ,6183: |
  1
300/ {rn {no {nn {l |
  1
<01:r,*-9><: {rn o n nqnnommlomkimjnjij:roni iqnmlolnhifnnnggil:ronh n iqnmlolnhifnnnggil:ronh nqghkjhjfommhhihnf:rolk lqoinjnjggkjjjfklm:rong roqojoooooooooooooool n V V o n o V V V V |
  1
9><: {rn {rn {nm {m {rn {nl 90-(>-; ,6183: |
  1
300/ {rn {rn {nk {k |
  1
/3>1:r,*-9><: {rn o o o riqnmlolnhifnnnggil:ronh rn riqnmlolnhifnnnggil:ronh rlqhkfnjngokjjjlkli:roll riqnmlolnhifnnnggil:ronh n o V V V V |
  1
300/ {rn {rn {nj {l |
  1
<0:;8: {rn {nn {nn {nk {ni n {j {rn |
  1
300/ {rn {rn {nh {h |
  1
/3>1:r,*-9><: {rn o nqfffffffffffffffg nqnnommlomkimjnjij:roni iqnmlolnhifnnnggil:ronh n iqnmlolnhifnnnggil:ronh lqhkfnjngokjjjlkli:roll iqnmlolnhifnnnggil:ronh rn o V V V V |
  1
<0:;8: {rn {nk {nk {nn {ni o {g {rn |
  1
<0:;8: {rn {nj {nj {nh {ng n {no {rn |
  1
:;8: {rn {nf {nf {nk {mo o |
  1
<0:;8: {rn {nh {nh {nj {ng o {nm {rn |
  1
:;8: {rn {mn {mn {nh {mm o |
  1
):-+:' {rn {ni {ml |
  1
:336/,:r<*-): {rn o o o riqnmlolnhifnnnggil:ronh rn riqnmlolnhifnnnggil:ronh nqghkjhjfommhhihnf:rolk lqoinjnjggkjjjfklm:rong roqojoooooooooooooool n V V |
  1
):-+:' {rn {ng {mk |
  1
:336/,:r<*-): {rn o nqfffffffffffffffg nqnnommlomkimjnjij:roni iqnmlolnhifnnnggil:ronh n iqnmlolnhifnnnggil:ronh nqghkjhjfommhhihnf:rolk lqoinjnjggkjjjfklm:rong roqojoooooooooooooool n V V |
  1
/061+ {rn o o roqojooooooooooooookk |
  1
/061+ {rn o nqfffffffffffffffg roqokffffffffffffffll |
  0
POLYLINE
  5
322
100
AcDbEntity
  8
0
100
AcDbPolygonMesh
 66
     1
 10
0.0
 20
0.0
 30
0.0
 70
    48
 71
     2
 72
    16
  0
VERTEX
  5
323
100
AcDbEntity
  8
0
100
AcDbVertex
100
AcDbPolygonMeshVertex
 10
0.0
 20
2.0
 30
-0.2
 70
    64
  0
VERTEX
  5
324
100
AcDbEntity
  8
0
100
AcDbVertex
100
AcDbPolygonMeshVertex
 10
-0.076537
 20
2.0
 30
-0.184776
 70
    64
  0
VERTEX
  5
325
100
AcDbEntity
  8
0
100
AcDbVertex
100
AcDbPolygonMeshVertex
 10
-0.141421
 20
2.0
 30
-0.141421
 70
    64
  0
VERTEX
  5
326
100
AcDbEntity
  8
0
100
AcDbVertex
100
AcDbPolygonMeshVertex
 10
-0.184776
 20
2.0
 30
-0.076537
 70
    64
  0
VERTEX
  5
327
100
AcDbEntity
  8
0
100
AcDbVertex
100
AcDbPolygonMeshVertex
 10
-0.2
 20
2.0
 30
0.0
 70
    64
  0
VERTEX
  5
328
100
AcDbEntity
  8
0
100
AcDbVertex
100
AcDbPolygonMeshVertex
 10
-0.184776
 20
2.0
 30
0.076537
 70
    64
  0
VERTEX
  5
329
100
AcDbEntity
  8
0
100
AcDbVertex
100
AcDbPolygonMeshVertex
 10
-0.141421
 20
2.0
 30
0.141421
 70
    64
  0
VERTEX
  5
32A
100
AcDbEntity
  8
0
100
AcDbVertex
100
AcDbPolygonMeshVertex
 10
-0.076537
 20
2.0
 30
0.184776
 70
    64
  0
VERTEX
  5
32B
100
AcDbEntity
  8
0
100
AcDbVertex
100
AcDbPolygonMeshVertex
 10
0.0
 20
2.0
 30
0.2
 70
    64
  0
VERTEX
  5
32C
100
AcDbEntity
  8
0
100
AcDbVertex
100
AcDbPolygonMeshVertex
 10
0.076537
 20
2.0
 30
0.184776
 70
    64
  0
VERTEX
  5
32D
100
AcDbEntity
  8
0
100
AcDbVertex
100
AcDbPolygonMeshVertex
 10
0.141421
 20
2.0
 30
0.141421
 70
    64
  0
VERTEX
  5
32E
100
AcDbEntity
  8
0
100
AcDbVertex
100
AcDbPolygonMeshVertex
 10
0.184776
 20
2.0
 30
0.076537
 70
    64
  0
VERTEX
  5
32F
100
AcDbEntity
  8
0
100
AcDbVertex
100
AcDbPolygonMeshVertex
 10
0.2
 20
2.0
 30
0.0
 70
    64
  0
VERTEX
  5
330
100
AcDbEntity
  8
0
100
AcDbVertex
100
AcDbPolygonMeshVertex
 10
0.184776
 20
2.0
 30
-0.076537
 70
    64
  0
VERTEX
  5
331
100
AcDbEntity
  8
0
100
AcDbVertex
100
AcDbPolygonMeshVertex
 10
0.141421
 20
2.0
 30
-0.141421
 70
    64
  0
VERTEX
  5
332
100
AcDbEntity
  8
0
100
AcDbVertex
100
AcDbPolygonMeshVertex
 10
0.076537
 20
2.0
 30
-0.184776
 70
    64
  0
VERTEX
  5
333
100
AcDbEntity
  8
0
100
AcDbVertex
100
AcDbPolygonMeshVertex
 10
0.0
 20
3.0
 30
0.0
 70
    64
  0
VERTEX
  5
334
100
AcDbEntity
  8
0
100
AcDbVertex
100
AcDbPolygonMeshVertex
 10
0.0
 20
3.0
 30
0.0
 70
    64
  0
VERTEX
  5
335
100
AcDbEntity
  8
0
100
AcDbVertex
100
AcDbPolygonMeshVertex
 10
0.0
 20
3.0
 30
0.0
 70
    64
  0
VERTEX
  5
336
100
AcDbEntity
  8
0
100
AcDbVertex
100
AcDbPolygonMeshVertex
 10
0.0
 20
3.0
 30
0.0
 70
    64
  0
VERTEX
  5
337
100
AcDbEntity
  8
0
100
AcDbVertex
100
AcDbPolygonMeshVertex
 10
0.0
 20
3.0
 30
0.0
 70
    64
  0
VERTEX
  5
338
100
AcDbEntity
  8
0
100
AcDbVertex
100
AcDbPolygonMeshVertex
 10
0.0
 20
3.0
 30
0.0
 70
    64
  0
VERTEX
  5
339
100
AcDbEntity
  8
0
100
AcDbVertex
100
AcDbPolygonMeshVertex
 10
0.0
 20
3.0
 30
0.0
 70
    64
  0
VERTEX
  5
33A
100
AcDbEntity
  8
0
100
AcDbVertex
100
AcDbPolygonMeshVertex
 10
0.0
 20
3.0
 30
0.0
 70
    64
  0
VERTEX
  5
33B
100
AcDbEntity
  8
0
100
AcDbVertex
100
AcDbPolygonMeshVertex
 10
0.0
 20
3.0
 30
0.0
 70
    64
  0
VERTEX
  5
33C
100
AcDbEntity
  8
0
100
AcDbVertex
100
AcDbPolygonMeshVertex
 10
0.0
 20
3.0
 30
0.0
 70
    64
  0
VERTEX
  5
33D
100
AcDbEntity
  8
0
100
AcDbVertex
100
AcDbPolygonMeshVertex
 10
0.0
 20
3.0
 30
0.0
 70
    64
  0
VERTEX
  5
33E
100
AcDbEntity
  8
0
100
AcDbVertex
100
AcDbPolygonMeshVertex
 10
0.0
 20
3.0
 30
0.0
 70
    64
  0
VERTEX
  5
33F
100
AcDbEntity
  8
0
100
AcDbVertex
100
AcDbPolygonMeshVertex
 10
0.0
 20
3.0
 30
0.0
 70
    64
  0
VERTEX
  5
340
100
AcDbEntity
  8
0
100
AcDbVertex
100
AcDbPolygonMeshVertex
 10
0.0
 20
3.0
 30
0.0
 70
    64
  0
VERTEX
  5
341
100
AcDbEntity
  8
0
100
AcDbVertex
100
AcDbPolygonMeshVertex
 10
0.0
 20
3.0
 30
0.0
 70
    64
  0
VERTEX
  5
342
100
AcDbEntity
  8
0
100
AcDbVertex
100
AcDbPolygonMeshVertex
 10
0.0
 20
3.0
 30
0.0
 70
    64
  0
SEQEND
  5
343
100
AcDbEntity
  8
0
  0
ENDBLK
  5
344
100
AcDbEntity
  8
0
100
AcDbBlockEnd
  0
BLOCK
  5
346
100
AcDbEntity
  8
0
100
AcDbBlockBegin
  2
ZAXIS
 70
     0
 10
0.0
 20
0.0
 30
0.0
  3
ZAXIS
  1

  0
3DSOLID
  5
347
100
AcDbEntity
  8
0
100
AcDbModelerGeometry
 70
     1
  1
noi mj n o          
  1
=0;& {rn {n {rn {rn |
  1
3*2/ {rn {rn {m {o |
  1
,7:33 {rn {rn {rn {l {n |
  1
9><: {rn {k {j {m {rn {i 90-(>-; ,6183: |
  1
9><: {rn {h {g {m {rn {f 90-(>-; ,6183: |
  1
300/ {rn {no {nn {l |
  1
<01:r,*-9><: {rn o o n o o n oqojoooooooooooooool o o n V V o n o V V V V |
  1
9><: {rn {rn {nm {m {rn {nl 90-(>-; ,6183: |
  1
300/ {rn {rn {nk {k |
  1
/3>1:r,*-9><: {rn o o o o o rn rn o o o V V V V |
  1
300/ {rn {rn {nj {l |
  1
<0:;8: {rn {nn {nn {nk {ni n {j {rn |
  1
300/ {rn {rn {nh {h |
  1
/3>1:r,*-9><: {rn o o m o o n n o o o V V V V |
  1
<0:;8: {rn {nk {nk {nn {ni o {g {rn |
  1
<0:;8: {rn {nj {nj {nh {ng n {no {rn |
  1
:;8: {rn {nf {nf {nk {mo o |
  1
<0:;8: {rn {nh {nh {nj {ng o {nm {rn |
  1
:;8: {rn {mn {mn {nh {mm o |
  1
):-+:' {rn {ni {ml |
  1
:336/,:r<*-): {rn o o o o o rn oqojoooooooooooooool o o n V V |
  1
):-+:' {rn {ng {mk |
  1
:336/,:r<*-): {rn o o m o o n oqojoooooooooooooool o o n V V |
  1
/061+ {rn oqojoooooooooooooool o o |
  1
/061+ {rn oqojoooooooooooooool o m |
  0
POLYLINE
  5
348
100
AcDbEntity
  8
0
100
AcDbPolygonMesh
 66
     1
 10
0.0
 20
0.0
 30
0.0
 70
    48
 71
     2
 72
    16
  0
VERTEX
  5
349
100
AcDbEntity
  8
0
100
AcDbVertex
100
AcDbPolygonMeshVertex
 10
0.2
 20
0.0
 30
2.0
 70
    64
  0
VERTEX
  5
34A
100
AcDbEntity
  8
0
100
AcDbVertex
100
AcDbPolygonMeshVertex
 10
0.184776
 20
0.076537
 30
2.0
 70
    64
  0
VERTEX
  5
34B
100
AcDbEntity
  8
0
100
AcDbVertex
100
AcDbPolygonMeshVertex
 10
0.141421
 20
0.141421
 30
2.0
 70
    64
  0
VERTEX
  5
34C
100
AcDbEntity
  8
0
100
AcDbVertex
100
AcDbPolygonMeshVertex
 10
0.076537
 20
0.184776
 30
2.0
 70
    64
  0
VERTEX
  5
34D
100
AcDbEntity
  8
0
100
AcDbVertex
100
AcDbPolygonMeshVertex
 10
0.0
 20
0.2
 30
2.0
 70
    64
  0
VERTEX
  5
34E
100
AcDbEntity
  8
0
100
AcDbVertex
100
AcDbPolygonMeshVertex
 10
-0.076537
 20
0.184776
 30
2.0
 70
    64
  0
VERTEX
  5
34F
100
AcDbEntity
  8
0
100
AcDbVertex
100
AcDbPolygonMeshVertex
 10
-0.141421
 20
0.141421
 30
2.0
 70
    64
  0
VERTEX
  5
350
100
AcDbEntity
  8
0
100
AcDbVertex
100
AcDbPolygonMeshVertex
 10
-0.184776
 20
0.076537
 30
2.0
 70
    64
  0
VERTEX
  5
351
100
AcDbEntity
  8
0
100
AcDbVertex
100
AcDbPolygonMeshVertex
 10
-0.2
 20
0.0
 30
2.0
 70
    64
  0
VERTEX
  5
352
100
AcDbEntity
  8
0
100
AcDbVertex
100
AcDbPolygonMeshVertex
 10
-0.184776
 20
-0.076537
 30
2.0
 70
    64
  0
VERTEX
  5
353
100
AcDbEntity
  8
0
100
AcDbVertex
100
AcDbPolygonMeshVertex
 10
-0.141421
 20
-0.141421
 30
2.0
 70
    64
  0
VERTEX
  5
354
100
AcDbEntity
  8
0
100
AcDbVertex
100
AcDbPolygonMeshVertex
 10
-0.076537
 20
-0.184776
 30
2.0
 70
    64
  0
VERTEX
  5
355
100
AcDbEntity
  8
0
100
AcDbVertex
100
AcDbPolygonMeshVertex
 10
0.0
 20
-0.2
 30
2.0
 70
    64
  0
VERTEX
  5
356
100
AcDbEntity
  8
0
100
AcDbVertex
100
AcDbPolygonMeshVertex
 10
0.076537
 20
-0.184776
 30
2.0
 70
    64
  0
VERTEX
  5
357
100
AcDbEntity
  8
0
100
AcDbVertex
100
AcDbPolygonMeshVertex
 10
0.141421
 20
-0.141421
 30
2.0
 70
    64
  0
VERTEX
  5
358
100
AcDbEntity
  8
0
100
AcDbVertex
100
AcDbPolygonMeshVertex
 10
0.184776
 20
-0.076537
 30
2.0
 70
    64
  0
VERTEX
  5
359
100
AcDbEntity
  8
0
100
AcDbVertex
100
AcDbPolygonMeshVertex
 10
0.0
 20
0.0
 30
3.0
 70
    64
  0
VERTEX
  5
35A
100
AcDbEntity
  8
0
100
AcDbVertex
100
AcDbPolygonMeshVertex
 10
0.0
 20
0.0
 30
3.0
 70
    64
  0
VERTEX
  5
35B
100
AcDbEntity
  8
0
100
AcDbVertex
100
AcDbPolygonMeshVertex
 10
0.0
 20
0.0
 30
3.0
 70
    64
  0
VERTEX
  5
35C
100
AcDbEntity
  8
0
100
AcDbVertex
100
AcDbPolygonMeshVertex
 10
0.0
 20
0.0
 30
3.0
 70
    64
  0
VERTEX
  5
35D
100
AcDbEntity
  8
0
100
AcDbVertex
100
AcDbPolygonMeshVertex
 10
0.0
 20
0.0
 30
3.0
 70
    64
  0
VERTEX
  5
35E
100
AcDbEntity
  8
0
100
AcDbVertex
100
AcDbPolygonMeshVertex
 10
0.0
 20
0.0
 30
3.0
 70
    64
  0
VERTEX
  5
35F
100
AcDbEntity
  8
0
100
AcDbVertex
100
AcDbPolygonMeshVertex
 10
0.0
 20
0.0
 30
3.0
 70
    64
  0
VERTEX
  5
360
100
AcDbEntity
  8
0
100
AcDbVertex
100
AcDbPolygonMeshVertex
 10
0.0
 20
0.0
 30
3.0
 70
    64
  0
VERTEX
  5
361
100
AcDbEntity
  8
0
100
AcDbVertex
100
AcDbPolygonMeshVertex
 10
0.0
 20
0.0
 30
3.0
 70
    64
  0
VERTEX
  5
362
100
AcDbEntity
  8
0
100
AcDbVertex
100
AcDbPolygonMeshVertex
 10
0.0
 20
0.0
 30
3.0
 70
    64
  0
VERTEX
  5
363
100
AcDbEntity
  8
0
100
AcDbVertex
100
AcDbPolygonMeshVertex
 10
0.0
 20
0.0
 30
3.0
 70
    64
  0
VERTEX
  5
364
100
AcDbEntity
  8
0
100
AcDbVertex
100
AcDbPolygonMeshVertex
 10
0.0
 20
0.0
 30
3.0
 70
    64
  0
VERTEX
  5
365
100
AcDbEntity
  8
0
100
AcDbVertex
100
AcDbPolygonMeshVertex
 10
0.0
 20
0.0
 30
3.0
 70
    64
  0
VERTEX
  5
366
100
AcDbEntity
  8
0
100
AcDbVertex
100
AcDbPolygonMeshVertex
 10
0.0
 20
0.0
 30
3.0
 70
    64
  0
VERTEX
  5
367
100
AcDbEntity
  8
0
100
AcDbVertex
100
AcDbPolygonMeshVertex
 10
0.0
 20
0.0
 30
3.0
 70
    64
  0
VERTEX
  5
368
100
AcDbEntity
  8
0
100
AcDbVertex
100
AcDbPolygonMeshVertex
 10
0.0
 20
0.0
 30
3.0
 70
    64
  0
SEQEND
  5
369
100
AcDbEntity
  8
0
  0
ENDBLK
  5
36A
100
AcDbEntity
  8
0
100
AcDbBlockEnd
  0
ENDSEC
  0
SECTION
  2
ENTITIES
  0
LWPOLYLINE
  5
370
100
AcDbEntity
  8
COLS
  6
CONTINUOUS
 62
 3 
100
AcDbPolyline
90
 4
70
 1
38
 0
39
 0
 10
412707.31208878
 20
12691.8796558454
 10
412367.914618036
 20
13416.3169249395
 10
412820.68791122
 20
13628.4403441546
 10
413160.085381964
 20
12904.0030750605
  0
LWPOLYLINE
  5
371
100
AcDbEntity
  8
COLS
  6
CONTINUOUS
 62
 3 
100
AcDbPolyline
90
 4
70
 1
38
 0
39
 0
 10
409580.375063016
 20
19366.3416438006
 10
409368.251643801
 20
19819.1149369844
 10
409821.024936984
 20
20031.2383561994
 10
410033.148356199
 20
19578.4650630156
  0
LWPOLYLINE
  5
372
100
AcDbEntity
  8
COLS
  6
CONTINUOUS
 62
 3 
100
AcDbPolyline
90
 4
70
 1
38
 0
39
 0
 10
403868.900000256
 20
26948.7000002564
 10
403368.900000256
 20
26948.6999997436
 10
403368.899999744
 20
27448.6999997436
 10
403868.899999744
 20
27448.7000002564
  0
LWPOLYLINE
  5
373
100
AcDbEntity
  8
COLS
  6
CONTINUOUS
 62
 3 
100
AcDbPolyline
90
 4
70
 1
38
 0
39
 0
 10
395718.900000154
 20
27048.7000003077
 10
395118.900000154
 20
27048.6999996923
 10
395118.899999846
 20
27348.6999996923
 10
395718.899999846
 20
27348.7000003077
  0
LWPOLYLINE
  5
374
100
AcDbEntity
  8
COLS
  6
CONTINUOUS
 62
 3 
100
AcDbPolyline
90
 4
70
 1
38
 0
39
 0
 10
406066.675063016
 20
26866.2516438006
 10
405854.551643801
 20
27319.0249369844
 10
406307.324936984
 20
27531.1483561994
 10
406519.448356199
 20
27078.3750630156
  0
LWPOLYLINE
  5
375
100
AcDbEntity
  8
COLS
  6
CONTINUOUS
 62
 3 
100
AcDbPolyline
90
 4
70
 1
38
 0
39
 0
 10
392368.900000256
 20
26948.7000002564
 10
391868.900000256
 20
26948.6999997436
 10
391868.899999744
 20
27448.6999997436
 10
392368.899999744
 20
27448.7000002564
  0
LWPOLYLINE
  5
376
100
AcDbEntity
  8
COLS
  6
CONTINUOUS
 62
 3 
100
AcDbPolyline
90
 4
70
 1
38
 0
39
 0
 10
382525.24002288
 20
19282.3439754081
 10
382064.513975408
 20
19476.5899771203
 10
382258.75997712
 20
19937.3160245919
 10
382719.486024592
 20
19743.0700228797
  0
LWPOLYLINE
  5
377
100
AcDbEntity
  8
COLS
  6
CONTINUOUS
 62
 3 
100
AcDbPolyline
90
 4
70
 1
38
 0
39
 0
 10
386368.900000256
 20
19448.7900002564
 10
385868.900000256
 20
19448.7899997436
 10
385868.899999744
 20
19948.7899997436
 10
386368.899999744
 20
19948.7900002564
  0
LWPOLYLINE
  5
378
100
AcDbEntity
  8
COLS
  6
CONTINUOUS
 62
 3 
100
AcDbPolyline
90
 4
70
 1
38
 0
39
 0
 10
392368.900000256
 20
19448.7900002564
 10
391868.900000256
 20
19448.7899997436
 10
391868.899999744
 20
19948.7899997436
 10
392368.899999744
 20
19948.7900002564
  0
LWPOLYLINE
  5
379
100
AcDbEntity
  8
COLS
  6
CONTINUOUS
 62
 3 
100
AcDbPolyline
90
 4
70
 1
38
 0
39
 0
 10
392268.900000256
 20
22777.1500001538
 10
391968.900000256
 20
22777.1499998462
 10
391968.899999744
 20
23277.1499998462
 10
392268.899999744
 20
23277.1500001538
  0
LWPOLYLINE
  5
37A
100
AcDbEntity
  8
COLS
  6
CONTINUOUS
 62
 3 
100
AcDbPolyline
90
 4
70
 1
38
 0
39
 0
 10
398218.900000154
 20
27048.7000002564
 10
397718.900000154
 20
27048.6999997436
 10
397718.899999846
 20
27348.6999997436
 10
398218.899999846
 20
27348.7000002564
  0
LWPOLYLINE
  5
37B
100
AcDbEntity
  8
COLS
  6
CONTINUOUS
 62
 3 
100
AcDbPolyline
90
 4
70
 1
38
 0
39
 0
 10
385686.84002288
 20
26781.2639754081
 10
385226.113975408
 20
26975.5099771203
 10
385420.35997712
 20
27436.2360245919
 10
385881.086024592
 20
27241.9900228797
  0
LWPOLYLINE
  5
37C
100
AcDbEntity
  8
COLS
  6
CONTINUOUS
 62
 3 
100
AcDbPolyline
90
 4
70
 1
38
 0
39
 0
 10
379533.238308165
 20
12072.5132777694
 10
379072.513277769
 20
12266.761691835
 10
379266.761691835
 20
12727.4867222306
 10
379727.486722231
 20
12533.238308165
  0
LWPOLYLINE
  5
37D
100
AcDbEntity
  8
COLS
  6
CONTINUOUS
 62
 3 
100
AcDbPolyline
90
 24
70
 1
38
 0
39
 0
 10
403618.900000062
 20
19398.79
 10
403541.260000059
 20
19409.0199999841
 10
403468.900000053
 20
19438.9899999692
 10
403406.770000044
 20
19486.6599999565
 10
403359.100000031
 20
19548.7899999467
 10
403329.130000016
 20
19621.1499999406
 10
403318.9
 20
19698.7899999385
 10
403329.129999984
 20
19776.4299999406
 10
403359.099999969
 20
19848.7899999467
 10
403406.769999957
 20
19910.9199999565
 10
403468.899999947
 20
19958.5899999692
 10
403541.259999941
 20
19988.5599999841
 10
403618.899999938
 20
19998.79
 10
403696.539999941
 20
19988.5600000159
 10
403768.899999947
 20
19958.5900000308
 10
403831.029999956
 20
19910.9200000435
 10
403878.699999969
 20
19848.7900000533
 10
403908.669999984
 20
19776.4300000594
 10
403918.9
 20
19698.7900000615
 10
403908.670000016
 20
19621.1500000594
 10
403878.700000031
 20
19548.7900000533
 10
403831.030000044
 20
19486.6600000435
 10
403768.900000053
 20
19438.9900000308
 10
403696.540000059
 20
19409.0200000159
  0
LWPOLYLINE
  5
37E
100
AcDbEntity
  8
COLS
  6
CONTINUOUS
 62
 3 
100
AcDbPolyline
90
 24
70
 1
38
 0
39
 0
 10
403618.900000062
 20
12057.95
 10
403541.260000059
 20
12068.1799999841
 10
403468.900000053
 20
12098.1499999692
 10
403406.770000044
 20
12145.8199999565
 10
403359.100000031
 20
12207.9499999467
 10
403329.130000016
 20
12280.3099999406
 10
403318.9
 20
12357.9499999385
 10
403329.129999984
 20
12435.5899999406
 10
403359.099999969
 20
12507.9499999467
 10
403406.769999957
 20
12570.0799999565
 10
403468.899999947
 20
12617.7499999692
 10
403541.259999941
 20
12647.7199999841
 10
403618.899999938
 20
12657.95
 10
403696.539999941
 20
12647.7200000159
 10
403768.899999947
 20
12617.7500000308
 10
403831.029999956
 20
12570.0800000435
 10
403878.699999969
 20
12507.9500000533
 10
403908.669999984
 20
12435.5900000594
 10
403918.9
 20
12357.9500000615
 10
403908.670000016
 20
12280.3100000594
 10
403878.700000031
 20
12207.9500000533
 10
403831.030000044
 20
12145.8200000435
 10
403768.900000053
 20
12098.1500000308
 10
403696.540000059
 20
12068.1800000159
  0
LWPOLYLINE
  5
37F
100
AcDbEntity
  8
COLS
  6
CONTINUOUS
 62
 3 
100
AcDbPolyline
90
 4
70
 1
38
 0
39
 0
 10
411004.50176002
 20
-290.797631551453
 10
410622.679605433
 20
524.194296179433
 10
410984.89823998
 20
693.893031551453
 10
411366.720394567
 20
-121.098896179433
  0
LWPOLYLINE
  5
380
100
AcDbEntity
  8
COLS
  6
CONTINUOUS
 62
 3 
100
AcDbPolyline
90
 4
70
 1
38
 0
39
 0
 10
417457.789418099
 20
2787.78399776693
 10
417118.391947354
 20
3512.22126686105
 10
417480.610581902
 20
3681.92000223307
 10
417820.008052646
 20
2957.48273313895
  0
LWPOLYLINE
  5
381
100
AcDbEntity
  8
COLS
  6
CONTINUOUS
 62
 3 
100
AcDbPolyline
90
 4
70
 1
38
 0
39
 0
 10
415705.689418099
 20
6527.69299776693
 10
415366.291947355
 20
7252.13026686105
 10
415728.510581902
 20
7421.82900223307
 10
416067.908052646
 20
6697.39173313895
  0
LWPOLYLINE
  5
382
100
AcDbEntity
  8
COLS
  6
CONTINUOUS
 62
 3 
100
AcDbPolyline
90
 4
70
 1
38
 0
39
 0
 10
421346.50176002
 20
-5512.48933155145
 10
420964.679605433
 20
-4697.49740382057
 10
421326.89823998
 20
-4527.79866844855
 10
421708.720394567
 20
-5342.79059617943
  0
LWPOLYLINE
  5
383
100
AcDbEntity
  8
COLS
  6
CONTINUOUS
 62
 3 
100
AcDbPolyline
90
 4
70
 1
38
 0
39
 0
 10
406840.189418099
 20
8597.95199776693
 10
406500.791947355
 20
9322.38926686105
 10
406863.010581902
 20
9492.08800223307
 10
407202.408052646
 20
8767.65073313895
  0
LWPOLYLINE
  5
384
100
AcDbEntity
  8
COLS
  6
CONTINUOUS
 62
 3 
100
AcDbPolyline
90
 4
70
 1
38
 0
39
 0
 10
409231.189418098
 20
3494.38799776693
 10
408891.791947354
 20
4218.82526686105
 10
409254.010581901
 20
4388.52400223307
 10
409593.408052646
 20
3664.08673313895
  0
LWPOLYLINE
  5
385
100
AcDbEntity
  8
COLS
  6
CONTINUOUS
 62
 3 
100
AcDbPolyline
90
 4
70
 1
38
 0
39
 0
 10
386368.900000256
 20
12107.9500002564
 10
385868.900000256
 20
12107.9499997436
 10
385868.899999744
 20
12607.9499997436
 10
386368.899999744
 20
12607.9500002564
  0
LWPOLYLINE
  5
386
100
AcDbEntity
  8
COLS
  6
CONTINUOUS
 62
 3 
100
AcDbPolyline
90
 4
70
 1
38
 0
39
 0
 10
392368.900000082
 20
11957.9500000513
 10
391868.900000082
 20
11957.9499999487
 10
391868.899999918
 20
12757.9499999487
 10
392368.899999918
 20
12757.9500000513
  0
LINE
  5
387
100
AcDbEntity
  8
BEAM
  6
CONTINUOUS
 62
 256 
100
AcDbLine
 10
467418.9
 20
23271.15
 30
0
 11
323418.9
 21
23271.15
 31
0
  0
LINE
  5
388
100
AcDbEntity
  8
BEAM
  6
CONTINUOUS
 62
 256 
100
AcDbLine
 10
395418.9
 20
95271.15
 30
0
 11
467418.9
 21
23271.15
 31
0
  0
LINE
  5
389
100
AcDbEntity
  8
BEAM
  6
CONTINUOUS
 62
 256 
100
AcDbLine
 10
395418.9
 20
95271.15
 30
0
 11
323418.9
 21
23271.15
 31
0
  0
LINE
  5
38A
100
AcDbEntity
  8
BEAM
  6
CONTINUOUS
 62
 256 
100
AcDbLine
 10
467418.9
 20
27054.7
 30
0
 11
323418.9
 21
27054.7
 31
0
  0
LINE
  5
38B
100
AcDbEntity
  8
BEAM
  6
CONTINUOUS
 62
 256 
100
AcDbLine
 10
395418.9
 20
-44945.3
 30
0
 11
467418.9
 21
27054.7
 31
0
  0
LINE
  5
38C
100
AcDbEntity
  8
BEAM
  6
CONTINUOUS
 62
 256 
100
AcDbLine
 10
395418.9
 20
-44945.3
 30
0
 11
323418.9
 21
27054.7
 31
0
  0
LINE
  5
38D
100
AcDbEntity
  8
BEAM
  6
CONTINUOUS
 62
 2 
100
AcDbLine
 10
395418.899999971
 20
23271.15
 30
0
 11
395418.899999194
 21
27054.7
 31
0
  0
TEXT
5
38E
100
AcDbEntity
8
TEXT
62
 0 
100
AcDbText
 10
251418.899999582
 20
25162.9249704651
 30
0
40
144000
1
B 20X65
50
90
 72
4
 11
251418.899999582
 21
25162.9249704651
 31
0
210
0
220
0
230
1
100
AcDbText
  0
LINE
  5
38F
100
AcDbEntity
  8
BEAM
  6
CONTINUOUS
 62
 256 
100
AcDbLine
 10
395862.900000154
 20
-44801.3
 30
0
 11
395862.900000154
 21
99198.7
 31
0
  0
LINE
  5
390
100
AcDbEntity
  8
BEAM
  6
CONTINUOUS
 62
 256 
100
AcDbLine
 10
467862.900000154
 20
27198.7
 30
0
 11
395862.900000154
 21
-44801.3
 31
0
  0
LINE
  5
391
100
AcDbEntity
  8
BEAM
  6
CONTINUOUS
 62
 256 
100
AcDbLine
 10
467862.900000154
 20
27198.7
 30
0
 11
395862.900000154
 21
99198.7
 31
0
  0
LINE
  5
392
100
AcDbEntity
  8
BEAM
  6
CONTINUOUS
 62
 256 
100
AcDbLine
 10
397574.899999744
 20
-44801.3
 30
0
 11
397574.899999744
 21
99198.7
 31
0
  0
LINE
  5
393
100
AcDbEntity
  8
BEAM
  6
CONTINUOUS
 62
 256 
100
AcDbLine
 10
325574.899999744
 20
27198.7
 30
0
 11
397574.899999744
 21
-44801.3
 31
0
  0
LINE
  5
394
100
AcDbEntity
  8
BEAM
  6
CONTINUOUS
 62
 256 
100
AcDbLine
 10
325574.899999744
 20
27198.7
 30
0
 11
397574.899999744
 21
99198.7
 31
0
  0
LINE
  5
395
100
AcDbEntity
  8
BEAM
  6
CONTINUOUS
 62
 2 
100
AcDbLine
 10
395862.900000154
 20
27198.7
 30
0
 11
397574.899999744
 21
27198.7
 31
0
  0
TEXT
5
396
100
AcDbEntity
8
TEXT
62
 0 
100
AcDbText
 10
396718.899999949
 20
171198.7
 30
0
40
144000
1
HE400B
50
0
 72
4
 11
396718.899999949
 21
171198.7
 31
0
210
0
220
0
230
1
100
AcDbText
  0
LINE
  5
397
100
AcDbEntity
  8
BEAM
  6
CONTINUOUS
 62
 256 
100
AcDbLine
 10
392562.900000154
 20
-44801.3
 30
0
 11
392562.900000154
 21
99198.7
 31
0
  0
LINE
  5
398
100
AcDbEntity
  8
BEAM
  6
CONTINUOUS
 62
 256 
100
AcDbLine
 10
464562.900000154
 20
27198.7
 30
0
 11
392562.900000154
 21
-44801.3
 31
0
  0
LINE
  5
399
100
AcDbEntity
  8
BEAM
  6
CONTINUOUS
 62
 256 
100
AcDbLine
 10
464562.900000154
 20
27198.7
 30
0
 11
392562.900000154
 21
99198.7
 31
0
  0
LINE
  5
39A
100
AcDbEntity
  8
BEAM
  6
CONTINUOUS
 62
 256 
100
AcDbLine
 10
394974.899999846
 20
-44801.3
 30
0
 11
394974.899999846
 21
99198.7
 31
0
  0
LINE
  5
39B
100
AcDbEntity
  8
BEAM
  6
CONTINUOUS
 62
 256 
100
AcDbLine
 10
322974.899999846
 20
27198.7
 30
0
 11
394974.899999846
 21
-44801.3
 31
0
  0
LINE
  5
39C
100
AcDbEntity
  8
BEAM
  6
CONTINUOUS
 62
 256 
100
AcDbLine
 10
322974.899999846
 20
27198.7
 30
0
 11
394974.899999846
 21
99198.7
 31
0
  0
LINE
  5
39D
100
AcDbEntity
  8
BEAM
  6
CONTINUOUS
 62
 2 
100
AcDbLine
 10
392562.900000154
 20
27198.7
 30
0
 11
394974.899999846
 21
27198.7
 31
0
  0
TEXT
5
39E
100
AcDbEntity
8
TEXT
62
 0 
100
AcDbText
 10
393768.9
 20
171198.7
 30
0
40
144000
1
HE400B
50
0
 72
4
 11
393768.9
 21
171198.7
 31
0
210
0
220
0
230
1
100
AcDbText
  0
LINE
  5
39F
100
AcDbEntity
  8
BEAM
  6
CONTINUOUS
 62
 256 
100
AcDbLine
 10
464118.9
 20
23421.1500002051
 30
0
 11
320118.9
 21
23421.1500002051
 31
0
  0
LINE
  5
3A0
100
AcDbEntity
  8
BEAM
  6
CONTINUOUS
 62
 256 
100
AcDbLine
 10
392118.9
 20
95421.1500002051
 30
0
 11
464118.9
 21
23421.1500002051
 31
0
  0
LINE
  5
3A1
100
AcDbEntity
  8
BEAM
  6
CONTINUOUS
 62
 256 
100
AcDbLine
 10
392118.9
 20
95421.1500002051
 30
0
 11
320118.9
 21
23421.1500002051
 31
0
  0
LINE
  5
3A2
100
AcDbEntity
  8
BEAM
  6
CONTINUOUS
 62
 256 
100
AcDbLine
 10
464118.9
 20
26804.6999997949
 30
0
 11
320118.9
 21
26804.6999997949
 31
0
  0
LINE
  5
3A3
100
AcDbEntity
  8
BEAM
  6
CONTINUOUS
 62
 256 
100
AcDbLine
 10
392118.9
 20
-45195.3000002051
 30
0
 11
464118.9
 21
26804.6999997949
 31
0
  0
LINE
  5
3A4
100
AcDbEntity
  8
BEAM
  6
CONTINUOUS
 62
 256 
100
AcDbLine
 10
392118.9
 20
-45195.3000002051
 30
0
 11
320118.9
 21
26804.6999997949
 31
0
  0
LINE
  5
3A5
100
AcDbEntity
  8
BEAM
  6
CONTINUOUS
 62
 2 
100
AcDbLine
 10
392118.899999919
 20
23421.1500002051
 30
0
 11
392118.899999225
 21
26804.6999997949
 31
0
  0
TEXT
5
3A6
100
AcDbEntity
8
TEXT
62
 0 
100
AcDbText
 10
248118.899999572
 20
25112.9249704651
 30
0
40
144000
1
B 20X65
50
90
 72
4
 11
248118.899999572
 21
25112.9249704651
 31
0
210
0
220
0
230
1
100
AcDbText
  0
LINE
  5
3A7
100
AcDbEntity
  8
BEAM
  6
CONTINUOUS
 62
 256 
100
AcDbLine
 10
475698.726206901
 20
43896.4608495485
 30
0
 11
345300.289543448
 21
-17195.6639762216
 31
0
  0
LINE
  5
3A8
100
AcDbEntity
  8
BEAM
  6
CONTINUOUS
 62
 256 
100
AcDbLine
 10
379953.445462289
 20
78549.6167683899
 30
0
 11
475698.726206901
 21
43896.4608495485
 31
0
  0
LINE
  5
3A9
100
AcDbEntity
  8
BEAM
  6
CONTINUOUS
 62
 256 
100
AcDbLine
 10
379953.445462289
 20
78549.6167683899
 30
0
 11
345300.289543448
 21
-17195.6639762216
 31
0
  0
LINE
  5
3AA
100
AcDbEntity
  8
BEAM
  6
CONTINUOUS
 62
 256 
100
AcDbLine
 10
469222.010456552
 20
57720.7239762216
 30
0
 11
338823.573793099
 21
-3371.40084954852
 31
0
  0
LINE
  5
3AB
100
AcDbEntity
  8
BEAM
  6
CONTINUOUS
 62
 256 
100
AcDbLine
 10
434568.854537711
 20
-38024.5567683899
 30
0
 11
469222.010456552
 21
57720.7239762216
 31
0
  0
LINE
  5
3AC
100
AcDbEntity
  8
BEAM
  6
CONTINUOUS
 62
 256 
100
AcDbLine
 10
434568.854537711
 20
-38024.5567683899
 30
0
 11
338823.573793099
 21
-3371.40084954852
 31
0
  0
LINE
  5
3AD
100
AcDbEntity
  8
BEAM
  6
CONTINUOUS
 62
 2 
100
AcDbLine
 10
404022.792124806
 20
27174.6615633275
 30
0
 11
410499.50787311
 21
13350.3984356965
 31
0
  0
TEXT
5
3AE
100
AcDbEntity
8
TEXT
62
 0 
100
AcDbText
 10
537659.586671446
 20
81354.6548059969
 30
0
40
144000
1
Wall Load 20
50
-64.8967450633804
 72
4
 11
537659.586671446
 21
81354.6548059969
 31
0
210
0
220
0
230
1
100
AcDbText
  0
LINE
  5
3AF
100
AcDbEntity
  8
BEAM
  6
CONTINUOUS
 62
 256 
100
AcDbLine
 10
385606.756009356
 20
-52052.6808012383
 30
0
 11
385675.843957497
 21
91947.3026253421
 31
0
  0
LINE
  5
3B0
100
AcDbEntity
  8
BEAM
  6
CONTINUOUS
 62
 256 
100
AcDbLine
 10
457641.291696717
 20
19912.7669379817
 30
0
 11
385606.756009356
 21
-52052.6808012383
 31
0
  0
LINE
  5
3B1
100
AcDbEntity
  8
BEAM
  6
CONTINUOUS
 62
 256 
100
AcDbLine
 10
457641.291696717
 20
19912.7669379817
 30
0
 11
385675.843957497
 21
91947.3026253421
 31
0
  0
LINE
  5
3B2
100
AcDbEntity
  8
BEAM
  6
CONTINUOUS
 62
 256 
100
AcDbLine
 10
406745.356042503
 20
-52062.822625342
 30
0
 11
406814.443990644
 21
91937.1608012383
 31
0
  0
LINE
  5
3B3
100
AcDbEntity
  8
BEAM
  6
CONTINUOUS
 62
 256 
100
AcDbLine
 10
334779.908303283
 20
19971.7130620183
 30
0
 11
406745.356042503
 21
-52062.822625342
 31
0
  0
LINE
  5
3B4
100
AcDbEntity
  8
BEAM
  6
CONTINUOUS
 62
 256 
100
AcDbLine
 10
334779.908303283
 20
19971.7130620183
 30
0
 11
406814.443990644
 21
91937.1608012383
 31
0
  0
LINE
  5
3B5
100
AcDbEntity
  8
BEAM
  6
CONTINUOUS
 62
 2 
100
AcDbLine
 10
385641.299983427
 20
19947.3109120518
 30
0
 11
406779.900016573
 21
19937.1690879468
 31
0
  0
TEXT
5
3B6
100
AcDbEntity
8
TEXT
62
 0 
100
AcDbText
 10
396279.687948149
 20
163942.22342658
 30
0
40
144000
1
Wall Load 20
50
-.0274892221911503
 72
4
 11
396279.687948149
 21
163942.22342658
 31
0
210
0
220
0
230
1
100
AcDbText
  0
LINE
  5
3B7
100
AcDbEntity
  8
BEAM
  6
CONTINUOUS
 62
 256 
100
AcDbLine
 10
474366.860055042
 20
20049.2357610754
 30
0
 11
330366.876161849
 21
20117.344206711
 31
0
  0
LINE
  5
3B8
100
AcDbEntity
  8
BEAM
  6
CONTINUOUS
 62
 256 
100
AcDbLine
 10
402400.922331263
 20
92083.2819304893
 30
0
 11
474366.860055042
 21
20049.2357610754
 31
0
  0
LINE
  5
3B9
100
AcDbEntity
  8
BEAM
  6
CONTINUOUS
 62
 256 
100
AcDbLine
 10
402400.922331263
 20
92083.2819304893
 30
0
 11
330366.876161849
 21
20117.344206711
 31
0
  0
LINE
  5
3BA
100
AcDbEntity
  8
BEAM
  6
CONTINUOUS
 62
 256 
100
AcDbLine
 10
474368.323838151
 20
23144.075793289
 30
0
 11
330368.339944958
 21
23212.1842389246
 31
0
  0
LINE
  5
3BB
100
AcDbEntity
  8
BEAM
  6
CONTINUOUS
 62
 256 
100
AcDbLine
 10
402334.277668737
 20
-48821.8619304893
 30
0
 11
474368.323838151
 21
23144.075793289
 31
0
  0
LINE
  5
3BC
100
AcDbEntity
  8
BEAM
  6
CONTINUOUS
 62
 256 
100
AcDbLine
 10
402334.277668737
 20
-48821.8619304893
 30
0
 11
330368.339944958
 21
23212.1842389246
 31
0
  0
LINE
  5
3BD
100
AcDbEntity
  8
BEAM
  6
CONTINUOUS
 62
 2 
100
AcDbLine
 10
402366.868108416
 20
20083.2899838932
 30
0
 11
402368.33189089
 21
23178.1300161071
 31
0
  0
TEXT
5
3BE
100
AcDbEntity
8
TEXT
62
 0 
100
AcDbText
 10
258367.616106447
 20
21698.8184161098
 30
0
40
144000
1
Wall Load 20
50
89.9729005095166
 72
4
 11
258367.616106447
 21
21698.8184161098
 31
0
210
0
220
0
230
1
100
AcDbText
  0
LINE
  5
3BF
100
AcDbEntity
  8
BEAM
  6
CONTINUOUS
 62
 256 
100
AcDbLine
 10
398262.9
 20
-50369.29
 30
0
 11
398262.9
 21
93630.71
 31
0
  0
LINE
  5
3C0
100
AcDbEntity
  8
BEAM
  6
CONTINUOUS
 62
 256 
100
AcDbLine
 10
470262.9
 20
21630.71
 30
0
 11
398262.9
 21
-50369.29
 31
0
  0
LINE
  5
3C1
100
AcDbEntity
  8
BEAM
  6
CONTINUOUS
 62
 256 
100
AcDbLine
 10
470262.9
 20
21630.71
 30
0
 11
398262.9
 21
93630.71
 31
0
  0
LINE
  5
3C2
100
AcDbEntity
  8
BEAM
  6
CONTINUOUS
 62
 256 
100
AcDbLine
 10
402223.6
 20
-50369.29
 30
0
 11
402223.6
 21
93630.71
 31
0
  0
LINE
  5
3C3
100
AcDbEntity
  8
BEAM
  6
CONTINUOUS
 62
 256 
100
AcDbLine
 10
330223.6
 20
21630.71
 30
0
 11
402223.6
 21
-50369.29
 31
0
  0
LINE
  5
3C4
100
AcDbEntity
  8
BEAM
  6
CONTINUOUS
 62
 256 
100
AcDbLine
 10
330223.6
 20
21630.71
 30
0
 11
402223.6
 21
93630.71
 31
0
  0
LINE
  5
3C5
100
AcDbEntity
  8
BEAM
  6
CONTINUOUS
 62
 2 
100
AcDbLine
 10
398262.9
 20
21630.71
 30
0
 11
402223.6
 21
21630.71
 31
0
  0
TEXT
5
3C6
100
AcDbEntity
8
TEXT
62
 0 
100
AcDbText
 10
400243.25
 20
165630.71
 30
0
40
144000
1
Wall Load 20
50
0
 72
4
 11
400243.25
 21
165630.71
 31
0
210
0
220
0
230
1
100
AcDbText
  0
LINE
  5
3C7
100
AcDbEntity
  8
BEAM
  6
CONTINUOUS
 62
 256 
100
AcDbLine
 10
471118.160191233
 20
20050.7065377372
 30
0
 11
327118.176382552
 21
20118.9934298802
 31
0
  0
LINE
  5
3C8
100
AcDbEntity
  8
BEAM
  6
CONTINUOUS
 62
 256 
100
AcDbLine
 10
399152.311732964
 20
92084.8418881491
 30
0
 11
471118.160191233
 21
20050.7065377372
 31
0
  0
LINE
  5
3C9
100
AcDbEntity
  8
BEAM
  6
CONTINUOUS
 62
 256 
100
AcDbLine
 10
399152.311732964
 20
92084.8418881491
 30
0
 11
327118.176382552
 21
20118.9934298802
 31
0
  0
LINE
  5
3CA
100
AcDbEntity
  8
BEAM
  6
CONTINUOUS
 62
 256 
100
AcDbLine
 10
471118.823617448
 20
21449.7065701198
 30
0
 11
327118.839808767
 21
21517.9934622628
 31
0
  0
LINE
  5
3CB
100
AcDbEntity
  8
BEAM
  6
CONTINUOUS
 62
 256 
100
AcDbLine
 10
399084.688267036
 20
-50516.1418881491
 30
0
 11
471118.823617448
 21
21449.7065701198
 31
0
  0
LINE
  5
3CC
100
AcDbEntity
  8
BEAM
  6
CONTINUOUS
 62
 256 
100
AcDbLine
 10
399084.688267036
 20
-50516.1418881491
 30
0
 11
327118.839808767
 21
21517.9934622628
 31
0
  0
LINE
  5
3CD
100
AcDbEntity
  8
BEAM
  6
CONTINUOUS
 62
 2 
100
AcDbLine
 10
399118.168286863
 20
20084.8499838087
 30
0
 11
399118.831712792
 21
21483.8500161915
 31
0
  0
TEXT
5
3CE
100
AcDbEntity
8
TEXT
62
 0 
100
AcDbText
 10
255118.516191132
 20
20852.6368626171
 30
0
40
144000
1
Wall Load 20
50
89.9728295078993
 72
4
 11
255118.516191132
 21
20852.6368626171
 31
0
210
0
220
0
230
1
100
AcDbText
  0
LINE
  5
3CF
100
AcDbEntity
  8
BEAM
  6
CONTINUOUS
 62
 256 
100
AcDbLine
 10
402511.4
 20
-50887.85
 30
0
 11
402511.4
 21
93112.15
 31
0
  0
LINE
  5
3D0
100
AcDbEntity
  8
BEAM
  6
CONTINUOUS
 62
 256 
100
AcDbLine
 10
474511.4
 20
21112.15
 30
0
 11
402511.4
 21
-50887.85
 31
0
  0
LINE
  5
3D1
100
AcDbEntity
  8
BEAM
  6
CONTINUOUS
 62
 256 
100
AcDbLine
 10
474511.4
 20
21112.15
 30
0
 11
402511.4
 21
93112.15
 31
0
  0
LINE
  5
3D2
100
AcDbEntity
  8
BEAM
  6
CONTINUOUS
 62
 256 
100
AcDbLine
 10
404697.6
 20
-50887.85
 30
0
 11
404697.6
 21
93112.15
 31
0
  0
LINE
  5
3D3
100
AcDbEntity
  8
BEAM
  6
CONTINUOUS
 62
 256 
100
AcDbLine
 10
332697.6
 20
21112.15
 30
0
 11
404697.6
 21
-50887.85
 31
0
  0
LINE
  5
3D4
100
AcDbEntity
  8
BEAM
  6
CONTINUOUS
 62
 256 
100
AcDbLine
 10
332697.6
 20
21112.15
 30
0
 11
404697.6
 21
93112.15
 31
0
  0
LINE
  5
3D5
100
AcDbEntity
  8
BEAM
  6
CONTINUOUS
 62
 2 
100
AcDbLine
 10
402511.4
 20
21112.15
 30
0
 11
404697.6
 21
21112.15
 31
0
  0
TEXT
5
3D6
100
AcDbEntity
8
TEXT
62
 0 
100
AcDbText
 10
403604.5
 20
165112.15
 30
0
40
144000
1
Wall Load 20
50
0
 72
4
 11
403604.5
 21
165112.15
 31
0
210
0
220
0
230
1
100
AcDbText
  0
LINE
  5
3D7
100
AcDbEntity
  8
BEAM
  6
CONTINUOUS
 62
 256 
100
AcDbLine
 10
476841.154796833
 20
20051.4369004122
 30
0
 11
332841.167855513
 21
20112.7630734704
 31
0
  0
LINE
  5
3D8
100
AcDbEntity
  8
BEAM
  6
CONTINUOUS
 62
 256 
100
AcDbLine
 10
404871.824412702
 20
92082.0934576016
 30
0
 11
476841.154796833
 21
20051.4369004122
 31
0
  0
LINE
  5
3D9
100
AcDbEntity
  8
BEAM
  6
CONTINUOUS
 62
 256 
100
AcDbLine
 10
404871.824412702
 20
92082.0934576016
 30
0
 11
332841.167855513
 21
20112.7630734704
 31
0
  0
LINE
  5
3DA
100
AcDbEntity
  8
BEAM
  6
CONTINUOUS
 62
 256 
100
AcDbLine
 10
476841.532144487
 20
20937.4869265296
 30
0
 11
332841.545203167
 21
20998.8130995878
 31
0
  0
LINE
  5
3DB
100
AcDbEntity
  8
BEAM
  6
CONTINUOUS
 62
 256 
100
AcDbLine
 10
404810.875587298
 20
-51031.8434576016
 30
0
 11
476841.532144487
 21
20937.4869265296
 31
0
  0
LINE
  5
3DC
100
AcDbEntity
  8
BEAM
  6
CONTINUOUS
 62
 256 
100
AcDbLine
 10
404810.875587298
 20
-51031.8434576016
 30
0
 11
332841.545203167
 21
20998.8130995878
 31
0
  0
LINE
  5
3DD
100
AcDbEntity
  8
BEAM
  6
CONTINUOUS
 62
 2 
100
AcDbLine
 10
404841.161326143
 20
20082.0999869413
 30
0
 11
404841.538673616
 21
20968.1500130588
 31
0
  0
TEXT
5
3DE
100
AcDbEntity
8
TEXT
62
 0 
100
AcDbText
 10
260841.363058546
 20
20586.4511435314
 30
0
40
144000
1
Wall Load 20
50
89.9755990903046
 72
4
 11
260841.363058546
 21
20586.4511435314
 31
0
210
0
220
0
230
1
100
AcDbText
  0
LINE
  5
3DF
100
AcDbEntity
  8
BEAM
  6
CONTINUOUS
 62
 256 
100
AcDbLine
 10
403512.9
 20
-58780
 30
0
 11
403512.9
 21
85220
 31
0
  0
LINE
  5
3E0
100
AcDbEntity
  8
BEAM
  6
CONTINUOUS
 62
 256 
100
AcDbLine
 10
475512.9
 20
13220
 30
0
 11
403512.9
 21
-58780
 31
0
  0
LINE
  5
3E1
100
AcDbEntity
  8
BEAM
  6
CONTINUOUS
 62
 256 
100
AcDbLine
 10
475512.9
 20
13220
 30
0
 11
403512.9
 21
85220
 31
0
  0
LINE
  5
3E2
100
AcDbEntity
  8
BEAM
  6
CONTINUOUS
 62
 256 
100
AcDbLine
 10
410416.6
 20
-58780
 30
0
 11
410416.6
 21
85220
 31
0
  0
LINE
  5
3E3
100
AcDbEntity
  8
BEAM
  6
CONTINUOUS
 62
 256 
100
AcDbLine
 10
338416.6
 20
13220
 30
0
 11
410416.6
 21
-58780
 31
0
  0
LINE
  5
3E4
100
AcDbEntity
  8
BEAM
  6
CONTINUOUS
 62
 256 
100
AcDbLine
 10
338416.6
 20
13220
 30
0
 11
410416.6
 21
85220
 31
0
  0
LINE
  5
3E5
100
AcDbEntity
  8
BEAM
  6
CONTINUOUS
 62
 2 
100
AcDbLine
 10
403512.9
 20
13220
 30
0
 11
410416.6
 21
13220
 31
0
  0
TEXT
5
3E6
100
AcDbEntity
8
TEXT
62
 0 
100
AcDbText
 10
406964.75
 20
157220
 30
0
40
144000
1
Wall Load 20
50
0
 72
4
 11
406964.75
 21
157220
 31
0
210
0
220
0
230
1
100
AcDbText
  0
LINE
  5
3E7
100
AcDbEntity
  8
BEAM
  6
CONTINUOUS
 62
 256 
100
AcDbLine
 10
478923.9
 20
13364
 30
0
 11
334923.9
 21
13364
 31
0
  0
LINE
  5
3E8
100
AcDbEntity
  8
BEAM
  6
CONTINUOUS
 62
 256 
100
AcDbLine
 10
406923.9
 20
85364
 30
0
 11
478923.9
 21
13364
 31
0
  0
LINE
  5
3E9
100
AcDbEntity
  8
BEAM
  6
CONTINUOUS
 62
 256 
100
AcDbLine
 10
406923.9
 20
85364
 30
0
 11
334923.9
 21
13364
 31
0
  0
LINE
  5
3EA
100
AcDbEntity
  8
BEAM
  6
CONTINUOUS
 62
 256 
100
AcDbLine
 10
478923.9
 20
19793.1
 30
0
 11
334923.9
 21
19793.1
 31
0
  0
LINE
  5
3EB
100
AcDbEntity
  8
BEAM
  6
CONTINUOUS
 62
 256 
100
AcDbLine
 10
406923.9
 20
-52206.9
 30
0
 11
478923.9
 21
19793.1
 31
0
  0
LINE
  5
3EC
100
AcDbEntity
  8
BEAM
  6
CONTINUOUS
 62
 256 
100
AcDbLine
 10
406923.9
 20
-52206.9
 30
0
 11
334923.9
 21
19793.1
 31
0
  0
LINE
  5
3ED
100
AcDbEntity
  8
BEAM
  6
CONTINUOUS
 62
 2 
100
AcDbLine
 10
406923.899999971
 20
13364
 30
0
 11
406923.899998652
 21
19793.1
 31
0
  0
TEXT
5
3EE
100
AcDbEntity
8
TEXT
62
 0 
100
AcDbText
 10
262923.899999311
 20
16578.5499704651
 30
0
40
144000
1
Wall Load 20
50
90
 72
4
 11
262923.899999311
 21
16578.5499704651
 31
0
210
0
220
0
230
1
100
AcDbText
  0
LINE
  5
3EF
100
AcDbEntity
  8
BEAM
  6
CONTINUOUS
 62
 256 
100
AcDbLine
 10
470018.9
 20
14007.51
 30
0
 11
326018.9
 21
14007.51
 31
0
  0
LINE
  5
3F0
100
AcDbEntity
  8
BEAM
  6
CONTINUOUS
 62
 256 
100
AcDbLine
 10
398018.9
 20
86007.51
 30
0
 11
470018.9
 21
14007.51
 31
0
  0
LINE
  5
3F1
100
AcDbEntity
  8
BEAM
  6
CONTINUOUS
 62
 256 
100
AcDbLine
 10
398018.9
 20
86007.51
 30
0
 11
326018.9
 21
14007.51
 31
0
  0
LINE
  5
3F2
100
AcDbEntity
  8
BEAM
  6
CONTINUOUS
 62
 256 
100
AcDbLine
 10
470018.9
 20
19393.15
 30
0
 11
326018.9
 21
19393.15
 31
0
  0
LINE
  5
3F3
100
AcDbEntity
  8
BEAM
  6
CONTINUOUS
 62
 256 
100
AcDbLine
 10
398018.9
 20
-52606.85
 30
0
 11
470018.9
 21
19393.15
 31
0
  0
LINE
  5
3F4
100
AcDbEntity
  8
BEAM
  6
CONTINUOUS
 62
 256 
100
AcDbLine
 10
398018.9
 20
-52606.85
 30
0
 11
326018.9
 21
19393.15
 31
0
  0
LINE
  5
3F5
100
AcDbEntity
  8
BEAM
  6
CONTINUOUS
 62
 2 
100
AcDbLine
 10
398018.89999997
 20
14007.51
 30
0
 11
398018.899998866
 21
19393.15
 31
0
  0
TEXT
5
3F6
100
AcDbEntity
8
TEXT
62
 0 
100
AcDbText
 10
254018.899999418
 20
16700.3299704651
 30
0
40
144000
1
Wall Load 20
50
90
 72
4
 11
254018.899999418
 21
16700.3299704651
 31
0
210
0
220
0
230
1
100
AcDbText
  0
LINE
  5
3F7
100
AcDbEntity
  8
BEAM
  6
CONTINUOUS
 62
 256 
100
AcDbLine
 10
463993.9
 20
14007.51
 30
0
 11
319993.9
 21
14007.51
 31
0
  0
LINE
  5
3F8
100
AcDbEntity
  8
BEAM
  6
CONTINUOUS
 62
 256 
100
AcDbLine
 10
391993.9
 20
86007.51
 30
0
 11
463993.9
 21
14007.51
 31
0
  0
LINE
  5
3F9
100
AcDbEntity
  8
BEAM
  6
CONTINUOUS
 62
 256 
100
AcDbLine
 10
391993.9
 20
86007.51
 30
0
 11
319993.9
 21
14007.51
 31
0
  0
LINE
  5
3FA
100
AcDbEntity
  8
BEAM
  6
CONTINUOUS
 62
 256 
100
AcDbLine
 10
463993.9
 20
19304.79
 30
0
 11
319993.9
 21
19304.79
 31
0
  0
LINE
  5
3FB
100
AcDbEntity
  8
BEAM
  6
CONTINUOUS
 62
 256 
100
AcDbLine
 10
391993.9
 20
-52695.21
 30
0
 11
463993.9
 21
19304.79
 31
0
  0
LINE
  5
3FC
100
AcDbEntity
  8
BEAM
  6
CONTINUOUS
 62
 256 
100
AcDbLine
 10
391993.9
 20
-52695.21
 30
0
 11
319993.9
 21
19304.79
 31
0
  0
LINE
  5
3FD
100
AcDbEntity
  8
BEAM
  6
CONTINUOUS
 62
 2 
100
AcDbLine
 10
391993.899999971
 20
14007.51
 30
0
 11
391993.899998884
 21
19304.79
 31
0
  0
TEXT
5
3FE
100
AcDbEntity
8
TEXT
62
 0 
100
AcDbText
 10
247993.899999427
 20
16656.1499704651
 30
0
40
144000
1
Wall Load 20
50
90
 72
4
 11
247993.899999427
 21
16656.1499704651
 31
0
210
0
220
0
230
1
100
AcDbText
  0
LINE
  5
3FF
100
AcDbEntity
  8
BEAM
  6
CONTINUOUS
 62
 256 
100
AcDbLine
 10
457497.3
 20
13364
 30
0
 11
313497.3
 21
13364
 31
0
  0
LINE
  5
400
100
AcDbEntity
  8
BEAM
  6
CONTINUOUS
 62
 256 
100
AcDbLine
 10
385497.3
 20
85364
 30
0
 11
457497.3
 21
13364
 31
0
  0
LINE
  5
401
100
AcDbEntity
  8
BEAM
  6
CONTINUOUS
 62
 256 
100
AcDbLine
 10
385497.3
 20
85364
 30
0
 11
313497.3
 21
13364
 31
0
  0
LINE
  5
402
100
AcDbEntity
  8
BEAM
  6
CONTINUOUS
 62
 256 
100
AcDbLine
 10
457497.3
 20
19803.38
 30
0
 11
313497.3
 21
19803.38
 31
0
  0
LINE
  5
403
100
AcDbEntity
  8
BEAM
  6
CONTINUOUS
 62
 256 
100
AcDbLine
 10
385497.3
 20
-52196.62
 30
0
 11
457497.3
 21
19803.38
 31
0
  0
LINE
  5
404
100
AcDbEntity
  8
BEAM
  6
CONTINUOUS
 62
 256 
100
AcDbLine
 10
385497.3
 20
-52196.62
 30
0
 11
313497.3
 21
19803.38
 31
0
  0
LINE
  5
405
100
AcDbEntity
  8
BEAM
  6
CONTINUOUS
 62
 2 
100
AcDbLine
 10
385497.29999997
 20
13364
 30
0
 11
385497.29999865
 21
19803.38
 31
0
  0
TEXT
5
406
100
AcDbEntity
8
TEXT
62
 0 
100
AcDbText
 10
241497.29999931
 20
16583.6899704651
 30
0
40
144000
1
Wall Load 20
50
90
 72
4
 11
241497.29999931
 21
16583.6899704651
 31
0
210
0
220
0
230
1
100
AcDbText
  0
LINE
  5
407
100
AcDbEntity
  8
BEAM
  6
CONTINUOUS
 62
 256 
100
AcDbLine
 10
385641.3
 20
-58780
 30
0
 11
385641.3
 21
85220
 31
0
  0
LINE
  5
408
100
AcDbEntity
  8
BEAM
  6
CONTINUOUS
 62
 256 
100
AcDbLine
 10
457641.3
 20
13220
 30
0
 11
385641.3
 21
-58780
 31
0
  0
LINE
  5
409
100
AcDbEntity
  8
BEAM
  6
CONTINUOUS
 62
 256 
100
AcDbLine
 10
457641.3
 20
13220
 30
0
 11
385641.3
 21
85220
 31
0
  0
LINE
  5
40A
100
AcDbEntity
  8
BEAM
  6
CONTINUOUS
 62
 256 
100
AcDbLine
 10
386224.9
 20
-58780
 30
0
 11
386224.9
 21
85220
 31
0
  0
LINE
  5
40B
100
AcDbEntity
  8
BEAM
  6
CONTINUOUS
 62
 256 
100
AcDbLine
 10
314224.9
 20
13220
 30
0
 11
386224.9
 21
-58780
 31
0
  0
LINE
  5
40C
100
AcDbEntity
  8
BEAM
  6
CONTINUOUS
 62
 256 
100
AcDbLine
 10
314224.9
 20
13220
 30
0
 11
386224.9
 21
85220
 31
0
  0
LINE
  5
40D
100
AcDbEntity
  8
BEAM
  6
CONTINUOUS
 62
 2 
100
AcDbLine
 10
385641.3
 20
13220
 30
0
 11
386224.9
 21
13220
 31
0
  0
TEXT
5
40E
100
AcDbEntity
8
TEXT
62
 0 
100
AcDbText
 10
385933.1
 20
157220
 30
0
40
144000
1
Wall Load 20
50
0
 72
4
 11
385933.1
 21
157220
 31
0
210
0
220
0
230
1
100
AcDbText
  0
LINE
  5
40F
100
AcDbEntity
  8
BEAM
  6
CONTINUOUS
 62
 256 
100
AcDbLine
 10
457497.3
 20
20091.38
 30
0
 11
313497.3
 21
20091.38
 31
0
  0
LINE
  5
410
100
AcDbEntity
  8
BEAM
  6
CONTINUOUS
 62
 256 
100
AcDbLine
 10
385497.3
 20
92091.38
 30
0
 11
457497.3
 21
20091.38
 31
0
  0
LINE
  5
411
100
AcDbEntity
  8
BEAM
  6
CONTINUOUS
 62
 256 
100
AcDbLine
 10
385497.3
 20
92091.38
 30
0
 11
313497.3
 21
20091.38
 31
0
  0
LINE
  5
412
100
AcDbEntity
  8
BEAM
  6
CONTINUOUS
 62
 256 
100
AcDbLine
 10
457497.3
 20
27304.71
 30
0
 11
313497.3
 21
27304.71
 31
0
  0
LINE
  5
413
100
AcDbEntity
  8
BEAM
  6
CONTINUOUS
 62
 256 
100
AcDbLine
 10
385497.3
 20
-44695.29
 30
0
 11
457497.3
 21
27304.71
 31
0
  0
LINE
  5
414
100
AcDbEntity
  8
BEAM
  6
CONTINUOUS
 62
 256 
100
AcDbLine
 10
385497.3
 20
-44695.29
 30
0
 11
313497.3
 21
27304.71
 31
0
  0
LINE
  5
415
100
AcDbEntity
  8
BEAM
  6
CONTINUOUS
 62
 2 
100
AcDbLine
 10
385497.29999997
 20
20091.38
 30
0
 11
385497.299998491
 21
27304.71
 31
0
  0
TEXT
5
416
100
AcDbEntity
8
TEXT
62
 0 
100
AcDbText
 10
241497.299999231
 20
23698.0449704651
 30
0
40
144000
1
Wall Load 20
50
90
 72
4
 11
241497.299999231
 21
23698.0449704651
 31
0
210
0
220
0
230
1
100
AcDbText
  0
LINE
  5
417
100
AcDbEntity
  8
BEAM
  6
CONTINUOUS
 62
 256 
100
AcDbLine
 10
459768.9
 20
21731.31
 30
0
 11
315768.9
 21
21731.31
 31
0
  0
LINE
  5
418
100
AcDbEntity
  8
BEAM
  6
CONTINUOUS
 62
 256 
100
AcDbLine
 10
387768.9
 20
93731.31
 30
0
 11
459768.9
 21
21731.31
 31
0
  0
LINE
  5
419
100
AcDbEntity
  8
BEAM
  6
CONTINUOUS
 62
 256 
100
AcDbLine
 10
387768.9
 20
93731.31
 30
0
 11
315768.9
 21
21731.31
 31
0
  0
LINE
  5
41A
100
AcDbEntity
  8
BEAM
  6
CONTINUOUS
 62
 256 
100
AcDbLine
 10
459768.9
 20
23828.15
 30
0
 11
315768.9
 21
23828.15
 31
0
  0
LINE
  5
41B
100
AcDbEntity
  8
BEAM
  6
CONTINUOUS
 62
 256 
100
AcDbLine
 10
387768.9
 20
-48171.85
 30
0
 11
459768.9
 21
23828.15
 31
0
  0
LINE
  5
41C
100
AcDbEntity
  8
BEAM
  6
CONTINUOUS
 62
 256 
100
AcDbLine
 10
387768.9
 20
-48171.85
 30
0
 11
315768.9
 21
23828.15
 31
0
  0
LINE
  5
41D
100
AcDbEntity
  8
BEAM
  6
CONTINUOUS
 62
 2 
100
AcDbLine
 10
387768.89999997
 20
21731.31
 30
0
 11
387768.89999954
 21
23828.15
 31
0
  0
TEXT
5
41E
100
AcDbEntity
8
TEXT
62
 0 
100
AcDbText
 10
243768.899999755
 20
22779.7299704651
 30
0
40
144000
1
Wall Load 20
50
90
 72
4
 11
243768.899999755
 21
22779.7299704651
 31
0
210
0
220
0
230
1
100
AcDbText
  0
LINE
  5
41F
100
AcDbEntity
  8
BEAM
  6
CONTINUOUS
 62
 256 
100
AcDbLine
 10
462468.9
 20
21731.31
 30
0
 11
318468.9
 21
21731.31
 31
0
  0
LINE
  5
420
100
AcDbEntity
  8
BEAM
  6
CONTINUOUS
 62
 256 
100
AcDbLine
 10
390468.9
 20
93731.31
 30
0
 11
462468.9
 21
21731.31
 31
0
  0
LINE
  5
421
100
AcDbEntity
  8
BEAM
  6
CONTINUOUS
 62
 256 
100
AcDbLine
 10
390468.9
 20
93731.31
 30
0
 11
318468.9
 21
21731.31
 31
0
  0
LINE
  5
422
100
AcDbEntity
  8
BEAM
  6
CONTINUOUS
 62
 256 
100
AcDbLine
 10
462468.9
 20
23828.15
 30
0
 11
318468.9
 21
23828.15
 31
0
  0
LINE
  5
423
100
AcDbEntity
  8
BEAM
  6
CONTINUOUS
 62
 256 
100
AcDbLine
 10
390468.9
 20
-48171.85
 30
0
 11
462468.9
 21
23828.15
 31
0
  0
LINE
  5
424
100
AcDbEntity
  8
BEAM
  6
CONTINUOUS
 62
 256 
100
AcDbLine
 10
390468.9
 20
-48171.85
 30
0
 11
318468.9
 21
23828.15
 31
0
  0
LINE
  5
425
100
AcDbEntity
  8
BEAM
  6
CONTINUOUS
 62
 2 
100
AcDbLine
 10
390468.899999971
 20
21731.31
 30
0
 11
390468.89999954
 21
23828.15
 31
0
  0
TEXT
5
426
100
AcDbEntity
8
TEXT
62
 0 
100
AcDbText
 10
246468.899999755
 20
22779.7299704651
 30
0
40
144000
1
Wall Load 20
50
90
 72
4
 11
246468.899999755
 21
22779.7299704651
 31
0
210
0
220
0
230
1
100
AcDbText
  0
LINE
  5
427
100
AcDbEntity
  8
BEAM
  6
CONTINUOUS
 62
 256 
100
AcDbLine
 10
461118.9
 20
22373.82
 30
0
 11
317118.9
 21
22373.82
 31
0
  0
LINE
  5
428
100
AcDbEntity
  8
BEAM
  6
CONTINUOUS
 62
 256 
100
AcDbLine
 10
389118.9
 20
94373.82
 30
0
 11
461118.9
 21
22373.82
 31
0
  0
LINE
  5
429
100
AcDbEntity
  8
BEAM
  6
CONTINUOUS
 62
 256 
100
AcDbLine
 10
389118.9
 20
94373.82
 30
0
 11
317118.9
 21
22373.82
 31
0
  0
LINE
  5
42A
100
AcDbEntity
  8
BEAM
  6
CONTINUOUS
 62
 256 
100
AcDbLine
 10
461118.9
 20
23828.15
 30
0
 11
317118.9
 21
23828.15
 31
0
  0
LINE
  5
42B
100
AcDbEntity
  8
BEAM
  6
CONTINUOUS
 62
 256 
100
AcDbLine
 10
389118.9
 20
-48171.85
 30
0
 11
461118.9
 21
23828.15
 31
0
  0
LINE
  5
42C
100
AcDbEntity
  8
BEAM
  6
CONTINUOUS
 62
 256 
100
AcDbLine
 10
389118.9
 20
-48171.85
 30
0
 11
317118.9
 21
23828.15
 31
0
  0
LINE
  5
42D
100
AcDbEntity
  8
BEAM
  6
CONTINUOUS
 62
 2 
100
AcDbLine
 10
389118.899999971
 20
22373.82
 30
0
 11
389118.899999672
 21
23828.15
 31
0
  0
TEXT
5
42E
100
AcDbEntity
8
TEXT
62
 0 
100
AcDbText
 10
245118.899999821
 20
23100.9849704651
 30
0
40
144000
1
Wall Load 20
50
90
 72
4
 11
245118.899999821
 21
23100.9849704651
 31
0
210
0
220
0
230
1
100
AcDbText
  0
LINE
  5
42F
100
AcDbEntity
  8
BEAM
  6
CONTINUOUS
 62
 256 
100
AcDbLine
 10
388346.22287737
 20
-49776.1393721086
 30
0
 11
387479.571906722
 21
94221.2526740499
 31
0
  0
LINE
  5
430
100
AcDbEntity
  8
BEAM
  6
CONTINUOUS
 62
 256 
100
AcDbLine
 10
459911.593415125
 20
22655.8821362947
 30
0
 11
388346.22287737
 21
-49776.1393721086
 31
0
  0
LINE
  5
431
100
AcDbEntity
  8
BEAM
  6
CONTINUOUS
 62
 256 
100
AcDbLine
 10
459911.593415125
 20
22655.8821362947
 30
0
 11
387479.571906722
 21
94221.2526740499
 31
0
  0
LINE
  5
432
100
AcDbEntity
  8
BEAM
  6
CONTINUOUS
 62
 256 
100
AcDbLine
 10
390758.228093278
 20
-49761.6226740499
 30
0
 11
389891.57712263
 21
94235.7693721086
 31
0
  0
LINE
  5
433
100
AcDbEntity
  8
BEAM
  6
CONTINUOUS
 62
 256 
100
AcDbLine
 10
318326.206584875
 20
21803.7478637053
 30
0
 11
390758.228093278
 21
-49761.6226740499
 31
0
  0
LINE
  5
434
100
AcDbEntity
  8
BEAM
  6
CONTINUOUS
 62
 256 
100
AcDbLine
 10
318326.206584875
 20
21803.7478637053
 30
0
 11
389891.57712263
 21
94235.7693721086
 31
0
  0
LINE
  5
435
100
AcDbEntity
  8
BEAM
  6
CONTINUOUS
 62
 2 
100
AcDbLine
 10
387912.897392046
 20
22222.5566509708
 30
0
 11
390324.902607954
 21
22237.0733490314
 31
0
  0
TEXT
5
436
100
AcDbEntity
8
TEXT
62
 0 
100
AcDbText
 10
388252.249029239
 20
166227.207046159
 30
0
40
144000
1
Wall Load 20
50
.344831546511595
 72
4
 11
388252.249029239
 21
166227.207046159
 31
0
210
0
220
0
230
1
100
AcDbText
  0
LINE
  5
437
100
AcDbEntity
  8
BEAM
  6
CONTINUOUS
 62
 256 
100
AcDbLine
 10
387912.9
 20
-48027.85
 30
0
 11
387912.9
 21
95972.15
 31
0
  0
LINE
  5
438
100
AcDbEntity
  8
BEAM
  6
CONTINUOUS
 62
 256 
100
AcDbLine
 10
459912.9
 20
23972.15
 30
0
 11
387912.9
 21
-48027.85
 31
0
  0
LINE
  5
439
100
AcDbEntity
  8
BEAM
  6
CONTINUOUS
 62
 256 
100
AcDbLine
 10
459912.9
 20
23972.15
 30
0
 11
387912.9
 21
95972.15
 31
0
  0
LINE
  5
43A
100
AcDbEntity
  8
BEAM
  6
CONTINUOUS
 62
 256 
100
AcDbLine
 10
390324.9
 20
-48027.85
 30
0
 11
390324.9
 21
95972.15
 31
0
  0
LINE
  5
43B
100
AcDbEntity
  8
BEAM
  6
CONTINUOUS
 62
 256 
100
AcDbLine
 10
318324.9
 20
23972.15
 30
0
 11
390324.9
 21
-48027.85
 31
0
  0
LINE
  5
43C
100
AcDbEntity
  8
BEAM
  6
CONTINUOUS
 62
 256 
100
AcDbLine
 10
318324.9
 20
23972.15
 30
0
 11
390324.9
 21
95972.15
 31
0
  0
LINE
  5
43D
100
AcDbEntity
  8
BEAM
  6
CONTINUOUS
 62
 2 
100
AcDbLine
 10
387912.9
 20
23972.15
 30
0
 11
390324.9
 21
23972.15
 31
0
  0
TEXT
5
43E
100
AcDbEntity
8
TEXT
62
 0 
100
AcDbText
 10
389118.9
 20
167972.15
 30
0
40
144000
1
Wall Load 20
50
0
 72
4
 11
389118.9
 21
167972.15
 31
0
210
0
220
0
230
1
100
AcDbText
  0
LINE
  5
43F
100
AcDbEntity
  8
BEAM
  6
CONTINUOUS
 62
 256 
100
AcDbLine
 10
474312.242778092
 20
23350.3940240285
 30
0
 11
330312.480164862
 21
23611.8655011979
 31
0
  0
LINE
  5
440
100
AcDbEntity
  8
BEAM
  6
CONTINUOUS
 62
 256 
100
AcDbLine
 10
402443.097210062
 20
95481.0110692283
 30
0
 11
474312.242778092
 21
23350.3940240285
 31
0
  0
LINE
  5
441
100
AcDbEntity
  8
BEAM
  6
CONTINUOUS
 62
 256 
100
AcDbLine
 10
402443.097210062
 20
95481.0110692283
 30
0
 11
330312.480164862
 21
23611.8655011979
 31
0
  0
LINE
  5
442
100
AcDbEntity
  8
BEAM
  6
CONTINUOUS
 62
 256 
100
AcDbLine
 10
474319.119835138
 20
27137.7844988021
 30
0
 11
330319.357221908
 21
27399.2559759714
 31
0
  0
LINE
  5
443
100
AcDbEntity
  8
BEAM
  6
CONTINUOUS
 62
 256 
100
AcDbLine
 10
402188.502789938
 20
-44731.3610692283
 30
0
 11
474319.119835138
 21
27137.7844988021
 31
0
  0
LINE
  5
444
100
AcDbEntity
  8
BEAM
  6
CONTINUOUS
 62
 256 
100
AcDbLine
 10
402188.502789938
 20
-44731.3610692283
 30
0
 11
330319.357221908
 21
27399.2559759714
 31
0
  0
LINE
  5
445
100
AcDbEntity
  8
BEAM
  6
CONTINUOUS
 62
 2 
100
AcDbLine
 10
402312.361471448
 20
23481.1297626133
 30
0
 11
402319.238527717
 21
27268.5202373882
 31
0
  0
TEXT
5
446
100
AcDbEntity
8
TEXT
62
 0 
100
AcDbText
 10
258316.037386299
 20
25636.2964476694
 30
0
40
144000
1
Hand Rail
50
89.8959637476588
 72
4
 11
258316.037386299
 21
25636.2964476694
 31
0
210
0
220
0
230
1
100
AcDbText
  0
LINE
  5
447
100
AcDbEntity
  8
BEAM
  6
CONTINUOUS
 62
 256 
100
AcDbLine
 10
386512.9
 20
-58780
 30
0
 11
386512.9
 21
85220
 31
0
  0
LINE
  5
448
100
AcDbEntity
  8
BEAM
  6
CONTINUOUS
 62
 256 
100
AcDbLine
 10
458512.9
 20
13220
 30
0
 11
386512.9
 21
-58780
 31
0
  0
LINE
  5
449
100
AcDbEntity
  8
BEAM
  6
CONTINUOUS
 62
 256 
100
AcDbLine
 10
458512.9
 20
13220
 30
0
 11
386512.9
 21
85220
 31
0
  0
LINE
  5
44A
100
AcDbEntity
  8
BEAM
  6
CONTINUOUS
 62
 256 
100
AcDbLine
 10
403194.9
 20
-58780
 30
0
 11
403194.9
 21
85220
 31
0
  0
LINE
  5
44B
100
AcDbEntity
  8
BEAM
  6
CONTINUOUS
 62
 256 
100
AcDbLine
 10
331194.9
 20
13220
 30
0
 11
403194.9
 21
-58780
 31
0
  0
LINE
  5
44C
100
AcDbEntity
  8
BEAM
  6
CONTINUOUS
 62
 256 
100
AcDbLine
 10
331194.9
 20
13220
 30
0
 11
403194.9
 21
85220
 31
0
  0
LINE
  5
44D
100
AcDbEntity
  8
BEAM
  6
CONTINUOUS
 62
 2 
100
AcDbLine
 10
386512.9
 20
13220
 30
0
 11
403194.9
 21
13220
 31
0
  0
TEXT
5
44E
100
AcDbEntity
8
TEXT
62
 0 
100
AcDbText
 10
394853.9
 20
157220
 30
0
40
144000
1
Hand Rail
50
0
 72
4
 11
394853.9
 21
157220
 31
0
210
0
220
0
230
1
100
AcDbText
  0
LINE
  5
44F
100
AcDbEntity
  8
BEAM
  6
CONTINUOUS
 62
 256 
100
AcDbLine
 10
386287
 20
-44664.01
 30
0
 11
386287
 21
99335.99
 31
0
  0
LINE
  5
450
100
AcDbEntity
  8
BEAM
  6
CONTINUOUS
 62
 256 
100
AcDbLine
 10
458287
 20
27335.99
 30
0
 11
386287
 21
-44664.01
 31
0
  0
LINE
  5
451
100
AcDbEntity
  8
BEAM
  6
CONTINUOUS
 62
 256 
100
AcDbLine
 10
458287
 20
27335.99
 30
0
 11
386287
 21
99335.99
 31
0
  0
LINE
  5
452
100
AcDbEntity
  8
BEAM
  6
CONTINUOUS
 62
 256 
100
AcDbLine
 10
391724.9
 20
-44664.01
 30
0
 11
391724.9
 21
99335.99
 31
0
  0
LINE
  5
453
100
AcDbEntity
  8
BEAM
  6
CONTINUOUS
 62
 256 
100
AcDbLine
 10
319724.9
 20
27335.99
 30
0
 11
391724.9
 21
-44664.01
 31
0
  0
LINE
  5
454
100
AcDbEntity
  8
BEAM
  6
CONTINUOUS
 62
 256 
100
AcDbLine
 10
319724.9
 20
27335.99
 30
0
 11
391724.9
 21
99335.99
 31
0
  0
LINE
  5
455
100
AcDbEntity
  8
BEAM
  6
CONTINUOUS
 62
 2 
100
AcDbLine
 10
386287
 20
27335.99
 30
0
 11
391724.9
 21
27335.99
 31
0
  0
TEXT
5
456
100
AcDbEntity
8
TEXT
62
 0 
100
AcDbText
 10
389005.95
 20
171335.99
 30
0
40
144000
1
Hand Rail
50
0
 72
4
 11
389005.95
 21
171335.99
 31
0
210
0
220
0
230
1
100
AcDbText
  0
LINE
  5
457
100
AcDbEntity
  8
BEAM
  6
CONTINUOUS
 62
 256 
100
AcDbLine
 10
398262.9
 20
-44587.48
 30
0
 11
398262.9
 21
99412.52
 31
0
  0
LINE
  5
458
100
AcDbEntity
  8
BEAM
  6
CONTINUOUS
 62
 256 
100
AcDbLine
 10
470262.9
 20
27412.52
 30
0
 11
398262.9
 21
-44587.48
 31
0
  0
LINE
  5
459
100
AcDbEntity
  8
BEAM
  6
CONTINUOUS
 62
 256 
100
AcDbLine
 10
470262.9
 20
27412.52
 30
0
 11
398262.9
 21
99412.52
 31
0
  0
LINE
  5
45A
100
AcDbEntity
  8
BEAM
  6
CONTINUOUS
 62
 256 
100
AcDbLine
 10
403201.9
 20
-44587.48
 30
0
 11
403201.9
 21
99412.52
 31
0
  0
LINE
  5
45B
100
AcDbEntity
  8
BEAM
  6
CONTINUOUS
 62
 256 
100
AcDbLine
 10
331201.9
 20
27412.52
 30
0
 11
403201.9
 21
-44587.48
 31
0
  0
LINE
  5
45C
100
AcDbEntity
  8
BEAM
  6
CONTINUOUS
 62
 256 
100
AcDbLine
 10
331201.9
 20
27412.52
 30
0
 11
403201.9
 21
99412.52
 31
0
  0
LINE
  5
45D
100
AcDbEntity
  8
BEAM
  6
CONTINUOUS
 62
 2 
100
AcDbLine
 10
398262.9
 20
27412.52
 30
0
 11
403201.9
 21
27412.52
 31
0
  0
TEXT
5
45E
100
AcDbEntity
8
TEXT
62
 0 
100
AcDbText
 10
400732.4
 20
171412.52
 30
0
40
144000
1
Hand Rail
50
0
 72
4
 11
400732.4
 21
171412.52
 31
0
210
0
220
0
230
1
100
AcDbText
  0
LINE
  5
45F
100
AcDbEntity
  8
BEAM
  6
CONTINUOUS
 62
 256 
100
AcDbLine
 10
457497.3
 20
27592.71
 30
0
 11
313497.3
 21
27592.71
 31
0
  0
LINE
  5
460
100
AcDbEntity
  8
BEAM
  6
CONTINUOUS
 62
 256 
100
AcDbLine
 10
385497.3
 20
99592.71
 30
0
 11
457497.3
 21
27592.71
 31
0
  0
LINE
  5
461
100
AcDbEntity
  8
BEAM
  6
CONTINUOUS
 62
 256 
100
AcDbLine
 10
385497.3
 20
99592.71
 30
0
 11
313497.3
 21
27592.71
 31
0
  0
LINE
  5
462
100
AcDbEntity
  8
BEAM
  6
CONTINUOUS
 62
 256 
100
AcDbLine
 10
457497.3
 20
30179.71
 30
0
 11
313497.3
 21
30179.71
 31
0
  0
LINE
  5
463
100
AcDbEntity
  8
BEAM
  6
CONTINUOUS
 62
 256 
100
AcDbLine
 10
385497.3
 20
-41820.29
 30
0
 11
457497.3
 21
30179.71
 31
0
  0
LINE
  5
464
100
AcDbEntity
  8
BEAM
  6
CONTINUOUS
 62
 256 
100
AcDbLine
 10
385497.3
 20
-41820.29
 30
0
 11
313497.3
 21
30179.71
 31
0
  0
LINE
  5
465
100
AcDbEntity
  8
BEAM
  6
CONTINUOUS
 62
 2 
100
AcDbLine
 10
385497.29999997
 20
27592.71
 30
0
 11
385497.29999944
 21
30179.71
 31
0
  0
TEXT
5
466
100
AcDbEntity
8
TEXT
62
 0 
100
AcDbText
 10
241497.299999705
 20
28886.2099704651
 30
0
40
144000
1
Hand Rail
50
90
 72
4
 11
241497.299999705
 21
28886.2099704651
 31
0
210
0
220
0
230
1
100
AcDbText
  0
LINE
  5
467
100
AcDbEntity
  8
BEAM
  6
CONTINUOUS
 62
 256 
100
AcDbLine
 10
385641.3
 20
-41676.29
 30
0
 11
385641.3
 21
102323.71
 31
0
  0
LINE
  5
468
100
AcDbEntity
  8
BEAM
  6
CONTINUOUS
 62
 256 
100
AcDbLine
 10
457641.3
 20
30323.71
 30
0
 11
385641.3
 21
-41676.29
 31
0
  0
LINE
  5
469
100
AcDbEntity
  8
BEAM
  6
CONTINUOUS
 62
 256 
100
AcDbLine
 10
457641.3
 20
30323.71
 30
0
 11
385641.3
 21
102323.71
 31
0
  0
LINE
  5
46A
100
AcDbEntity
  8
BEAM
  6
CONTINUOUS
 62
 256 
100
AcDbLine
 10
397678.3
 20
-41676.29
 30
0
 11
397678.3
 21
102323.71
 31
0
  0
LINE
  5
46B
100
AcDbEntity
  8
BEAM
  6
CONTINUOUS
 62
 256 
100
AcDbLine
 10
325678.3
 20
30323.71
 30
0
 11
397678.3
 21
-41676.29
 31
0
  0
LINE
  5
46C
100
AcDbEntity
  8
BEAM
  6
CONTINUOUS
 62
 256 
100
AcDbLine
 10
325678.3
 20
30323.71
 30
0
 11
397678.3
 21
102323.71
 31
0
  0
LINE
  5
46D
100
AcDbEntity
  8
BEAM
  6
CONTINUOUS
 62
 2 
100
AcDbLine
 10
385641.3
 20
30323.71
 30
0
 11
397678.3
 21
30323.71
 31
0
  0
TEXT
5
46E
100
AcDbEntity
8
TEXT
62
 0 
100
AcDbText
 10
391659.8
 20
174323.71
 30
0
40
144000
1
Hand Rail
50
0
 72
4
 11
391659.8
 21
174323.71
 31
0
210
0
220
0
230
1
100
AcDbText
  0
LINE
  5
46F
100
AcDbEntity
  8
BEAM
  6
CONTINUOUS
 62
 256 
100
AcDbLine
 10
469822.3
 20
27617.71
 30
0
 11
325822.3
 21
27617.71
 31
0
  0
LINE
  5
470
100
AcDbEntity
  8
BEAM
  6
CONTINUOUS
 62
 256 
100
AcDbLine
 10
397822.3
 20
99617.71
 30
0
 11
469822.3
 21
27617.71
 31
0
  0
LINE
  5
471
100
AcDbEntity
  8
BEAM
  6
CONTINUOUS
 62
 256 
100
AcDbLine
 10
397822.3
 20
99617.71
 30
0
 11
325822.3
 21
27617.71
 31
0
  0
LINE
  5
472
100
AcDbEntity
  8
BEAM
  6
CONTINUOUS
 62
 256 
100
AcDbLine
 10
469822.3
 20
30179.71
 30
0
 11
325822.3
 21
30179.71
 31
0
  0
LINE
  5
473
100
AcDbEntity
  8
BEAM
  6
CONTINUOUS
 62
 256 
100
AcDbLine
 10
397822.3
 20
-41820.29
 30
0
 11
469822.3
 21
30179.71
 31
0
  0
LINE
  5
474
100
AcDbEntity
  8
BEAM
  6
CONTINUOUS
 62
 256 
100
AcDbLine
 10
397822.3
 20
-41820.29
 30
0
 11
325822.3
 21
30179.71
 31
0
  0
LINE
  5
475
100
AcDbEntity
  8
BEAM
  6
CONTINUOUS
 62
 2 
100
AcDbLine
 10
397822.29999997
 20
27617.71
 30
0
 11
397822.299999445
 21
30179.71
 31
0
  0
TEXT
5
476
100
AcDbEntity
8
TEXT
62
 0 
100
AcDbText
 10
253822.299999708
 20
28898.7099704651
 30
0
40
144000
1
Hand Rail
50
90
 72
4
 11
253822.299999708
 21
28898.7099704651
 31
0
210
0
220
0
230
1
100
AcDbText
  0
LINE
  5
477
100
AcDbEntity
  8
BEAM
  6
CONTINUOUS
 62
 256 
100
AcDbLine
 10
385689.2
 20
-44801.3
 30
0
 11
385689.2
 21
99198.7
 31
0
  0
LINE
  5
478
100
AcDbEntity
  8
BEAM
  6
CONTINUOUS
 62
 256 
100
AcDbLine
 10
457689.2
 20
27198.7
 30
0
 11
385689.2
 21
-44801.3
 31
0
  0
LINE
  5
479
100
AcDbEntity
  8
BEAM
  6
CONTINUOUS
 62
 256 
100
AcDbLine
 10
457689.2
 20
27198.7
 30
0
 11
385689.2
 21
99198.7
 31
0
  0
LINE
  5
47A
100
AcDbEntity
  8
BEAM
  6
CONTINUOUS
 62
 256 
100
AcDbLine
 10
391974.9
 20
-44801.3
 30
0
 11
391974.9
 21
99198.7
 31
0
  0
LINE
  5
47B
100
AcDbEntity
  8
BEAM
  6
CONTINUOUS
 62
 256 
100
AcDbLine
 10
319974.9
 20
27198.7
 30
0
 11
391974.9
 21
-44801.3
 31
0
  0
LINE
  5
47C
100
AcDbEntity
  8
BEAM
  6
CONTINUOUS
 62
 256 
100
AcDbLine
 10
319974.9
 20
27198.7
 30
0
 11
391974.9
 21
99198.7
 31
0
  0
LINE
  5
47D
100
AcDbEntity
  8
BEAM
  6
CONTINUOUS
 62
 2 
100
AcDbLine
 10
385689.2
 20
27198.7
 30
0
 11
391974.9
 21
27198.7
 31
0
  0
TEXT
5
47E
100
AcDbEntity
8
TEXT
62
 0 
100
AcDbText
 10
388832.05
 20
171198.7
 30
0
40
144000
1
HE400B
50
0
 72
4
 11
388832.05
 21
171198.7
 31
0
210
0
220
0
230
1
100
AcDbText
  0
LINE
  5
47F
100
AcDbEntity
  8
BEAM
  6
CONTINUOUS
 62
 256 
100
AcDbLine
 10
486283.896135132
 20
26063.8478827991
 30
0
 11
355885.492408531
 21
-35028.3472451732
 31
0
  0
LINE
  5
480
100
AcDbEntity
  8
BEAM
  6
CONTINUOUS
 62
 256 
100
AcDbLine
 10
390538.596707845
 20
60716.9521821137
 30
0
 11
486283.896135132
 21
26063.8478827991
 31
0
  0
LINE
  5
481
100
AcDbEntity
  8
BEAM
  6
CONTINUOUS
 62
 256 
100
AcDbLine
 10
390538.596707845
 20
60716.9521821137
 30
0
 11
355885.492408531
 21
-35028.3472451732
 31
0
  0
LINE
  5
482
100
AcDbEntity
  8
BEAM
  6
CONTINUOUS
 62
 256 
100
AcDbLine
 10
482920.407591469
 20
33243.0552451732
 30
0
 11
352522.003864868
 21
-27849.1398827991
 31
0
  0
LINE
  5
483
100
AcDbEntity
  8
BEAM
  6
CONTINUOUS
 62
 256 
100
AcDbLine
 10
448267.303292155
 20
-62502.2441821137
 30
0
 11
482920.407591469
 21
33243.0552451732
 31
0
  0
LINE
  5
484
100
AcDbEntity
  8
BEAM
  6
CONTINUOUS
 62
 256 
100
AcDbLine
 10
448267.303292155
 20
-62502.2441821137
 30
0
 11
352522.003864868
 21
-27849.1398827991
 31
0
  0
LINE
  5
485
100
AcDbEntity
  8
BEAM
  6
CONTINUOUS
 62
 2 
100
AcDbLine
 10
417721.205728089
 20
2696.95768114976
 30
0
 11
421084.69427069
 21
-4482.24968172175
 31
0
  0
TEXT
5
486
100
AcDbEntity
8
TEXT
62
 0 
100
AcDbText
 10
549801.353735026
 20
60199.5491084011
 30
0
40
144000
1
B 30X80
50
-64.8967141732862
 72
4
 11
549801.353735026
 21
60199.5491084011
 31
0
210
0
220
0
230
1
100
AcDbText
  0
LINE
  5
487
100
AcDbEntity
  8
BEAM
  6
CONTINUOUS
 62
 256 
100
AcDbLine
 10
482438.036712503
 20
34272.6707722901
 30
0
 11
352038.78991433
 21
-26817.7248269282
 31
0
  0
LINE
  5
488
100
AcDbEntity
  8
BEAM
  6
CONTINUOUS
 62
 256 
100
AcDbLine
 10
386693.215513807
 20
68927.0963717678
 30
0
 11
482438.036712503
 21
34272.6707722901
 31
0
  0
LINE
  5
489
100
AcDbEntity
  8
BEAM
  6
CONTINUOUS
 62
 256 
100
AcDbLine
 10
386693.215513807
 20
68927.0963717678
 30
0
 11
352038.78991433
 21
-26817.7248269282
 31
0
  0
LINE
  5
48A
100
AcDbEntity
  8
BEAM
  6
CONTINUOUS
 62
 256 
100
AcDbLine
 10
481147.510085671
 20
37027.3378269282
 30
0
 11
350748.263287497
 21
-24063.0577722901
 31
0
  0
LINE
  5
48B
100
AcDbEntity
  8
BEAM
  6
CONTINUOUS
 62
 256 
100
AcDbLine
 10
446493.084486193
 20
-58717.4833717678
 30
0
 11
481147.510085671
 21
37027.3378269282
 31
0
  0
LINE
  5
48C
100
AcDbEntity
  8
BEAM
  6
CONTINUOUS
 62
 256 
100
AcDbLine
 10
446493.084486193
 20
-58717.4833717678
 30
0
 11
350748.263287497
 21
-24063.0577722901
 31
0
  0
LINE
  5
48D
100
AcDbEntity
  8
BEAM
  6
CONTINUOUS
 62
 2 
100
AcDbLine
 10
415947.886686511
 20
6482.14002728491
 30
0
 11
417238.413312936
 21
3727.47297245596
 31
0
  0
TEXT
5
48E
100
AcDbEntity
8
TEXT
62
 0 
100
AcDbText
 10
546992.396806932
 20
66195.2020798031
 30
0
40
144000
1
B 30X80
50
-64.897504866013
 72
4
 11
546992.396806932
 21
66195.2020798031
 31
0
210
0
220
0
230
1
100
AcDbText
  0
LINE
  5
48F
100
AcDbEntity
  8
BEAM
  6
CONTINUOUS
 62
 256 
100
AcDbLine
 10
480456.579896353
 20
38488.2129843322
 30
0
 11
350507.296566684
 21
-23553.57746457
 31
0
  0
LINE
  5
490
100
AcDbEntity
  8
BEAM
  6
CONTINUOUS
 62
 256 
100
AcDbLine
 10
384461.043007067
 20
72441.9594247154
 30
0
 11
480456.579896353
 21
38488.2129843322
 31
0
  0
LINE
  5
491
100
AcDbEntity
  8
BEAM
  6
CONTINUOUS
 62
 256 
100
AcDbLine
 10
384461.043007067
 20
72441.9594247154
 30
0
 11
350507.296566684
 21
-23553.57746457
 31
0
  0
LINE
  5
492
100
AcDbEntity
  8
BEAM
  6
CONTINUOUS
 62
 256 
100
AcDbLine
 10
477973.646180738
 20
43688.8278370721
 30
0
 11
348024.36285107
 21
-18352.9626118301
 31
0
  0
LINE
  5
493
100
AcDbEntity
  8
BEAM
  6
CONTINUOUS
 62
 256 
100
AcDbLine
 10
444019.899740355
 20
-52306.7090522133
 30
0
 11
477973.646180738
 21
43688.8278370721
 31
0
  0
LINE
  5
494
100
AcDbEntity
  8
BEAM
  6
CONTINUOUS
 62
 256 
100
AcDbLine
 10
444019.899740355
 20
-52306.7090522133
 30
0
 11
348024.36285107
 21
-18352.9626118301
 31
0
  0
LINE
  5
495
100
AcDbEntity
  8
BEAM
  6
CONTINUOUS
 62
 2 
100
AcDbLine
 10
412999.161768409
 20
12667.6032400843
 30
0
 11
415482.095483259
 21
7466.98838697959
 31
0
  0
TEXT
5
496
100
AcDbEntity
8
TEXT
62
 0 
100
AcDbText
 10
544189.91196462
 20
72109.0862433391
 30
0
40
144000
1
B 30X80
50
-64.4787533803308
 72
4
 11
544189.91196462
 21
72109.0862433391
 31
0
210
0
220
0
230
1
100
AcDbText
  0
LINE
  5
497
100
AcDbEntity
  8
BEAM
  6
CONTINUOUS
 62
 256 
100
AcDbLine
 10
475963.534486824
 20
31239.3711308635
 30
0
 11
345564.292081367
 21
-29851.0338447361
 31
0
  0
LINE
  5
498
100
AcDbEntity
  8
BEAM
  6
CONTINUOUS
 62
 256 
100
AcDbLine
 10
380218.710796295
 20
65893.7898457924
 30
0
 11
475963.534486824
 21
31239.3711308635
 31
0
  0
LINE
  5
499
100
AcDbEntity
  8
BEAM
  6
CONTINUOUS
 62
 256 
100
AcDbLine
 10
380218.710796295
 20
65893.7898457924
 30
0
 11
345564.292081367
 21
-29851.0338447361
 31
0
  0
LINE
  5
49A
100
AcDbEntity
  8
BEAM
  6
CONTINUOUS
 62
 256 
100
AcDbLine
 10
474694.219864805
 20
33948.7600300137
 30
0
 11
344294.977459347
 21
-27141.6449455859
 31
0
  0
LINE
  5
49B
100
AcDbEntity
  8
BEAM
  6
CONTINUOUS
 62
 256 
100
AcDbLine
 10
440039.801149876
 20
-61796.0636605148
 30
0
 11
474694.219864805
 21
33948.7600300137
 31
0
  0
LINE
  5
49C
100
AcDbEntity
  8
BEAM
  6
CONTINUOUS
 62
 256 
100
AcDbLine
 10
440039.801149876
 20
-61796.0636605148
 30
0
 11
344294.977459347
 21
-27141.6449455859
 31
0
  0
LINE
  5
49D
100
AcDbEntity
  8
BEAM
  6
CONTINUOUS
 62
 2 
100
AcDbLine
 10
409473.386715832
 20
3448.83505690219
 30
0
 11
410742.70133745
 21
739.446157564204
 31
0
  0
TEXT
5
49E
100
AcDbEntity
8
TEXT
62
 0 
100
AcDbText
 10
540507.286441134
 20
63184.5455635472
 30
0
40
144000
1
B 30X80
50
-64.8975007461496
 72
4
 11
540507.286441134
 21
63184.5455635472
 31
0
210
0
220
0
230
1
100
AcDbText
  0
LINE
  5
49F
100
AcDbEntity
  8
BEAM
  6
CONTINUOUS
 62
 256 
100
AcDbLine
 10
469968.9
 20
27342.7
 30
0
 11
325968.9
 21
27342.7
 31
0
  0
LINE
  5
4A0
100
AcDbEntity
  8
BEAM
  6
CONTINUOUS
 62
 256 
100
AcDbLine
 10
397968.9
 20
99342.7
 30
0
 11
469968.9
 21
27342.7
 31
0
  0
LINE
  5
4A1
100
AcDbEntity
  8
BEAM
  6
CONTINUOUS
 62
 256 
100
AcDbLine
 10
397968.9
 20
99342.7
 30
0
 11
325968.9
 21
27342.7
 31
0
  0
LINE
  5
4A2
100
AcDbEntity
  8
BEAM
  6
CONTINUOUS
 62
 256 
100
AcDbLine
 10
469968.9
 20
30246.19
 30
0
 11
325968.9
 21
30246.19
 31
0
  0
LINE
  5
4A3
100
AcDbEntity
  8
BEAM
  6
CONTINUOUS
 62
 256 
100
AcDbLine
 10
397968.9
 20
-41753.81
 30
0
 11
469968.9
 21
30246.19
 31
0
  0
LINE
  5
4A4
100
AcDbEntity
  8
BEAM
  6
CONTINUOUS
 62
 256 
100
AcDbLine
 10
397968.9
 20
-41753.81
 30
0
 11
325968.9
 21
30246.19
 31
0
  0
LINE
  5
4A5
100
AcDbEntity
  8
BEAM
  6
CONTINUOUS
 62
 2 
100
AcDbLine
 10
397968.899999971
 20
27342.7
 30
0
 11
397968.899999375
 21
30246.19
 31
0
  0
TEXT
5
4A6
100
AcDbEntity
8
TEXT
62
 0 
100
AcDbText
 10
253968.899999673
 20
28794.4449704651
 30
0
40
144000
1
HE300B
50
90
 72
4
 11
253968.899999673
 21
28794.4449704651
 31
0
210
0
220
0
230
1
100
AcDbText
  0
LINE
  5
4A7
100
AcDbEntity
  8
BEAM
  6
CONTINUOUS
 62
 256 
100
AcDbLine
 10
457545.2
 20
27342.7
 30
0
 11
313545.2
 21
27342.7
 31
0
  0
LINE
  5
4A8
100
AcDbEntity
  8
BEAM
  6
CONTINUOUS
 62
 256 
100
AcDbLine
 10
385545.2
 20
99342.7
 30
0
 11
457545.2
 21
27342.7
 31
0
  0
LINE
  5
4A9
100
AcDbEntity
  8
BEAM
  6
CONTINUOUS
 62
 256 
100
AcDbLine
 10
385545.2
 20
99342.7
 30
0
 11
313545.2
 21
27342.7
 31
0
  0
LINE
  5
4AA
100
AcDbEntity
  8
BEAM
  6
CONTINUOUS
 62
 256 
100
AcDbLine
 10
457545.2
 20
30246.2
 30
0
 11
313545.2
 21
30246.2
 31
0
  0
LINE
  5
4AB
100
AcDbEntity
  8
BEAM
  6
CONTINUOUS
 62
 256 
100
AcDbLine
 10
385545.2
 20
-41753.8
 30
0
 11
457545.2
 21
30246.2
 31
0
  0
LINE
  5
4AC
100
AcDbEntity
  8
BEAM
  6
CONTINUOUS
 62
 256 
100
AcDbLine
 10
385545.2
 20
-41753.8
 30
0
 11
313545.2
 21
30246.2
 31
0
  0
LINE
  5
4AD
100
AcDbEntity
  8
BEAM
  6
CONTINUOUS
 62
 2 
100
AcDbLine
 10
385545.199999971
 20
27342.7
 30
0
 11
385545.199999375
 21
30246.2
 31
0
  0
TEXT
5
4AE
100
AcDbEntity
8
TEXT
62
 0 
100
AcDbText
 10
241545.199999673
 20
28794.4499704651
 30
0
40
144000
1
HE300B
50
90
 72
4
 11
241545.199999673
 21
28794.4499704651
 31
0
210
0
220
0
230
1
100
AcDbText
  0
LINE
  5
4AF
100
AcDbEntity
  8
BEAM
  6
CONTINUOUS
 62
 2 
100
AcDbLine
 10
396745.199999971
 20
27342.7
 30
0
 11
396745.199999375
 21
30246.2
 31
0
  0
TEXT
5
4B0
100
AcDbEntity
8
TEXT
62
 0 
100
AcDbText
 10
252745.199999673
 20
28794.4499704651
 30
0
40
144000
1
IPE180
50
90
 72
4
 11
252745.199999673
 21
28794.4499704651
 31
0
210
0
220
0
230
1
100
AcDbText
  0
LINE
  5
4B1
100
AcDbEntity
  8
BEAM
  6
CONTINUOUS
 62
 256 
100
AcDbLine
 10
464118.9
 20
27342.7
 30
0
 11
320118.9
 21
27342.7
 31
0
  0
LINE
  5
4B2
100
AcDbEntity
  8
BEAM
  6
CONTINUOUS
 62
 256 
100
AcDbLine
 10
392118.9
 20
99342.7
 30
0
 11
464118.9
 21
27342.7
 31
0
  0
LINE
  5
4B3
100
AcDbEntity
  8
BEAM
  6
CONTINUOUS
 62
 256 
100
AcDbLine
 10
392118.9
 20
99342.7
 30
0
 11
320118.9
 21
27342.7
 31
0
  0
LINE
  5
4B4
100
AcDbEntity
  8
BEAM
  6
CONTINUOUS
 62
 256 
100
AcDbLine
 10
464118.9
 20
30246.19
 30
0
 11
320118.9
 21
30246.19
 31
0
  0
LINE
  5
4B5
100
AcDbEntity
  8
BEAM
  6
CONTINUOUS
 62
 256 
100
AcDbLine
 10
392118.9
 20
-41753.81
 30
0
 11
464118.9
 21
30246.19
 31
0
  0
LINE
  5
4B6
100
AcDbEntity
  8
BEAM
  6
CONTINUOUS
 62
 256 
100
AcDbLine
 10
392118.9
 20
-41753.81
 30
0
 11
320118.9
 21
30246.19
 31
0
  0
LINE
  5
4B7
100
AcDbEntity
  8
BEAM
  6
CONTINUOUS
 62
 2 
100
AcDbLine
 10
392118.899999971
 20
27342.7
 30
0
 11
392118.899999375
 21
30246.19
 31
0
  0
TEXT
5
4B8
100
AcDbEntity
8
TEXT
62
 0 
100
AcDbText
 10
248118.899999673
 20
28794.4449704651
 30
0
40
144000
1
HE300B
50
90
 72
4
 11
248118.899999673
 21
28794.4449704651
 31
0
210
0
220
0
230
1
100
AcDbText
  0
LINE
  5
4B9
100
AcDbEntity
  8
BEAM
  6
CONTINUOUS
 62
 256 
100
AcDbLine
 10
467418.9
 20
27342.7
 30
0
 11
323418.9
 21
27342.7
 31
0
  0
LINE
  5
4BA
100
AcDbEntity
  8
BEAM
  6
CONTINUOUS
 62
 256 
100
AcDbLine
 10
395418.9
 20
99342.7
 30
0
 11
467418.9
 21
27342.7
 31
0
  0
LINE
  5
4BB
100
AcDbEntity
  8
BEAM
  6
CONTINUOUS
 62
 256 
100
AcDbLine
 10
395418.9
 20
99342.7
 30
0
 11
323418.9
 21
27342.7
 31
0
  0
LINE
  5
4BC
100
AcDbEntity
  8
BEAM
  6
CONTINUOUS
 62
 256 
100
AcDbLine
 10
467418.9
 20
30246.19
 30
0
 11
323418.9
 21
30246.19
 31
0
  0
LINE
  5
4BD
100
AcDbEntity
  8
BEAM
  6
CONTINUOUS
 62
 256 
100
AcDbLine
 10
395418.9
 20
-41753.81
 30
0
 11
467418.9
 21
30246.19
 31
0
  0
LINE
  5
4BE
100
AcDbEntity
  8
BEAM
  6
CONTINUOUS
 62
 256 
100
AcDbLine
 10
395418.9
 20
-41753.81
 30
0
 11
323418.9
 21
30246.19
 31
0
  0
LINE
  5
4BF
100
AcDbEntity
  8
BEAM
  6
CONTINUOUS
 62
 2 
100
AcDbLine
 10
395418.899999971
 20
27342.7
 30
0
 11
395418.899999375
 21
30246.19
 31
0
  0
TEXT
5
4C0
100
AcDbEntity
8
TEXT
62
 0 
100
AcDbText
 10
251418.899999673
 20
28794.4449704651
 30
0
40
144000
1
HE300B
50
90
 72
4
 11
251418.899999673
 21
28794.4449704651
 31
0
210
0
220
0
230
1
100
AcDbText
  0
LINE
  5
4C1
100
AcDbEntity
  8
BEAM
  6
CONTINUOUS
 62
 2 
100
AcDbLine
 10
385689.2
 20
30390.1997809453
 30
0
 11
391974.9
 21
30390.1902190547
 31
0
  0
TEXT
5
4C2
100
AcDbEntity
8
TEXT
62
 0 
100
AcDbText
 10
388832.269054718
 20
174390.194999833
 30
0
40
144000
1
HE400B
50
-8.71591029780956E-05
 72
4
 11
388832.269054718
 21
174390.194999833
 31
0
210
0
220
0
230
1
100
AcDbText
  0
LINE
  5
4C3
100
AcDbEntity
  8
BEAM
  6
CONTINUOUS
 62
 2 
100
AcDbLine
 10
392262.9
 20
30390.19
 30
0
 11
395274.9
 21
30390.19
 31
0
  0
TEXT
5
4C4
100
AcDbEntity
8
TEXT
62
 0 
100
AcDbText
 10
393768.9
 20
174390.19
 30
0
40
144000
1
HE400B
50
0
 72
4
 11
393768.9
 21
174390.19
 31
0
210
0
220
0
230
1
100
AcDbText
  0
LINE
  5
4C5
100
AcDbEntity
  8
BEAM
  6
CONTINUOUS
 62
 2 
100
AcDbLine
 10
395562.9
 20
30390.19
 30
0
 11
397824.9
 21
30390.19
 31
0
  0
TEXT
5
4C6
100
AcDbEntity
8
TEXT
62
 0 
100
AcDbText
 10
396693.9
 20
174390.19
 30
0
40
144000
1
HE400B
50
0
 72
4
 11
396693.9
 21
174390.19
 31
0
210
0
220
0
230
1
100
AcDbText
  0
LINE
  5
4C7
100
AcDbEntity
  8
BEAM
  6
CONTINUOUS
 62
 2 
100
AcDbLine
 10
393768.89999997
 20
27342.7
 30
0
 11
393768.899999375
 21
30246.19
 31
0
  0
TEXT
5
4C8
100
AcDbEntity
8
TEXT
62
 0 
100
AcDbText
 10
249768.899999673
 20
28794.4449704651
 30
0
40
144000
1
IPE180
50
90
 72
4
 11
249768.899999673
 21
28794.4449704651
 31
0
210
0
220
0
230
1
100
AcDbText
  0
LINE
  5
4C9
100
AcDbEntity
  8
BEAM
  6
CONTINUOUS
 62
 2 
100
AcDbLine
 10
386845.19999997
 20
27342.7
 30
0
 11
386845.199999375
 21
30246.2
 31
0
  0
TEXT
5
4CA
100
AcDbEntity
8
TEXT
62
 0 
100
AcDbText
 10
242845.199999673
 20
28794.4499704651
 30
0
40
144000
1
IPE180
50
90
 72
4
 11
242845.199999673
 21
28794.4499704651
 31
0
210
0
220
0
230
1
100
AcDbText
  0
LINE
  5
4CB
100
AcDbEntity
  8
BEAM
  6
CONTINUOUS
 62
 2 
100
AcDbLine
 10
388145.199999971
 20
27342.7
 30
0
 11
388145.199999375
 21
30246.2
 31
0
  0
TEXT
5
4CC
100
AcDbEntity
8
TEXT
62
 0 
100
AcDbText
 10
244145.199999673
 20
28794.4499704651
 30
0
40
144000
1
IPE180
50
90
 72
4
 11
244145.199999673
 21
28794.4499704651
 31
0
210
0
220
0
230
1
100
AcDbText
  0
LINE
  5
4CD
100
AcDbEntity
  8
BEAM
  6
CONTINUOUS
 62
 2 
100
AcDbLine
 10
389445.199999971
 20
27342.7
 30
0
 11
389445.199999375
 21
30246.2
 31
0
  0
TEXT
5
4CE
100
AcDbEntity
8
TEXT
62
 0 
100
AcDbText
 10
245445.199999673
 20
28794.4499704651
 30
0
40
144000
1
IPE180
50
90
 72
4
 11
245445.199999673
 21
28794.4499704651
 31
0
210
0
220
0
230
1
100
AcDbText
  0
LINE
  5
4CF
100
AcDbEntity
  8
BEAM
  6
CONTINUOUS
 62
 2 
100
AcDbLine
 10
390745.199999971
 20
27342.7
 30
0
 11
390745.199999375
 21
30246.2
 31
0
  0
TEXT
5
4D0
100
AcDbEntity
8
TEXT
62
 0 
100
AcDbText
 10
246745.199999673
 20
28794.4499704651
 30
0
40
144000
1
IPE180
50
90
 72
4
 11
246745.199999673
 21
28794.4499704651
 31
0
210
0
220
0
230
1
100
AcDbText
  0
LINE
  5
4D1
100
AcDbEntity
  8
BEAM
  6
CONTINUOUS
 62
 256 
100
AcDbLine
 10
464118.9
 20
12901.95
 30
0
 11
320118.9
 21
12901.95
 31
0
  0
LINE
  5
4D2
100
AcDbEntity
  8
BEAM
  6
CONTINUOUS
 62
 256 
100
AcDbLine
 10
392118.9
 20
84901.95
 30
0
 11
464118.9
 21
12901.95
 31
0
  0
LINE
  5
4D3
100
AcDbEntity
  8
BEAM
  6
CONTINUOUS
 62
 256 
100
AcDbLine
 10
392118.9
 20
84901.95
 30
0
 11
320118.9
 21
12901.95
 31
0
  0
LINE
  5
4D4
100
AcDbEntity
  8
BEAM
  6
CONTINUOUS
 62
 256 
100
AcDbLine
 10
464118.9
 20
19304.7899997949
 30
0
 11
320118.9
 21
19304.7899997949
 31
0
  0
LINE
  5
4D5
100
AcDbEntity
  8
BEAM
  6
CONTINUOUS
 62
 256 
100
AcDbLine
 10
392118.9
 20
-52695.2100002051
 30
0
 11
464118.9
 21
19304.7899997949
 31
0
  0
LINE
  5
4D6
100
AcDbEntity
  8
BEAM
  6
CONTINUOUS
 62
 256 
100
AcDbLine
 10
392118.9
 20
-52695.2100002051
 30
0
 11
320118.9
 21
19304.7899997949
 31
0
  0
LINE
  5
4D7
100
AcDbEntity
  8
BEAM
  6
CONTINUOUS
 62
 2 
100
AcDbLine
 10
392118.899999888
 20
12901.95
 30
0
 11
392118.899998575
 21
19304.7899997949
 31
0
  0
TEXT
5
4D8
100
AcDbEntity
8
TEXT
62
 0 
100
AcDbText
 10
248118.899999232
 20
16103.3699703626
 30
0
40
144000
1
HE1000M
50
90
 72
4
 11
248118.899999232
 21
16103.3699703626
 31
0
210
0
220
0
230
1
100
AcDbText
  0
LINE
  5
4D9
100
AcDbEntity
  8
BEAM
  6
CONTINUOUS
 62
 256 
100
AcDbLine
 10
392512.900000082
 20
-59642.05
 30
0
 11
392512.900000082
 21
84357.95
 31
0
  0
LINE
  5
4DA
100
AcDbEntity
  8
BEAM
  6
CONTINUOUS
 62
 256 
100
AcDbLine
 10
464512.900000082
 20
12357.95
 30
0
 11
392512.900000082
 21
-59642.05
 31
0
  0
LINE
  5
4DB
100
AcDbEntity
  8
BEAM
  6
CONTINUOUS
 62
 256 
100
AcDbLine
 10
464512.900000082
 20
12357.95
 30
0
 11
392512.900000082
 21
84357.95
 31
0
  0
LINE
  5
4DC
100
AcDbEntity
  8
BEAM
  6
CONTINUOUS
 62
 256 
100
AcDbLine
 10
403224.899999744
 20
-59642.05
 30
0
 11
403224.899999744
 21
84357.95
 31
0
  0
LINE
  5
4DD
100
AcDbEntity
  8
BEAM
  6
CONTINUOUS
 62
 256 
100
AcDbLine
 10
331224.899999744
 20
12357.95
 30
0
 11
403224.899999744
 21
-59642.05
 31
0
  0
LINE
  5
4DE
100
AcDbEntity
  8
BEAM
  6
CONTINUOUS
 62
 256 
100
AcDbLine
 10
331224.899999744
 20
12357.95
 30
0
 11
403224.899999744
 21
84357.95
 31
0
  0
LINE
  5
4DF
100
AcDbEntity
  8
BEAM
  6
CONTINUOUS
 62
 2 
100
AcDbLine
 10
392512.900000082
 20
12357.95
 30
0
 11
403224.899999744
 21
12357.95
 31
0
  0
TEXT
5
4E0
100
AcDbEntity
8
TEXT
62
 0 
100
AcDbText
 10
397868.899999913
 20
156357.95
 30
0
40
144000
1
HE1000M
50
0
 72
4
 11
397868.899999913
 21
156357.95
 31
0
210
0
220
0
230
1
100
AcDbText
  0
LINE
  5
4E1
100
AcDbEntity
  8
BEAM
  6
CONTINUOUS
 62
 256 
100
AcDbLine
 10
392595.348356199
 20
-52301.21
 30
0
 11
392595.348356199
 21
91698.79
 31
0
  0
LINE
  5
4E2
100
AcDbEntity
  8
BEAM
  6
CONTINUOUS
 62
 256 
100
AcDbLine
 10
464595.348356199
 20
19698.79
 30
0
 11
392595.348356199
 21
-52301.21
 31
0
  0
LINE
  5
4E3
100
AcDbEntity
  8
BEAM
  6
CONTINUOUS
 62
 256 
100
AcDbLine
 10
464595.348356199
 20
19698.79
 30
0
 11
392595.348356199
 21
91698.79
 31
0
  0
LINE
  5
4E4
100
AcDbEntity
  8
BEAM
  6
CONTINUOUS
 62
 256 
100
AcDbLine
 10
403174.9
 20
-52301.21
 30
0
 11
403174.9
 21
91698.79
 31
0
  0
LINE
  5
4E5
100
AcDbEntity
  8
BEAM
  6
CONTINUOUS
 62
 256 
100
AcDbLine
 10
331174.9
 20
19698.79
 30
0
 11
403174.9
 21
-52301.21
 31
0
  0
LINE
  5
4E6
100
AcDbEntity
  8
BEAM
  6
CONTINUOUS
 62
 256 
100
AcDbLine
 10
331174.9
 20
19698.79
 30
0
 11
403174.9
 21
91698.79
 31
0
  0
LINE
  5
4E7
100
AcDbEntity
  8
BEAM
  6
CONTINUOUS
 62
 2 
100
AcDbLine
 10
392595.348356199
 20
19698.79
 30
0
 11
403174.9
 21
19698.79
 31
0
  0
TEXT
5
4E8
100
AcDbEntity
8
TEXT
62
 0 
100
AcDbText
 10
397885.1241781
 20
163698.79
 30
0
40
144000
1
HE1000M
50
0
 72
4
 11
397885.1241781
 21
163698.79
 31
0
210
0
220
0
230
1
100
AcDbText
  0
LINE
  5
4E9
100
AcDbEntity
  8
BEAM
  6
CONTINUOUS
 62
 2 
100
AcDbLine
 10
395118.899999971
 20
12501.95
 30
0
 11
395118.899998524
 21
19554.79
 31
0
  0
TEXT
5
4EA
100
AcDbEntity
8
TEXT
62
 0 
100
AcDbText
 10
251118.899999247
 20
16028.3699704651
 30
0
40
144000
1
HE1000M
50
90
 72
4
 11
251118.899999247
 21
16028.3699704651
 31
0
210
0
220
0
230
1
100
AcDbText
  0
LINE
  5
4EB
100
AcDbEntity
  8
BEAM
  6
CONTINUOUS
 62
 2 
100
AcDbLine
 10
401118.899999971
 20
12501.95
 30
0
 11
401118.899998524
 21
19554.79
 31
0
  0
TEXT
5
4EC
100
AcDbEntity
8
TEXT
62
 0 
100
AcDbText
 10
257118.899999247
 20
16028.3699704651
 30
0
40
144000
1
HE1000M
50
90
 72
4
 11
257118.899999247
 21
16028.3699704651
 31
0
210
0
220
0
230
1
100
AcDbText
  0
LINE
  5
4ED
100
AcDbEntity
  8
BEAM
  6
CONTINUOUS
 62
 256 
100
AcDbLine
 10
458118.9
 20
12751.9500002051
 30
0
 11
314118.9
 21
12751.9500002051
 31
0
  0
LINE
  5
4EE
100
AcDbEntity
  8
BEAM
  6
CONTINUOUS
 62
 256 
100
AcDbLine
 10
386118.9
 20
84751.9500002051
 30
0
 11
458118.9
 21
12751.9500002051
 31
0
  0
LINE
  5
4EF
100
AcDbEntity
  8
BEAM
  6
CONTINUOUS
 62
 256 
100
AcDbLine
 10
386118.9
 20
84751.9500002051
 30
0
 11
314118.9
 21
12751.9500002051
 31
0
  0
LINE
  5
4F0
100
AcDbEntity
  8
BEAM
  6
CONTINUOUS
 62
 256 
100
AcDbLine
 10
458118.9
 20
19304.7899997949
 30
0
 11
314118.9
 21
19304.7899997949
 31
0
  0
LINE
  5
4F1
100
AcDbEntity
  8
BEAM
  6
CONTINUOUS
 62
 256 
100
AcDbLine
 10
386118.9
 20
-52695.2100002051
 30
0
 11
458118.9
 21
19304.7899997949
 31
0
  0
LINE
  5
4F2
100
AcDbEntity
  8
BEAM
  6
CONTINUOUS
 62
 256 
100
AcDbLine
 10
386118.9
 20
-52695.2100002051
 30
0
 11
314118.9
 21
19304.7899997949
 31
0
  0
LINE
  5
4F3
100
AcDbEntity
  8
BEAM
  6
CONTINUOUS
 62
 2 
100
AcDbLine
 10
386118.899999919
 20
12751.9500002051
 30
0
 11
386118.899998575
 21
19304.7899997949
 31
0
  0
TEXT
5
4F4
100
AcDbEntity
8
TEXT
62
 0 
100
AcDbText
 10
242118.899999247
 20
16028.3699704651
 30
0
40
144000
1
HE1000M
50
90
 72
4
 11
242118.899999247
 21
16028.3699704651
 31
0
210
0
220
0
230
1
100
AcDbText
  0
LINE
  5
4F5
100
AcDbEntity
  8
BEAM
  6
CONTINUOUS
 62
 256 
100
AcDbLine
 10
475618.9
 20
12801.95
 30
0
 11
331618.9
 21
12801.95
 31
0
  0
LINE
  5
4F6
100
AcDbEntity
  8
BEAM
  6
CONTINUOUS
 62
 256 
100
AcDbLine
 10
403618.9
 20
84801.95
 30
0
 11
475618.9
 21
12801.95
 31
0
  0
LINE
  5
4F7
100
AcDbEntity
  8
BEAM
  6
CONTINUOUS
 62
 256 
100
AcDbLine
 10
403618.9
 20
84801.95
 30
0
 11
331618.9
 21
12801.95
 31
0
  0
LINE
  5
4F8
100
AcDbEntity
  8
BEAM
  6
CONTINUOUS
 62
 256 
100
AcDbLine
 10
475618.9
 20
19254.79
 30
0
 11
331618.9
 21
19254.79
 31
0
  0
LINE
  5
4F9
100
AcDbEntity
  8
BEAM
  6
CONTINUOUS
 62
 256 
100
AcDbLine
 10
403618.9
 20
-52745.21
 30
0
 11
475618.9
 21
19254.79
 31
0
  0
LINE
  5
4FA
100
AcDbEntity
  8
BEAM
  6
CONTINUOUS
 62
 256 
100
AcDbLine
 10
403618.9
 20
-52745.21
 30
0
 11
331618.9
 21
19254.79
 31
0
  0
LINE
  5
4FB
100
AcDbEntity
  8
BEAM
  6
CONTINUOUS
 62
 2 
100
AcDbLine
 10
403618.899999909
 20
12801.95
 30
0
 11
403618.899998585
 21
19254.79
 31
0
  0
TEXT
5
4FC
100
AcDbEntity
8
TEXT
62
 0 
100
AcDbText
 10
259618.899999247
 20
16028.3699704651
 30
0
40
144000
1
HE1000M
50
90
 72
4
 11
259618.899999247
 21
16028.3699704651
 31
0
210
0
220
0
230
1
100
AcDbText
  0
LINE
  5
4FD
100
AcDbEntity
  8
BEAM
  6
CONTINUOUS
 62
 256 
100
AcDbLine
 10
470168.9
 20
12501.95
 30
0
 11
326168.9
 21
12501.95
 31
0
  0
LINE
  5
4FE
100
AcDbEntity
  8
BEAM
  6
CONTINUOUS
 62
 256 
100
AcDbLine
 10
398168.9
 20
84501.95
 30
0
 11
470168.9
 21
12501.95
 31
0
  0
LINE
  5
4FF
100
AcDbEntity
  8
BEAM
  6
CONTINUOUS
 62
 256 
100
AcDbLine
 10
398168.9
 20
84501.95
 30
0
 11
326168.9
 21
12501.95
 31
0
  0
LINE
  5
500
100
AcDbEntity
  8
BEAM
  6
CONTINUOUS
 62
 256 
100
AcDbLine
 10
470168.9
 20
19643.15
 30
0
 11
326168.9
 21
19643.15
 31
0
  0
LINE
  5
501
100
AcDbEntity
  8
BEAM
  6
CONTINUOUS
 62
 256 
100
AcDbLine
 10
398168.9
 20
-52356.85
 30
0
 11
470168.9
 21
19643.15
 31
0
  0
LINE
  5
502
100
AcDbEntity
  8
BEAM
  6
CONTINUOUS
 62
 256 
100
AcDbLine
 10
398168.9
 20
-52356.85
 30
0
 11
326168.9
 21
19643.15
 31
0
  0
LINE
  5
503
100
AcDbEntity
  8
BEAM
  6
CONTINUOUS
 62
 2 
100
AcDbLine
 10
398168.899999971
 20
12501.95
 30
0
 11
398168.899998506
 21
19643.15
 31
0
  0
TEXT
5
504
100
AcDbEntity
8
TEXT
62
 0 
100
AcDbText
 10
254168.899999238
 20
16072.5499704651
 30
0
40
144000
1
HE1000M
50
90
 72
4
 11
254168.899999238
 21
16072.5499704651
 31
0
210
0
220
0
230
1
100
AcDbText
  0
LWPOLYLINE
  5
505
100
AcDbEntity
  8
SLAB
  6
CONTINUOUS
 62
 256 
100
AcDbPolyline
90
 4
70
 1
38
 0
39
 0
 10
402468.4
 20
20037.15
 10
407256.3
 20
20037.15
 10
405724.3
 20
23307.13
 10
402468.4
 20
23307.13
  0
LWPOLYLINE
  5
506
100
AcDbEntity
  8
SLAB
  6
CONTINUOUS
 62
 256 
100
AcDbPolyline
90
 4
70
 1
38
 0
39
 0
 10
390543.9
 20
25447.15
 10
387693.9
 20
25447.15
 10
387693.9
 20
21587.31
 10
390543.9
 20
21587.31
  0
LWPOLYLINE
  5
507
100
AcDbEntity
  8
SLAB
  6
CONTINUOUS
 62
 256 
100
AcDbPolyline
90
 6
70
 1
38
 0
39
 0
 10
397968.9
 20
30390.19
 10
385453
 20
30390.19
 10
385453
 20
27448.7
 10
385425.6
 20
27448.7
 10
385320.2
 20
27198.7
 10
397968.9
 20
27198.7
  0
LWPOLYLINE
  5
508
100
AcDbEntity
  8
SLAB
  6
CONTINUOUS
 62
 256 
100
AcDbPolyline
90
 10
70
 1
38
 0
39
 0
 10
385320.2
 20
27198.7
 10
397968.9
 20
27198.7
 10
397968.9
 20
27448.7
 10
406373.5
 20
27448.7
 10
412803.5
 20
13700
 10
403618.9
 20
13700
 10
403618.9
 20
19698.79
 10
392118.9
 20
19698.79
 10
392118.9
 20
13700
 10
379629
 20
13700
  0
LWPOLYLINE
  5
509
100
AcDbEntity
  8
SLAB
  6
CONTINUOUS
 62
 256 
100
AcDbPolyline
90
 10
70
 1
38
 0
39
 0
 10
422264.5
 20
-6529.41
 10
410600
 20
-1200
 10
404788.5
 20
10796.75
 10
378405
 20
10796.75
 10
379629
 20
13700
 10
392118.9
 20
13700
 10
392118.9
 20
12357.95
 10
403618.9
 20
12357.95
 10
403618.9
 20
13700
 10
412803.5
 20
13700
  0
LWPOLYLINE
  5
50A
100
AcDbEntity
  8
SLAB
  6
CONTINUOUS
 62
 256 
100
AcDbPolyline
90
 4
70
 1
38
 0
39
 0
 10
403618.9
 20
19698.79
 10
403618.9
 20
12357.95
 10
392118.9
 20
12357.95
 10
392118.9
 20
19698.79
  0
LWPOLYLINE
  5
50B
100
AcDbEntity
  8
SLAB
  6
CONTINUOUS
 62
 256 
100
AcDbPolyline
90
 6
70
 1
38
 0
39
 0
 10
415800.4
 20
765.3801
 10
415050.4
 20
2064.418
 10
413550.4
 20
2064.418
 10
412800.4
 20
765.3801
 10
413550.4
 20
-533.658
 10
415050.4
 20
-533.658
  0
LWPOLYLINE
  5
50C
100
AcDbEntity
  8
SLAB
  6
CONTINUOUS
 62
 256 
100
AcDbPolyline
90
 4
70
 1
38
 0
39
 0
 10
386725
 20
22450
 10
387600
 20
22450
 10
387600
 20
25950
 10
386725
 20
25950
  0
LWPOLYLINE
  5
50D
100
AcDbEntity
  8
SLAB
  6
CONTINUOUS
 62
 256 
100
AcDbPolyline
90
 4
70
 1
38
 0
39
 0
 10
389975
 20
22450
 10
390850
 20
22450
 10
390850
 20
25950
 10
389975
 20
25950
  0
LWPOLYLINE
  5
50E
100
AcDbEntity
  8
SLAB
  6
CONTINUOUS
 62
 256 
100
AcDbPolyline
90
 4
70
 1
38
 0
39
 0
 10
395268.9
 20
22925
 10
393875
 20
22925
 10
393875
 20
21500
 10
395268.9
 20
21500
  0
LINE
  5
50F
100
AcDbEntity
  8
WALL
  6
CONTINUOUS
 62
 256 
100
AcDbLine
 10
393593.9
 20
21197.2036764165
 30
4000
 11
393593.9
 21
21472.175
 31
4000
  0
LINE
  5
510
100
AcDbEntity
  8
WALL
  6
CONTINUOUS
 62
 256 
100
AcDbLine
 10
393593.9
 20
21197.2036764165
 30
4000
 11
394568.896323529
 21
21197.1750000541
 31
4000
  0
LINE
  5
511
100
AcDbEntity
  8
WALL
  6
CONTINUOUS
 62
 256 
100
AcDbLine
 10
393843.9
 20
21447.1963235835
 30
4000
 11
394568.903676471
 21
21447.1749999459
 31
4000
  0
LINE
  5
512
100
AcDbEntity
  8
WALL
  6
CONTINUOUS
 62
 256 
100
AcDbLine
 10
393843.9
 20
21447.1963235835
 30
4000
 11
393843.9
 21
21472.175
 31
4000
  0
LINE
  5
513
100
AcDbEntity
  8
WALL
  6
CONTINUOUS
 62
 256 
100
AcDbLine
 10
395543.9
 20
21197.1463234753
 30
4000
 11
394568.896323529
 21
21197.1750000541
 31
4000
  0
LINE
  5
514
100
AcDbEntity
  8
WALL
  6
CONTINUOUS
 62
 256 
100
AcDbLine
 10
395543.9
 20
21197.1463234753
 30
4000
 11
395543.9
 21
22224.65
 31
4000
  0
LINE
  5
515
100
AcDbEntity
  8
WALL
  6
CONTINUOUS
 62
 256 
100
AcDbLine
 10
395293.9
 20
21447.1536765247
 30
4000
 11
395293.9
 21
22224.65
 31
4000
  0
LINE
  5
516
100
AcDbEntity
  8
WALL
  6
CONTINUOUS
 62
 256 
100
AcDbLine
 10
395293.9
 20
21447.1536765247
 30
4000
 11
394568.903676471
 21
21447.1749999459
 31
4000
  0
LINE
  5
517
100
AcDbEntity
  8
WALL
  6
CONTINUOUS
 62
 256 
100
AcDbLine
 10
395293.9
 20
23002.1536764165
 30
4000
 11
394568.896323529
 21
23002.1750000541
 31
4000
  0
LINE
  5
518
100
AcDbEntity
  8
WALL
  6
CONTINUOUS
 62
 256 
100
AcDbLine
 10
395293.9
 20
23002.1536764165
 30
4000
 11
395293.9
 21
22224.65
 31
4000
  0
LINE
  5
519
100
AcDbEntity
  8
WALL
  6
CONTINUOUS
 62
 256 
100
AcDbLine
 10
395543.9
 20
23252.1463235835
 30
4000
 11
395543.9
 21
22224.65
 31
4000
  0
LINE
  5
51A
100
AcDbEntity
  8
WALL
  6
CONTINUOUS
 62
 256 
100
AcDbLine
 10
395543.9
 20
23252.1463235835
 30
4000
 11
394568.903676471
 21
23252.1749999459
 31
4000
  0
LINE
  5
51B
100
AcDbEntity
  8
WALL
  6
CONTINUOUS
 62
 256 
100
AcDbLine
 10
393593.9
 20
23252.2036765247
 30
4000
 11
394568.903676471
 21
23252.1749999459
 31
4000
  0
LINE
  5
51C
100
AcDbEntity
  8
WALL
  6
CONTINUOUS
 62
 256 
100
AcDbLine
 10
393593.9
 20
23252.2036765247
 30
4000
 11
393593.9
 21
23000.845
 31
4000
  0
LINE
  5
51D
100
AcDbEntity
  8
WALL
  6
CONTINUOUS
 62
 256 
100
AcDbLine
 10
393843.9
 20
23002.1963234753
 30
4000
 11
393843.9
 21
23000.845
 31
4000
  0
LINE
  5
51E
100
AcDbEntity
  8
WALL
  6
CONTINUOUS
 62
 256 
100
AcDbLine
 10
393843.9
 20
23002.1963234753
 30
4000
 11
394568.896323529
 21
23002.1750000541
 31
4000
  0
LINE
  5
51F
100
AcDbEntity
  8
WALL
  6
CONTINUOUS
 62
 256 
100
AcDbLine
 10
393843.9
 20
22874.49
 30
4000
 11
393843.9
 21
23000.845
 31
4000
  0
LINE
  5
520
100
AcDbEntity
  8
WALL
  6
CONTINUOUS
 62
 256 
100
AcDbLine
 10
393593.9
 20
22874.49
 30
4000
 11
393593.9
 21
23000.845
 31
4000
  0
LINE
  5
521
100
AcDbEntity
  8
WALL
  6
CONTINUOUS
 62
 256 
100
AcDbLine
 10
393843.9
 20
22874.49
 30
4000
 11
393593.9
 21
22874.49
 31
4000
  0
LINE
  5
522
100
AcDbEntity
  8
WALL
  6
CONTINUOUS
 62
 256 
100
AcDbLine
 10
393593.9
 20
21622.15
 30
4000
 11
393593.9
 21
21472.175
 31
4000
  0
LINE
  5
523
100
AcDbEntity
  8
WALL
  6
CONTINUOUS
 62
 256 
100
AcDbLine
 10
393843.9
 20
21622.15
 30
4000
 11
393843.9
 21
21472.175
 31
4000
  0
LINE
  5
524
100
AcDbEntity
  8
WALL
  6
CONTINUOUS
 62
 256 
100
AcDbLine
 10
393593.9
 20
21622.15
 30
4000
 11
393843.9
 21
21622.15
 31
4000
  0
ENDSEC
  0
SECTION
  2
OBJECTS
  0
DICTIONARY
  5
C
100
AcDbDictionary
  3
ACAD_GROUP
350
D
  3
ACAD_MLINESTYLE
350
E
  0
DICTIONARY
  5
D
102
{ACAD_REACTORS
330
C
102
}
100
AcDbDictionary
  0
DICTIONARY
  5
E
102
{ACAD_REACTORS
330
C
102
}
100
AcDbDictionary
  3
STANDARD
350
1C
  0
MLINESTYLE
  5
1C
102
{ACAD_REACTORS
330
E
102
}
100
AcDbMlineStyle
  2
STANDARD
 70
     0
  3

 62
     0
 51
90.0
 52
90.0
 71
     2
 49
0.5
 62
   256
  6
BYLAYER
 49
-0.5
 62
   256
  6
BYLAYER
  0
ENDSEC
  0
EOF
